SplineFontDB: 3.0
FontName: Sebastian-Numerals
FullName: Sebastian-Numerals
FamilyName: Sebastian-Numerals
Weight: Standard

StartChar: zero
Encoding: 48 48 0
Width: 624
Flags: W
HStem: -5 28<267.53 356.47> 727 28<267.53 356.47>
VStem: 40 149<225.766 524.234> 435 149<225.766 524.234>
LayerCount: 2
Fore
SplineSet
40 375 m 0
 40 588 154 755 312 755 c 0
 470 755 584 588 584 375 c 0
 584 162 470 -5 312 -5 c 0
 154 -5 40 162 40 375 c 0
312 727 m 0
 210 727 189 567 189 402 c 2
 189 342 l 2
 189 177 210 23 312 23 c 0
 414 23 435 177 435 342 c 2
 435 402 l 2
 435 567 414 727 312 727 c 0
EndSplineSet
Validated: 1
EndChar

StartChar: one
Encoding: 49 49 1
Width: 518
Flags: W
HStem: 0 32<121 199.473 366.748 448> 323 21G<50 89.8182>
VStem: 219 131<46.2378 543.003>
LayerCount: 2
Fore
SplineSet
350 109 m 2
 350 53 365 32 422 32 c 2
 448 32 l 1
 448 0 l 1
 121 0 l 1
 121 32 l 1
 147 32 l 2
 197 32 219 53 219 111 c 2
 219 537 l 2
 219 547 204 554 198 543 c 2
 79 323 l 1
 50 339 l 1
 227 735 l 1
 273 708 303 707 350 735 c 1
 350 109 l 2
EndSplineSet
Validated: 33
EndChar

StartChar: two
Encoding: 50 50 2
Width: 611
Flags: W
HStem: -5 21G<362 480> -5 21G<362 480> 95 107<146.274 254.546> 220 20G<542 571> 439 196<119.612 223.721> 719 36<218.012 363.224>
VStem: 40 26<0 22.7139> 62 198<482.906 598.69> 428 142<467.246 632.955> 545 26<185.438 240>
LayerCount: 2
Fore
SplineSet
162 635 m 0xbe80
 219 635 260 591 260 537 c 0
 260 480 219 439 162 439 c 0
 108 439 62 490 62 552 c 0
 62 652 173 755 321 755 c 0
 447 755 570 672 570 549 c 0xbd80
 570 426 465 361 366 317 c 0
 298 287 225 250 165 186 c 1
 189 198 213 202 237 202 c 0
 312 202 370 123 442 123 c 0
 488 123 539 154 545 240 c 1
 571 240 l 1xbc40
 571 162 545 -5 415 -5 c 0
 309 -5 272 95 192 95 c 0
 153 95 86 62 66 0 c 1
 40 0 l 1
 49 122 156 231 242 291 c 0
 384 390 428 477 428 572 c 0
 428 670 377 719 283 719 c 0
 217 719 145 679 119 627 c 1
 132 632 148 635 162 635 c 0xbe80
EndSplineSet
Validated: 1
EndChar

StartChar: three
Encoding: 51 51 3
Width: 619
Flags: W
HStem: -5 37<190.485 351.355> 107 194<103.703 204.258> 399 30<235 339.25> 480 175<142.794 228.25> 719 36<217.291 368.414>
VStem: 40 202<142.096 257.417> 81 178<510.909 622.074> 419 160<125.747 294.833> 422 128<503.447 652.323>
LayerCount: 2
Fore
SplineSet
376 414 m 1xfa80
 499 384 579 314 579 214 c 0
 579 108 488 -5 298 -5 c 0
 163 -5 40 78 40 179 c 0
 40 259 88 301 143 301 c 0
 198 301 242 257 242 202 c 0
 242 154 201 88 102 107 c 1
 118 80 182 32 280 32 c 0
 388 32 419 113 419 223 c 0xfd
 419 328 403 399 235 399 c 1
 235 429 l 1
 394 429 422 491 422 572 c 0
 422 663 395 719 290 719 c 0
 226 719 174 695 142 655 c 1
 216 666 259 616 259 568 c 0
 259 520 219 480 171 480 c 0
 123 480 81 515 81 572 c 0
 81 673 191 755 309 755 c 0
 435 755 550 687 550 579 c 0
 550 486 474 436 376 414 c 1xfa80
EndSplineSet
Validated: 33
EndChar

StartChar: four
Encoding: 52 52 4
Width: 637
Flags: W
HStem: 0 30<206 289.032 466.421 549> 183 30<70 309 447 597>
VStem: 309 138<43.4935 183 213 407>
LayerCount: 2
Fore
SplineSet
309 183 m 1
 40 183 l 1
 40 213 l 1
 152 406 200 572 227 750 c 1
 290 728 362 726 442 750 c 1
 346 557 200 429 70 213 c 1
 309 213 l 1
 309 407 l 1
 447 574 l 1
 447 213 l 1
 597 213 l 1
 597 183 l 1
 447 183 l 1
 447 97 l 2
 447 51 471 30 513 30 c 2
 549 30 l 1
 549 0 l 1
 206 0 l 1
 206 30 l 1
 242 30 l 2
 284 30 309 51 309 99 c 2
 309 183 l 1
EndSplineSet
Validated: 33
EndChar

StartChar: five
Encoding: 53 53 5
Width: 588
Flags: W
HStem: -8 33<173.186 325.926> 95 194<106.01 202.372> 374 21G<100 133> 434 36<196.327 338.473>
VStem: 40 202<136.377 246.056> 100 28<426 595> 406 142<136.16 336.741>
LayerCount: 2
Fore
SplineSet
128 595 m 1xf6
 128 426 l 1xf6
 168 441 223 470 298 470 c 0
 416 470 548 399 548 237 c 0
 548 89 424 -8 271 -8 c 0
 137 -8 40 69 40 168 c 0
 40 248 88 289 143 289 c 0
 198 289 242 246 242 191 c 0xfa
 242 143 197 82 104 95 c 1
 123 62 178 25 256 25 c 0
 348 25 406 88 406 237 c 0
 406 380 361 434 264 434 c 0
 214 434 166 412 100 374 c 1
 100 735 l 1
 278 694 407 709 505 735 c 1
 463 587 286 571 128 595 c 1xf6
EndSplineSet
Validated: 33
EndChar

StartChar: six
Encoding: 54 54 6
Width: 607
Flags: W
HStem: -8 31<256.129 357.783> 438 35<260.348 376.724> 728 30<280.499 404.727>
VStem: 40 133<210.967 365.224 395 523.313> 337 185<570.985 686.063> 434 133<141.976 350.029>
LayerCount: 2
Fore
SplineSet
337 630 m 0xf8
 337 676 368 707 405 713 c 1
 395 722 379 728 342 728 c 0
 220 728 173 586 173 456 c 2
 173 395 l 1
 204 432 273 473 341 473 c 0
 463 473 567 396 567 246 c 0xf4
 567 98 451 -8 312 -8 c 0
 138 -8 40 155 40 368 c 0
 40 578 142 758 342 758 c 0
 444 758 522 702 522 630 c 0
 522 578 481 538 429 538 c 0
 377 538 337 578 337 630 c 0xf8
319 438 m 0
 277 438 173 392 173 296 c 2
 173 225 l 2
 173 133 216 23 308 23 c 0
 389 23 434 116 434 242 c 0
 434 393 388 438 319 438 c 0
EndSplineSet
Validated: 1
EndChar

StartChar: seven
Encoding: 55 55 7
Width: 578
Flags: W
HStem: 495 21G<60 90> 537 132<349.629 476.489> 615 125<146.782 256.929> 738 20G<60 87 526 558>
VStem: 60 27<495 552.964 619.846 758> 531 27<724.249 758>
LayerCount: 2
Fore
SplineSet
506.971 590.425 m 1xdc
 478.758 549.163 442.704 537 403 537 c 0xdc
 334 537 254 615 179 615 c 0xac
 125 615 93 563 87 495 c 1
 60 495 l 1
 60 758 l 1
 87 758 l 1x9c
 87 619.846 l 1
 111.273 693.472 149.166 740 211 740 c 0xac
 298 740 347 669 428 669 c 0
 492 669 521 706 531 758 c 1
 558 758 l 1
 558 389 334 313 334 -8.99969 c 1
 265 12.0003 211 7.00031 163 -7.99969 c 1
 163 257.907 425.232 327.852 506.971 590.425 c 1xdc
EndSplineSet
Validated: 33
EndChar

StartChar: eight
Encoding: 56 56 8
Width: 612
Flags: W
HStem: -5 30<220.435 383.248> 725 30<233.142 370.446>
VStem: 40 91<109.585 257.473> 71 109<507.5 635.191> 448 88<511.443 657.51> 456 116<132.487 263>
LayerCount: 2
Fore
SplineSet
180 625 m 0xd8
 180 552 276 498 373 439 c 1
 426 476 448 521 448 584 c 0
 448 656 398 725 302 725 c 0
 222 725 180 683 180 625 c 0xd8
456 152 m 0xe4
 456 245 345 293 242 350 c 1
 166 308 131 258 131 184 c 0
 131 112 168 25 302 25 c 0
 428 25 456 101 456 152 c 0xe4
213 366 m 1
 136 411 71 465 71 550 c 0
 71 664 174 755 302 755 c 0
 424 755 536 686 536 584 c 0xd8
 536 508 477 460 401 422 c 1
 490 367 572 306 572 220 c 0
 572 85 438 -5 302 -5 c 0
 152 -5 40 84 40 180 c 0
 40 275 119 325 213 366 c 1
EndSplineSet
Validated: 1
EndChar

StartChar: nine
Encoding: 57 57 9
Width: 607
Flags: W
HStem: -8 30<188.948 298.894> 190 20G<133 185> 273 36<240.681 360.097> 727 31<241.709 351.388>
VStem: 40 130<399.349 607.087> 66 185<59.9526 177.015> 437 130<267.89 344 373.163 567.734>
LayerCount: 2
Fore
SplineSet
188 31 m 1xf6
 200 24 223 22 235 22 c 0
 359 22 437 155 437 320 c 2
 437 344 l 1
 411 311 345 273 282 273 c 0
 154 273 40 352 40 499 c 0xfa
 40 655 154 758 296 758 c 0
 446 758 567 630 567 435 c 0
 567 179 435 -8 235 -8 c 0
 154 -8 66 34 66 118 c 0
 66 170 107 210 159 210 c 0
 211 210 251 170 251 118 c 0
 251 72 216 38 188 31 c 1xf6
300 309 m 0
 351 309 437 357 437 441 c 2
 437 525 l 2
 437 617 394 727 295 727 c 0
 209 727 170 646 170 504 c 0
 170 374 228 309 300 309 c 0
EndSplineSet
Validated: 1
EndChar

StartChar: asteriskmath
Encoding: 8727 8727 10
Width: 1000
VWidth: 0
LayerCount: 2
Back
SplineSet
227 -768 m 4
 234 -739 267 -655 267 -534 c 4
 267 -424 206 -338 149 -290 c 4
 129 -272 80 -240 56 -240 c 4
 24 -240 24 -281 24 -330 c 4
 0 -330 l 4
 0 19 l 4
 0 55 1 60 13 60 c 4
 30 60 29 34 33 13 c 4
 41 -37 73 -113 134 -181 c 4
 213 -269 300 -374 300 -539 c 4
 300 -623 273 -737 249 -777 c 4
 238 -795 220 -797 227 -768 c 4
EndSplineSet
EndChar

StartChar: colon
Encoding: 58 58 11
Width: 272
Flags: W
HStem: -4 29<65.7024 119.342> 305 29<150.943 207.308>
VStem: 10 50<26.4287 160.453> 213 49<174.395 302.748>
LayerCount: 2
Fore
SplineSet
60 62 m 0
 60 40 70 25 92 25 c 0
 153 25 213 221 213 266 c 0
 213 289 204 305 179 305 c 0
 118 305 60 115 60 62 c 0
180 334 m 0
 238.009 334 262 284 262 229 c 0
 262 138 190 -4 97 -4 c 0
 36 -4 10 47 10 100 c 0
 10 200 90.5 334 180 334 c 0
EndSplineSet
Validated: 1
EndChar

StartChar: semicolon
Encoding: 59 59 12
Width: 232
Flags: W
HStem: 0 29<14.4321 75.7919 135.904 187.309> 311 20G<172.5 177.5 214.5 219.5>
VStem: 12 210
LayerCount: 2
Fore
SplineSet
173 0 m 0
 17 0 l 0
 10 0 7 2 12 15 c 0
 16 28 18 29 27 29 c 0
 45 29 l 0
 78 29 82 54 91 83 c 0
 133 211 l 0
 140 232 126 234 114 223 c 0
 49 165 l 0
 43 159 40 161 33 167 c 0
 26 174 26 178 33 185 c 0
 161 321 l 0
 168 328 170 331 175 331 c 0
 180 331 186 324 195 324 c 0
 206 324 211 331 218 331 c 0
 221 331 222 330 222 326 c 0
 222 324 222 323 221 319 c 0
 139 59 l 0
 137.188 53.202 135.902 47.6667 135.902 42.965 c 0
 135.902 34.692 139.885 29 152 29 c 0
 178 29 l 0
 190 29 191 27 188 16 c 0
 183 1 180 0 173 0 c 0
EndSplineSet
Validated: 1
EndChar

StartChar: less
Encoding: 60 60 13
Width: 285
Flags: W
HStem: -4 58<111.643 212.741> -4 21G<16.5 27.5> 218 21G<87.5 107> 307 27<127.211 204.718>
VStem: 10 28<-3.95909 37.1661> 64 61<236.167 303.546> 217 58<198.481 301.011> 221 28<65.8121 97.8586>
LayerCount: 2
Fore
SplineSet
221 84 m 0xbd
 227 99 227 102 240 98 c 0
 251 95 251 91 249 85 c 0
 240 45 212 -4 157 -4 c 0xbd
 114 -4 102 44 70 44 c 0
 50 44 41 28 38 11 c 0
 36 -2 33 -4 22 -4 c 0
 11 -4 10 -1 10 11 c 0
 10 67 62 123 134 157 c 0
 179 178 202 194 214 238 c 0
 217 248 217 257 217 265 c 0
 217 292 197 307 166 307 c 0
 142 307 125 300 125 286 c 0
 125 276 134 269 134 251 c 0
 134 230 117 218 97 218 c 0
 78 218 64 237 64 253 c 0
 64 302 112 334 172 334 c 0
 226 334 275 301 275 245 c 0x7e
 275 189 230 161 192 146 c 0
 158 134 122 123 97 101 c 0
 86 92 85 83 100 77 c 0
 120 69 143 54 170 54 c 0
 193 54 211 60 221 84 c 0xbd
EndSplineSet
Validated: 1
EndChar

StartChar: equal
Encoding: 61 61 14
Width: 287
Flags: W
HStem: -4 29<72.2582 141.98> 92 20G<40 60> 152 29<99.7336 161.987> 228 21G<99.5 119.5> 306 28<137.48 208.549>
VStem: 10 62<26.0968 92.7227> 77 59<245.542 304.728> 172 61<47.773 142.803> 217 60<203.933 302.187>
LayerCount: 2
Fore
SplineSet
106 25 m 0xff
 143 25 172 64 172 109 c 0xff
 172 136 154 152 126 152 c 0
 105 152 l 0
 96 152 94 154 98 168 c 0
 101 180 104 181 114 181 c 0
 130 181 l 0
 174 181 204 195 214 246 c 0
 215 253 217 260 217 266 c 0
 217 292 202 306 173 306 c 0
 149 306 136 300 136 288 c 0
 136 279 143 277 143 261 c 0
 143 242 130 228 109 228 c 0
 90 228 77 241 77 263 c 0
 77 303 123 334 182 334 c 0
 223 334 277 311 277 257 c 0xfe80
 277 222 258 188 216 174 c 0
 195 167 202 156 211 143 c 0
 219 131 233 116 233 91 c 0
 233 30 172 -4 111 -4 c 0
 57 -4 10 25 10 69 c 0
 10 96 29 112 51 112 c 0
 69 112 83 99 83 79 c 0
 83 57 72 51 72 41 c 0
 72 30 84 25 106 25 c 0xff
EndSplineSet
Validated: 33
EndChar

StartChar: greater
Encoding: 62 62 15
Width: 305
Flags: W
HStem: 0 29<64.4216 126.67 185.46 245.309> 94 30<75.4978 136.125 214.999 283.229> 308 20G<147 155 213 222>
LayerCount: 2
Fore
SplineSet
269 94 m 0
 217 94 l 0
 204 94 199 90 193 74 c 0
 187 55 l 0
 182 41 179 29 200 29 c 0
 236 29 l 0
 248 29 249 27 246 16 c 0
 241 1 238 0 231 0 c 0
 67 0 l 0
 60 0 56 2 62 15 c 0
 66 28 68 29 76 29 c 0
 100 29 l 0
 123 29 125 38 130 53 c 0
 137 75 l 0
 142 91 134 94 125 94 c 0
 9 94 l 0
 4 94 0 98 0 104 c 0
 0 110 4 117 8 121 c 0
 61 170 109 234 140 320 c 0
 143 326 145 328 149 328 c 0
 161 328 166 321 184 321 c 0
 204 321 208 328 218 328 c 0
 226 328 225 321 220 312 c 0
 177 242 122 188 79 149 c 0
 66 137 58 124 82 124 c 0
 124 124 l 0
 151 124 154 127 161 147 c 0
 167 165 l 0
 171 175 174 179 182 185 c 0
 194 194 210 207 222 217 c 0
 232 226 239 222 235 210 c 0
 215 145 l 0
 210 131 213 124 228 124 c 0
 274 124 l 0
 286 124 287 122 284 111 c 0
 279 96 276 94 269 94 c 0
EndSplineSet
Validated: 1
EndChar

StartChar: question
Encoding: 63 63 16
Width: 275
Flags: W
HStem: -4 29<75.5596 140.627> 89 20G<40.5 62.5> 177 30<102.817 170.832> 267 52<108.362 236.796> 269 59<103 177.996 181.46 239.619>
VStem: 10 65<26.0773 88.4325> 181 59<59.8319 171.064>
LayerCount: 2
Fore
SplineSet
240 119 m 0xee
 240 39 171 -4 107 -4 c 0
 54 -4 10 27 10 66 c 0
 10 92 29 109 52 109 c 0
 73 109 85 92 85 74 c 0
 85 54 75 49 75 40 c 0
 75 29 87 25 107 25 c 0
 149 25 181 81 181 131 c 0
 181 162 163 177 129 177 c 0
 112 177 88 173 72 168 c 0
 65 166 54 168 57 176 c 0
 77 232 84 264 95 321 c 0
 96 326 99 328 103 328 c 0xee
 110 328 137 319 180 319 c 0xf6
 211 319 252 328 259 328 c 0xee
 270 328 264 315 260 310 c 0
 239 281 199 267 160 267 c 0xf6
 150 267 139 269 128 269 c 0
 120 269 115 264 111 254 c 0
 106 241 104 232 99 216 c 0
 98 211 96 204 105 204 c 0
 117 204 126 207 149 207 c 0
 205 207 240 170 240 119 c 0xee
EndSplineSet
Validated: 1
EndChar

StartChar: numbersign
Encoding: 35 35 18
Width: 225
VWidth: 0
Flags: W
HStem: 301 20G<48 78 147 177 198 225>
VStem: 48 30<-340 -194.734 -85.0188 55.5781 166.814 321> 147 30<-321 -165.654 -55.5 86.3804 193.68 340>
LayerCount: 2
Fore
SplineSet
0 48 m 1
 0 136 l 1
 48 150 l 1
 48 321 l 1
 78 321 l 1
 78 186 l 2
 78 172 92 163 104 167 c 2
 147 179 l 1
 147 340 l 1
 177 340 l 1
 177 212 l 2
 177 201 188 191 198 194 c 2
 225 202 l 1
 225 114 l 1
 177 100 l 1
 177 -36 l 2
 177 -49 183 -60 197 -56 c 2
 225 -48 l 1
 225 -136 l 1
 177 -150 l 1
 177 -321 l 1
 147 -321 l 1
 147 -182 l 2
 147 -168 136 -162 124 -166 c 2
 78 -179 l 1
 78 -340 l 1
 48 -340 l 1
 48 -214 l 2
 48 -203 37 -191 24 -195 c 2
 0 -202 l 1
 0 -114 l 1
 48 -100 l 1
 48 38 l 2
 48 49 37 59 24 55 c 2
 0 48 l 1
78 71 m 1
 78 -65 l 2
 78 -77 86 -89 102 -84 c 2
 147 -71 l 1
 147 70 l 2
 147 76 139 89 128 86 c 2
 78 71 l 1
EndSplineSet
Validated: 33
EndChar

StartChar: percent
Encoding: 37 37 19
Width: 425
VWidth: 0
Flags: W
HStem: 320 20G<0 38 87.1429 155 248 278 347 377 398 425>
VStem: 0 38<174.945 340> 0 30<-95.2748 75> 117 38<-340 -175.531> 125 30<-75 96.1333> 248 30<-340 -194.734 -85.0188 55.5781 166.814 321> 347 30<-321 -165.654 -55.5 86.3804 193.68 340>
LayerCount: 2
Fore
SplineSet
0 340 m 5xc6
 38 340 l 5
 38 194 l 6
 38 179 53 174 60 175 c 6
 155 203 l 5
 155 141 l 5
 155 111 l 5
 155 -66 l 5
 155 -158 l 5xce
 155 -340 l 5
 117 -340 l 5
 117 -192 l 6
 117 -178 104 -173 93 -176 c 6
 0 -203 l 5
 0 -141 l 5
 0 -111 l 5
 0 66 l 5
 0 158 l 5xb6
 0 340 l 5xc6
30 75 m 5xae
 30 -76 l 6
 30 -88 42 -99 54 -95 c 6
 125 -75 l 5
 125 82 l 6
 125 92 115 99 104 96 c 6
 30 75 l 5xae
200 48 m 5
 200 136 l 5
 248 150 l 5
 248 321 l 5
 278 321 l 5
 278 186 l 6
 278 172 292 163 304 167 c 6
 347 179 l 5
 347 340 l 5
 377 340 l 5
 377 212 l 6
 377 201 388 191 398 194 c 6
 425 202 l 5
 425 114 l 5
 377 100 l 5
 377 -36 l 6
 377 -49 383 -60 397 -56 c 6
 425 -48 l 5
 425 -136 l 5
 377 -150 l 5
 377 -321 l 5
 347 -321 l 5
 347 -182 l 6
 347 -168 336 -162 324 -166 c 6
 278 -179 l 5
 278 -340 l 5
 248 -340 l 5
 248 -214 l 6
 248 -203 237 -191 224 -195 c 6
 200 -202 l 5
 200 -114 l 5
 248 -100 l 5
 248 38 l 6
 248 49 237 59 224 55 c 6
 200 48 l 5
278 71 m 5
 278 -65 l 6
 278 -77 286 -89 302 -84 c 6
 347 -71 l 5
 347 70 l 6
 347 76 339 89 328 86 c 6
 278 71 l 5
EndSplineSet
Validated: 33
EndChar

StartChar: degree
Encoding: 176 176 20
Width: 318
Flags: W
HStem: 320 20G<0 28 53.3636 117 164 207 250 273>
VStem: 0 28<-70.1333 60.0625 127.623 281> 89 28<-281 -127.623 -60.0625 70.1333> 164 43<107.006 340> 164 26<-65.1817 77.6069>
LayerCount: 2
Fore
SplineSet
207 -65 m 0xf0
 254 -29 261 12 256 49 c 0
 251 87 220 95 197 73 c 0
 192 69 190 63 190 57 c 0
 190 -57 l 0xe8
 190 -65 201 -69 207 -65 c 0xf0
174 -123 m 0
 165 -131 164 -129 164 -116 c 0xe8
 164 340 l 0
 207 340 l 0
 207 121 l 0
 207 115 218 107 224 107 c 0
 232 107 242 113 258 113 c 0
 288 113 318 91 318 47 c 0
 318 -17 256 -51 207 -94 c 0xf0
 174 -123 l 0
117 -281 m 0
 89 -281 l 0
 89 -140 l 0
 89 -131 78 -126 70 -128 c 0
 0 -150 l 0
 0 281 l 0
 28 281 l 0
 28 140 l 0
 28 131 39 126 47 128 c 0
 117 150 l 0
 117 -281 l 0
25 -59 m 0
 25 -66 34 -73 43 -70 c 0
 82 -58 l 0
 88 -56 92 -53 92 -46 c 0
 92 59 l 0
 92 66 83 73 74 70 c 0
 35 58 l 0
 29 56 25 53 25 46 c 0
 25 -59 l 0
EndSplineSet
Validated: 33
EndChar

StartChar: plusminus
Encoding: 177 177 21
Width: 343
Flags: W
HStem: 235.903 45.0967G<0 28 53.3636 117 197 225 273 301 318 343>
VStem: 0 28<-70.1333 60.0625 127.623 281> 89 28<-281 -127.623 -60.0625 70.1333> 197 28<-274.097 -151.818 -73.1853 51.9905 129.815 255.903> 273 28<-256.097 -130.009 -52.1839 72.9919 151.625 273.903>
LayerCount: 2
Fore
SplineSet
224 -62.0967 m 0
 224 -70.0967 234 -75.0967 242 -73.0967 c 0
 263 -67.0967 l 0
 269 -65.0967 274 -59.0967 274 -51.0967 c 0
 274 61.9033 l 0
 274 69.9033 264 74.9033 256 72.9033 c 0
 235 66.9033 l 0
 229 64.9033 224 58.9033 224 50.9033 c 0
 224 -62.0967 l 0
198 38.9033 m 0
 198 46.9033 190 53.9033 183 51.9033 c 0
 155 42.9033 l 0
 155 103.903 l 0
 179 110.903 l 0
 192 114.903 197 122.903 197 134.903 c 0
 197 255.903 l 0
 225 255.903 l 0
 225 141.903 l 0
 225 133.903 234 127.903 242 129.903 c 0
 260 134.903 l 0
 270 137.903 273 143.903 273 151.903 c 0
 273 273.903 l 0
 301 273.903 l 0
 301 165.903 l 0
 301 157.903 311 149.903 318 151.903 c 0
 343 158.903 l 0
 343 97.9033 l 0
 312 88.9033 l 0
 305 86.9033 300 82.9033 300 74.9033 c 0
 300 -39.0967 l 0
 300 -47.0967 308 -54.0967 315 -52.0967 c 0
 343 -43.0967 l 0
 343 -104.097 l 0
 319 -111.097 l 0
 306 -115.097 301 -123.097 301 -135.097 c 0
 301 -256.097 l 0
 273 -256.097 l 0
 273 -142.097 l 0
 273 -134.097 264 -128.097 256 -130.097 c 0
 238 -135.097 l 0
 228 -138.097 225 -144.097 225 -152.097 c 0
 225 -274.097 l 0
 197 -274.097 l 0
 197 -166.097 l 0
 197 -158.097 187 -150.097 180 -152.097 c 0
 155 -159.097 l 0
 155 -98.0967 l 0
 186 -89.0967 l 0
 193 -87.0967 198 -83.0967 198 -75.0967 c 0
 198 38.9033 l 0
117 -281 m 0
 89 -281 l 0
 89 -140 l 0
 89 -131 78 -126 70 -128 c 0
 0 -150 l 0
 0 281 l 0
 28 281 l 0
 28 140 l 0
 28 131 39 126 47 128 c 0
 117 150 l 0
 117 -281 l 0
25 -59 m 0
 25 -66 34 -73 43 -70 c 0
 82 -58 l 0
 88 -56 92 -53 92 -46 c 0
 92 59 l 0
 92 66 83 73 74 70 c 0
 35 58 l 0
 29 56 25 53 25 46 c 0
 25 -59 l 0
EndSplineSet
Validated: 1
EndChar

StartChar: dollar
Encoding: 36 36 22
Width: 397
VWidth: 0
Flags: W
HStem: 111 34<265.75 337.5> 320 125G<0 38 87.1429 155 202 254>
VStem: 0 38<174.945 340> 0 30<-95.2748 75> 117 38<-340 -175.531> 125 30<-75 96.1333> 202 52<137.465 445> 202 30<-108.199 102.43> 324 73<-27.6972 102.111>
LayerCount: 2
Fore
SplineSet
0 340 m 5xe080
 38 340 l 5
 38 194 l 6
 38 179 53 174 60 175 c 6
 155 203 l 5
 155 141 l 5
 155 111 l 5
 155 -66 l 5
 155 -158 l 5xe480
 155 -340 l 5
 117 -340 l 5
 117 -192 l 6
 117 -178 104 -173 93 -176 c 6
 0 -203 l 5
 0 -141 l 5
 0 -111 l 5
 0 66 l 5
 0 158 l 5xd880
 0 340 l 5xe080
30 75 m 5xd480
 30 -76 l 6
 30 -88 42 -99 54 -95 c 6
 125 -75 l 5
 125 82 l 6
 125 92 115 99 104 96 c 6
 30 75 l 5xd480
202 445 m 5xc280
 254 445 l 5
 254 156 l 6xc280
 254 144 268 135 279 138 c 4
 290 142 303 145 316 145 c 4
 359 145 397 111 397 54 c 4
 397 -46 315 -99 265 -136 c 6
 212 -175 l 6
 205 -180 202 -178 202 -169 c 6xc180
 202 445 l 5xc280
232 93 m 5xc180
 232 -99 l 6
 232 -107 247.547851562 -113.038085938 255.779296875 -107 c 4
 304.692382812 -71.1220703125 324 -19.8974609375 324 39 c 4
 324 91 302 111 277 111 c 4
 265 111 246 104 232 93 c 5xc180
EndSplineSet
Validated: 1
EndChar

StartChar: asterisk
Encoding: 42 42 23
Width: 512
Flags: W
HStem: -134 96<137.553 219.261 298.739 380.447> -30 60<229.3 288.7> 38 96<137.553 219.261 298.739 380.447> 180 20G<61 96 416 451>
VStem: 0 31<-89.3848 89.3848> 125 96<-121.447 -39.7394 39.7394 121.447> 229 60<-29.6999 29.6999> 297 96<-121.447 -39.7394 39.7394 121.447> 481 31<-89.3848 89.3848>
LayerCount: 2
Fore
SplineSet
512 0 m 0
 513 -87 472 -154 430 -200 c 0
 416 -186 l 0
 449 -144 482 -83 481 0 c 0
 481 83 449 144 416 186 c 0
 430 200 l 0
 472 154 512 87 512 0 c 0
0 0 m 0
 -1 87 40 154 82 200 c 0
 96 186 l 0
 63 144 30 83 31 0 c 0
 31 -83 63 -144 96 -186 c 0
 82 -200 l 0
 40 -154 0 -87 0 0 c 0
289 0 m 0
 289 -30 318 -38 380 -38 c 0
 383 -75 390 -119 393 -134 c 0
 378 -131 334 -124 297 -121 c 0
 297 -59 289 -30 259 -30 c 0
 229 -30 221 -59 221 -121 c 0
 184 -124 140 -131 125 -134 c 0
 128 -119 135 -75 138 -38 c 0
 200 -38 229 -30 229 0 c 0
 229 30 200 38 138 38 c 0
 135 75 128 119 125 134 c 0
 140 131 184 124 221 121 c 0
 221 59 229 30 259 30 c 0
 289 30 297 59 297 121 c 0
 334 124 378 131 393 134 c 0
 390 119 383 75 380 38 c 0
 318 38 289 30 289 0 c 0
EndSplineSet
Validated: 33
EndChar

StartChar: at
Encoding: 64 64 24
Width: 272
Flags: W
HStem: -4 29<74.9085 137.166> 157 30<88.459 157.052> 225 21G<212 233.5> 305 29<143.644 201.246>
VStem: 10 51<36.1947 144.456> 166 60<46.5094 152.509> 190 72<230.082 285.718>
LayerCount: 2
Fore
SplineSet
123 157 m 0xfc
 89 157 72 143 66 116 c 0
 63 104 61 91 61 80 c 0
 61 53 74 25 107 25 c 0
 146 25 166 80 166 114 c 0
 166 144 146 157 123 157 c 0xfc
185 305 m 0
 135 305 102 254 87 202 c 0
 85 194 82 182 94 182 c 0
 106 182 118 187 137 187 c 0
 186 187 226 158 226 110 c 0xfc
 226 41 168 -4 109 -4 c 0
 55 -4 10 36 10 117 c 0
 10 209 88 334 190 334 c 0
 235 334 262 305 262 270 c 0
 262 246 246 225 221 225 c 0
 203 225 190 238 190 257 c 0xfa
 190 273 196 280 200 286 c 0
 207 298 201 305 185 305 c 0
EndSplineSet
Validated: 1
EndChar

StartChar: A
Encoding: 65 65 25
Width: 269
Flags: W
HStem: 201 21G<32.525 46.525> 230 48<195.161 214.023> 264 70<70.1523 85.9958 96.2854 173.027>
VStem: 25.025 90<4.0236 41.3281> 261.025 32<292.645 333.873>
LayerCount: 2
Fore
SplineSet
206.025 230 m 0xd8
 198.025 230 189.025 227 182.025 227 c 0
 150.025 227 151.025 264 114.025 264 c 0
 84.025 264 67.025 246 59.025 218 c 0
 55.025 204 54.025 201 39.025 201 c 0
 26.025 201 27.025 208 30.025 218 c 0
 58.025 317 l 0
 62.025 331 63.025 334 75.025 334 c 0
 83.025 334 l 0xb8
 91.025 334 92.025 330 90.025 323 c 0
 87.025 310 l 0
 82.025 287 102.025 294 117.025 307 c 0
 131.025 320 139.025 329 158.025 329 c 0
 193.025 329 195.025 278 221.025 278 c 0xd8
 240.025 278 252.025 293 261.025 317 c 0
 267.025 333 269.025 334 282.025 334 c 0xb8
 292.025 334 296.025 331 293.025 321 c 0
 250.025 164 140.025 102 115.025 7 c 0
 113.025 -1 111.025 -2 107.025 -2 c 0
 95.025 -2 90.025 4 71.025 4 c 0
 46.025 4 45.025 -2 34.025 -2 c 0
 30.025 -2 25.025 0 25.025 4 c 0
 25.025 5 25.025 7 26.025 8 c 0
 85.025 122 157.025 138 208.025 209 c 0
 213.025 216 214.025 220 214.025 224 c 0
 214.025 228 211.025 230 206.025 230 c 0xd8
EndSplineSet
Validated: 1
EndChar

StartChar: B
Encoding: 66 66 26
Width: 292
Flags: W
HStem: -3 30<71.8765 167.481> 304 30<135.227 225.892>
VStem: 10 36<48.1678 128.63> 74 52<219.441 298.152> 184 54<37.5563 123.614> 246 36<207.898 287.694>
LayerCount: 2
Fore
SplineSet
282 248 m 0
 282 225 267 201 247 185 c 0
 220 164 217 159 229 130 c 0
 235 116 238 101 238 89 c 0
 238 34 183 -3 118 -3 c 0
 62 -3 10 33 10 88 c 0
 10 120 33 150 73 172 c 0
 92 182 92 191 84 211 c 0
 80 222 74 238 74 251 c 0
 74 298 117 334 178 334 c 0
 241 334 282 297 282 248 c 0
218 201 m 0
 232 208 246 224 246 249 c 0
 246 281 218 304 181 304 c 0
 147 304 126 292 126 266 c 0
 126 246 142 222 164 204 c 0
 182 189 198 190 218 201 c 0
120 27 m 0
 163 27 184 50 184 73 c 0
 184 103 164 125 141 143 c 0
 125 156 109 155 90 147 c 0
 65 136 46 115 46 88 c 0
 46 51 81 27 120 27 c 0
EndSplineSet
Validated: 33
EndChar

StartChar: C
Encoding: 67 67 27
Width: 279
Flags: W
HStem: -4 96<23.7808 83.8382> 143 30<119.056 187.001> 305 29<142.722 205.491>
VStem: 10 77<29.0511 87.5547> 52 59<176.748 279.495> 217 52<185.654 298.438>
LayerCount: 2
Fore
SplineSet
154 173 m 0xec
 187 173 203 183 211 212 c 0
 214 225 217 239 217 250 c 0
 217 277 207 305 175 305 c 0
 136 305 111 249 111 215 c 0
 111 187 125 173 154 173 c 0xec
99 27 m 0
 142 33 173 75 187 123 c 0
 190 131 192 146 179 146 c 0
 167 146 158 143 139 143 c 0
 90 143 52 165 52 217 c 0xec
 52 286 111 334 170 334 c 0
 223 334 269 299 269 227 c 0
 269 123 187 -4 84 -4 c 0
 40 -4 10 19 10 50 c 0
 10 74 26 92 51 92 c 0
 71 92 87 78 87 58 c 0xf4
 87 53 86 46 85 42 c 0
 83 31 83 25 99 27 c 0
EndSplineSet
Validated: 1
EndChar

StartChar: D
Encoding: 68 68 28
Width: 624
Flags: W
HStem: -3 26<275.6 348.4> 980 25<275.6 348.4>
VStem: 40 159<296.531 706.94> 425 159<296.531 706.94>
LayerCount: 2
Fore
SplineSet
40 502 m 0
 40 802 154 1005 312 1005 c 0
 470 1005 584 802 584 502 c 0
 584 202 470 -3 312 -3 c 0
 154 -3 40 202 40 502 c 0
312 980 m 0
 214 980 199 777 199 558 c 2
 199 428 l 2
 199 209 214 23 312 23 c 0
 410 23 425 209 425 428 c 2
 425 558 l 2
 425 777 410 980 312 980 c 0
EndSplineSet
Validated: 1
EndChar

StartChar: E
Encoding: 69 69 29
Width: 528
Flags: W
HStem: 0 32<121 199.473 376.748 458> 980 20G<219.158 360>
VStem: 219 141<46.2378 798.004>
LayerCount: 2
Fore
SplineSet
360 109 m 2
 360 53 375 32 432 32 c 2
 458 32 l 1
 458 0 l 1
 121 0 l 1
 121 32 l 1
 147 32 l 2
 197 32 219 53 219 111 c 2
 219 792 l 2
 219 802 203 810 198 798 c 2
 67 502 l 1
 38 518 l 1
 227 1000 l 1
 273 974 313 972 360 1000 c 1
 360 109 l 2
EndSplineSet
Validated: 33
EndChar

StartChar: F
Encoding: 70 70 30
Width: 611
Flags: W
HStem: -5 21G<357 475> -5 21G<357 475> 117 122<126.76 214.008> 280 20G<540.5 571> 645 196<112.77 223.721> 968 36<220.524 347.706>
VStem: 40 26<0 49.5522> 62 198<688.906 800.541> 413 157<654.893 861.351> 545 26<227.191 300>
LayerCount: 2
Fore
SplineSet
111 831 m 1xbe80
 123 835 148 841 162 841 c 0
 219 841 260 797 260 743 c 0
 260 686 219 645 162 645 c 0
 108 645 62 696 62 758 c 0
 62 890 163 1004 321 1004 c 0
 458 1004 570 906 570 762 c 0xbd80
 570 614 464 526 370 461 c 0
 326 431 214 344 138 211 c 1
 160 229 184 239 210 239 c 0
 298 239 349 138 442 138 c 0
 488 138 536 178 545 300 c 1
 571 300 l 1xbc40
 571 222 540 -5 410 -5 c 0
 304 -5 228 117 154 117 c 0
 98 117 75 66 66 0 c 1
 40 0 l 1
 54 183 153 291 245 398 c 0
 332 499 413 576 413 761 c 0
 413 891 377 968 283 968 c 0
 202 968 130 909 111 831 c 1xbe80
EndSplineSet
Validated: 1
EndChar

StartChar: G
Encoding: 71 71 31
Width: 619
Flags: W
HStem: -5 35<207.094 334.877> 165 195<88.3182 204.258> 533 30<235 324.24> 674 173<123.246 227.375> 973 32<223.413 355.1>
VStem: 40 202<195.038 316.417> 81 178<708.409 821.836> 414 165<171.472 396.233> 417 133<671.938 871.006>
LayerCount: 2
Fore
SplineSet
81 781 m 0xfa80
 81 911 179 1005 309 1005 c 0
 435 1005 550 916 550 772 c 0xfa80
 550 642 466 576 362 548 c 1
 493 515 579 426 579 287 c 0
 579 146 488 -5 298 -5 c 0
 163 -5 40 104 40 238 c 0
 40 318 88 360 143 360 c 0
 198 360 242 316 242 261 c 0
 242 205 201 128 88 165 c 1
 109 105 182 30 280 30 c 0
 382 30 414 144 414 299 c 0xfd
 414 440 403 533 235 533 c 1
 235 563 l 1
 394 563 417 661 417 763 c 0
 417 901 389 973 290 973 c 0
 216 973 146 925 123 847 c 1
 220 876 259 810 259 762 c 0
 259 714 219 674 171 674 c 0
 123 674 81 711 81 781 c 0xfa80
EndSplineSet
Validated: 33
EndChar

StartChar: H
Encoding: 72 72 32
Width: 637
Flags: W
HStem: 0 30<201 284.032 471.421 554> 281 30<70 304 452 597> 980 20G<211.5 452>
VStem: 304 148<43.4935 281 311 506>
LayerCount: 2
Fore
SplineSet
304 281 m 1
 40 281 l 1
 40 311 l 1
 152 504 206 796 217 1000 c 1
 280 978 372 976 452 1000 c 1
 368 794 212 532 70 311 c 1
 304 311 l 1
 304 506 l 1
 452 750 l 1
 452 311 l 1
 597 311 l 1
 597 281 l 1
 452 281 l 1
 452 97 l 2
 452 51 476 30 518 30 c 2
 554 30 l 1
 554 0 l 1
 201 0 l 1
 201 30 l 1
 237 30 l 2
 279 30 304 51 304 99 c 2
 304 281 l 1
EndSplineSet
Validated: 33
EndChar

StartChar: I
Encoding: 73 73 33
Width: 648
Flags: W
HStem: -5 33<182.988 314.938> 154 190<80.2066 204.258> 587 35<201.042 325.695> 980 20G<100 505>
VStem: 40 202<186.874 301.056> 100 28<567 836> 396 152<181.938 448.282>
LayerCount: 2
Fore
SplineSet
80 154 m 1xfa
 100 88 165 28 256 28 c 0
 348 28 396 106 396 315 c 0
 396 505 361 587 264 587 c 0
 214 587 166 558 100 507 c 1
 100 1000 l 1
 278 959 407 974 505 1000 c 1
 461 844 286 812 128 836 c 1
 128 567 l 1xf6
 166 593 223 622 298 622 c 0
 416 622 548 530 548 315 c 0
 548 118 424 -5 271 -5 c 0
 137 -5 40 91 40 223 c 0
 40 303 88 344 143 344 c 0
 198 344 242 301 242 246 c 0
 242 198 198 120 80 154 c 1xfa
EndSplineSet
Validated: 33
EndChar

StartChar: J
Encoding: 74 74 34
Width: 607
Flags: W
HStem: -5 28<270.024 346.077> 592 37<270.497 369.606> 976 29<296.224 412.692>
VStem: 40 143<281.33 504.169 524 696.208> 338 184<778.985 897.33> 424 143<191.569 466.66>
LayerCount: 2
Fore
SplineSet
338 838 m 0xf8
 338 920 418 938 454 919 c 1
 436 960 390 976 352 976 c 0
 216 976 183 779 183 606 c 2
 183 524 l 1
 214 581 272 629 346 629 c 0
 462 629 567 527 567 327 c 0xf4
 567 130 451 -5 312 -5 c 0
 138 -5 40 206 40 489 c 0
 40 768 142 1005 342 1005 c 0
 444 1005 522 935 522 838 c 0
 522 786 482 746 430 746 c 0
 378 746 338 786 338 838 c 0xf8
324 592 m 0
 278 592 183 537 183 409 c 2
 183 299 l 2
 183 177 221 23 308 23 c 0
 387 23 424 154 424 322 c 0
 424 523 389 592 324 592 c 0
EndSplineSet
Validated: 33
EndChar

StartChar: K
Encoding: 75 75 35
Width: 578
Flags: W
HStem: -5 21G<304.5 339> -5 21G<304.5 339> 749 147<359.513 463.211> 847 140<146.435 246.172>
VStem: 60 27<712 785.615 872.793 1005> 531 27<961.318 1005>
LayerCount: 2
Fore
SplineSet
519.52 848.306 m 1xac
 489.857 779.431 448.863 749 403 749 c 0xac
 334 749 254 847 179 847 c 0
 125 847 90 801 87 712 c 1
 60 712 l 1
 60 1005 l 1
 87 1005 l 1
 87 872.793 l 1
 111.795 946.567 152.79 987 211 987 c 0x1c
 298 987 347 896 428 896 c 0
 492 896 521 953 531 1005 c 1
 558 1005 l 1
 558 514 339 423 339 -5 c 1
 270 23 206 16 158 -4 c 1
 158 370.993 456.762 444.82 519.52 848.306 c 1xac
EndSplineSet
Validated: 33
EndChar

StartChar: L
Encoding: 76 76 36
Width: 612
Flags: W
HStem: -5 30<227.879 373.52> 975 30<237.737 362.685>
VStem: 40 91<133.911 332.855> 71 103<705.5 868.411> 448 88<689.543 886.311> 459 113<154.214 273.522>
LayerCount: 2
Fore
SplineSet
174 838 m 0xd8
 174 758 270 674 368 582 c 1
 425 635 448 702 448 787 c 0
 448 886 398 975 302 975 c 0
 222 975 174 926 174 838 c 0xd8
459 195 m 0xe4
 459 299 354 383 253 473 c 1
 169 413 131 339 131 235 c 0
 131 134 168 25 302 25 c 0
 428 25 459 123 459 195 c 0xe4
229 495 m 1
 146 572 71 654 71 757 c 0
 71 914 174 1005 302 1005 c 0
 424 1005 536 930 536 787 c 0xd8
 536 682 473 612 393 558 c 1
 486 469 572 373 572 268 c 0
 572 88 438 -5 302 -5 c 0
 152 -5 40 93 40 229 c 0
 40 363 127 436 229 495 c 1
EndSplineSet
Validated: 1
EndChar

StartChar: M
Encoding: 77 77 37
Width: 607
Flags: W
HStem: -5 31<162.43 287.923> 228 20G<133 185> 363 39<252.389 349.086> 976 29<250.356 337.972>
VStem: 40 140<532.732 804.568> 66 185<95.8177 215.015> 427 140<359.558 458 481.576 754.828>
LayerCount: 2
Fore
SplineSet
120 76 m 1xf6
 138 48 181 26 228 26 c 0
 364 26 427 211 427 430 c 2
 427 458 l 1
 404 410 340 363 277 363 c 0
 153 363 40 468 40 664 c 0xfa
 40 871 154 1005 296 1005 c 0
 446 1005 567 838 567 579 c 0
 567 239 435 -5 235 -5 c 0
 154 -5 66 45 66 156 c 0
 66 208 107 248 159 248 c 0
 211 248 251 208 251 156 c 0
 251 85 184 42 120 76 c 1xf6
300 402 m 0
 351 402 427 463 427 575 c 2
 427 698 l 2
 427 820 389 976 295 976 c 0
 211 976 180 859 180 670 c 0
 180 497 228 402 300 402 c 0
EndSplineSet
Validated: 33
EndChar

StartChar: N
Encoding: 78 78 38
Width: 271
Flags: W
HStem: -17 32<0.61264 118.54 153.007 270.961> 115 20G<129 142.5>
VStem: 119 32<-135.961 -18.4324 16.5436 134.735>
LayerCount: 2
Fore
SplineSet
178 14 m 0
 213 14 222 15 247 15 c 0
 266 15 271 13 271 1 c 0
 271 -13 268 -17 245 -17 c 0
 206 -17 194 -16 172 -16 c 0
 158 -16 150 -27 150 -41 c 0
 150 -76 151 -90 151 -112 c 0
 151 -131 149 -136 137 -136 c 0
 125 -136 119 -133 119 -110 c 0
 119 -72 120 -63 120 -42 c 0
 120 -25 108 -16 87 -16 c 0
 86 -16 52 -17 37 -17 c 0
 1 -17 0 -14 0 -2 c 0
 0 0 l 0
 0 12 8 15 31 15 c 0
 93 15 l 0
 110 15 120 26 120 38 c 0
 120 53 119 84 119 98 c 0
 119 134 125 135 133 135 c 0
 136 135 l 0
 149 135 152 131 152 113 c 0
 152 97 151 61 151 44 c 0
 151 25 160 14 178 14 c 0
EndSplineSet
Validated: 1
EndChar

StartChar: O
Encoding: 79 79 39
Width: 370
Flags: W
HStem: -17 32<0.61264 118.54 153.007 270.961> 135 24G<129 142.5 289 300.5>
VStem: 119 32<-135.961 -18.4324 16.5436 134.735> 339 31<-84.2894 84.7331>
LayerCount: 2
Fore
SplineSet
339 0 m 0
 339 102 284 155 284 170 c 0
 284 176 286 179 292 179 c 0
 309 179 370 97 370 0 c 0
 370 -96 309 -179 292 -179 c 0
 286 -179 284 -176 284 -170 c 0
 284 -155 339 -101 339 0 c 0
178 14 m 0
 213 14 222 15 247 15 c 0
 266 15 271 13 271 1 c 0
 271 -13 268 -17 245 -17 c 0
 206 -17 194 -16 172 -16 c 0
 158 -16 150 -27 150 -41 c 0
 150 -76 151 -90 151 -112 c 0
 151 -131 149 -136 137 -136 c 0
 125 -136 119 -133 119 -110 c 0
 119 -72 120 -63 120 -42 c 0
 120 -25 108 -16 87 -16 c 0
 86 -16 52 -17 37 -17 c 0
 1 -17 0 -14 0 -2 c 0
 0 0 l 0
 0 12 8 15 31 15 c 0
 93 15 l 0
 110 15 120 26 120 38 c 0
 120 53 119 84 119 98 c 0
 119 134 125 135 133 135 c 0
 136 135 l 0
 149 135 152 131 152 113 c 0
 152 97 151 61 151 44 c 0
 151 25 160 14 178 14 c 0
EndSplineSet
Validated: 1
EndChar

StartChar: P
Encoding: 80 80 40
Width: 680
Flags: W
HStem: -17 32<0.61264 118.54 153.007 270.961 310.613 428.54 463.007 580.961> 135 24G<129 142.5 439 452.5 599 610.5>
VStem: 119 32<-135.961 -18.4324 16.5436 134.735> 429 32<-135.961 -18.4324 16.5436 134.735> 649 31<-84.2894 84.7331>
LayerCount: 2
Fore
SplineSet
649 0 m 0
 649 102 594 155 594 170 c 0
 594 176 596 179 602 179 c 0
 619 179 680 97 680 0 c 0
 680 -96 619 -179 602 -179 c 0
 596 -179 594 -176 594 -170 c 0
 594 -155 649 -101 649 0 c 0
488 14 m 0
 523 14 532 15 557 15 c 0
 576 15 581 13 581 1 c 0
 581 -13 578 -17 555 -17 c 0
 516 -17 504 -16 482 -16 c 0
 468 -16 460 -27 460 -41 c 0
 460 -76 461 -90 461 -112 c 0
 461 -131 459 -136 447 -136 c 0
 435 -136 429 -133 429 -110 c 0
 429 -72 430 -63 430 -42 c 0
 430 -25 418 -16 397 -16 c 0
 396 -16 362 -17 347 -17 c 0
 311 -17 310 -14 310 -2 c 0
 310 0 l 0
 310 12 318 15 341 15 c 0
 403 15 l 0
 420 15 430 26 430 38 c 0
 430 53 429 84 429 98 c 0
 429 134 435 135 443 135 c 0
 446 135 l 0
 459 135 462 131 462 113 c 0
 462 97 461 61 461 44 c 0
 461 25 470 14 488 14 c 0
178 14 m 0
 213 14 222 15 247 15 c 0
 266 15 271 13 271 1 c 0
 271 -13 268 -17 245 -17 c 0
 206 -17 194 -16 172 -16 c 0
 158 -16 150 -27 150 -41 c 0
 150 -76 151 -90 151 -112 c 0
 151 -131 149 -136 137 -136 c 0
 125 -136 119 -133 119 -110 c 0
 119 -72 120 -63 120 -42 c 0
 120 -25 108 -16 87 -16 c 0
 86 -16 52 -17 37 -17 c 0
 1 -17 0 -14 0 -2 c 0
 0 0 l 0
 0 12 8 15 31 15 c 0
 93 15 l 0
 110 15 120 26 120 38 c 0
 120 53 119 84 119 98 c 0
 119 134 125 135 133 135 c 0
 136 135 l 0
 149 135 152 131 152 113 c 0
 152 97 151 61 151 44 c 0
 151 25 160 14 178 14 c 0
EndSplineSet
Validated: 1
EndChar

StartChar: Q
Encoding: 81 81 41
Width: 990
Flags: W
HStem: -17 32<0.61264 118.54 153.007 270.961 310.613 428.54 463.007 580.961 620.613 738.54 773.007 890.961> 135 24G<129 142.5 439 452.5 749 762.5 909 920.5>
VStem: 119 32<-135.961 -18.4324 16.5436 134.735> 429 32<-135.961 -18.4324 16.5436 134.735> 739 32<-135.961 -18.4324 16.5436 134.735> 959 31<-84.2894 84.7331>
LayerCount: 2
Fore
SplineSet
959 0 m 0
 959 102 904 155 904 170 c 0
 904 176 906 179 912 179 c 0
 929 179 990 97 990 0 c 0
 990 -96 929 -179 912 -179 c 0
 906 -179 904 -176 904 -170 c 0
 904 -155 959 -101 959 0 c 0
798 14 m 0
 833 14 842 15 867 15 c 0
 886 15 891 13 891 1 c 0
 891 -13 888 -17 865 -17 c 0
 826 -17 814 -16 792 -16 c 0
 778 -16 770 -27 770 -41 c 0
 770 -76 771 -90 771 -112 c 0
 771 -131 769 -136 757 -136 c 0
 745 -136 739 -133 739 -110 c 0
 739 -72 740 -63 740 -42 c 0
 740 -25 728 -16 707 -16 c 0
 706 -16 672 -17 657 -17 c 0
 621 -17 620 -14 620 -2 c 0
 620 0 l 0
 620 12 628 15 651 15 c 0
 713 15 l 0
 730 15 740 26 740 38 c 0
 740 53 739 84 739 98 c 0
 739 134 745 135 753 135 c 0
 756 135 l 0
 769 135 772 131 772 113 c 0
 772 97 771 61 771 44 c 0
 771 25 780 14 798 14 c 0
488 14 m 0
 523 14 532 15 557 15 c 0
 576 15 581 13 581 1 c 0
 581 -13 578 -17 555 -17 c 0
 516 -17 504 -16 482 -16 c 0
 468 -16 460 -27 460 -41 c 0
 460 -76 461 -90 461 -112 c 0
 461 -131 459 -136 447 -136 c 0
 435 -136 429 -133 429 -110 c 0
 429 -72 430 -63 430 -42 c 0
 430 -25 418 -16 397 -16 c 0
 396 -16 362 -17 347 -17 c 0
 311 -17 310 -14 310 -2 c 0
 310 0 l 0
 310 12 318 15 341 15 c 0
 403 15 l 0
 420 15 430 26 430 38 c 0
 430 53 429 84 429 98 c 0
 429 134 435 135 443 135 c 0
 446 135 l 0
 459 135 462 131 462 113 c 0
 462 97 461 61 461 44 c 0
 461 25 470 14 488 14 c 0
178 14 m 0
 213 14 222 15 247 15 c 0
 266 15 271 13 271 1 c 0
 271 -13 268 -17 245 -17 c 0
 206 -17 194 -16 172 -16 c 0
 158 -16 150 -27 150 -41 c 0
 150 -76 151 -90 151 -112 c 0
 151 -131 149 -136 137 -136 c 0
 125 -136 119 -133 119 -110 c 0
 119 -72 120 -63 120 -42 c 0
 120 -25 108 -16 87 -16 c 0
 86 -16 52 -17 37 -17 c 0
 1 -17 0 -14 0 -2 c 0
 0 0 l 0
 0 12 8 15 31 15 c 0
 93 15 l 0
 110 15 120 26 120 38 c 0
 120 53 119 84 119 98 c 0
 119 134 125 135 133 135 c 0
 136 135 l 0
 149 135 152 131 152 113 c 0
 152 97 151 61 151 44 c 0
 151 25 160 14 178 14 c 0
EndSplineSet
Validated: 1
EndChar

StartChar: R
Encoding: 82 82 42
Width: 628
Flags: W
HStem: 232 32<0.00151443 101.86 197.947 294.941 333.059 430.053 526.14 627.998>
VStem: 298 33<-125.999 -24.9287 22.0944 229.304 266.991 474.797 520.253 621.999>
LayerCount: 2
Fore
SplineSet
0 248 m 0
 0 262 1 264 17 264 c 0
 70 264 l 0
 92 264 103 269 106 294 c 0
 119 392 172 483 257 511 c 0
 288 521 297 524 297 555 c 0
 297 603 l 0
 297 621 299 622 314 622 c 0
 327 622 330 621 330 605 c 0
 330 552 l 0
 330 525 334 521 363 513 c 0
 451 488 506 399 521 301 c 0
 526 270 531 264 560 264 c 0
 609 264 l 0
 626 264 628 264 628 248 c 0
 628 235 627 232 611 232 c 0
 558 232 l 0
 536 232 525 227 522 202 c 0
 509 104 456 13 371 -15 c 0
 340 -25 331 -33 331 -59 c 0
 331 -107 l 0
 331 -125 329 -126 314 -126 c 0
 301 -126 298 -125 298 -109 c 0
 298 -56 l 0
 298 -29 293 -25 264 -17 c 0
 176 8 122 97 107 195 c 0
 102 226 97 232 68 232 c 0
 19 232 l 0
 2 232 0 233 0 248 c 0
372 32 m 0
 410 60 427 120 432 198 c 0
 432 204 l 0
 432 230 418 232 396 232 c 0
 370 232 l 0
 336 232 331 222 331 200 c 0
 331 50 l 0
 331 32 337 22 348 22 c 0
 354 22 362 25 372 32 c 0
298 52 m 0
 298 198 l 0
 298 223 293 232 265 232 c 0
 226 232 l 0
 209 232 196 228 196 202 c 0
 196 196 l 0
 201 114 219 51 263 26 c 0
 271 21 277 19 282 19 c 0
 294 19 298 31 298 52 c 0
256 464 m 0
 218 436 201 377 196 299 c 0
 196 293 l 0
 196 267 210 264 232 264 c 0
 258 264 l 0
 292 264 297 274 297 296 c 0
 297 446 l 0
 297 464 292 475 281 475 c 0
 275 475 266 471 256 464 c 0
330 444 m 0
 330 298 l 0
 330 273 335 264 363 264 c 0
 402 264 l 0
 419 264 432 268 432 294 c 0
 432 300 l 0
 427 382 409 445 365 470 c 0
 357 475 351 477 346 477 c 0
 334 477 330 465 330 444 c 0
EndSplineSet
Validated: 1
EndChar

StartChar: S
Encoding: 83 83 43
Width: 628
Flags: W
HStem: 232 32<0.00151443 101.86 333.059 430.053 526.14 627.998>
VStem: 298 33<-125.999 -24.9287 520.253 621.999>
LayerCount: 2
Fore
SplineSet
0 248 m 0
 0 262 1 264 17 264 c 0
 70 264 l 0
 92 264 103 269 106 294 c 0
 119 392 172 483 257 511 c 0
 288 521 297 524 297 555 c 0
 297 603 l 0
 297 621 299 622 314 622 c 0
 327 622 330 621 330 605 c 0
 330 552 l 0
 330 525 334 521 363 513 c 0
 451 488 506 399 521 301 c 0
 526 270 531 264 560 264 c 0
 609 264 l 0
 626 264 628 264 628 248 c 0
 628 235 627 232 611 232 c 0
 558 232 l 0
 536 232 525 227 522 202 c 0
 509 104 456 13 371 -15 c 0
 340 -25 331 -33 331 -59 c 0
 331 -107 l 0
 331 -125 329 -126 314 -126 c 0
 301 -126 298 -125 298 -109 c 0
 298 -56 l 0
 298 -29 293 -25 264 -17 c 0
 176 8 122 97 107 195 c 0
 102 226 97 232 68 232 c 0
 19 232 l 0
 2 232 0 233 0 248 c 0
372 32 m 0
 410 60 427 120 432 198 c 0
 432 204 l 0
 432 230 418 232 396 232 c 0
 370 232 l 0
 336 232 331 222 331 200 c 0
 331 50 l 0
 331 32 337 22 348 22 c 0
 354 22 362 25 372 32 c 0
330 444 m 0
 330 298 l 0
 330 273 335 264 363 264 c 0
 402 264 l 0
 419 264 432 268 432 294 c 0
 432 300 l 0
 427 382 409 445 365 470 c 0
 357 475 351 477 346 477 c 0
 334 477 330 465 330 444 c 0
EndSplineSet
Validated: 1
EndChar

StartChar: T
Encoding: 84 84 44
Width: 628
Flags: W
HStem: 232 32<0.00151443 101.86 197.947 294.941 526.14 627.998>
VStem: 297 33<-125.999 -25.4159 519.819 621.999>
LayerCount: 2
Fore
SplineSet
0 248 m 0
 0 262 1 264 17 264 c 0
 70 264 l 0
 92 264 103 269 106 294 c 0
 119 392 172 483 257 511 c 0
 288 521 297 524 297 555 c 0
 297 603 l 0
 297 621 299 622 314 622 c 0
 327 622 330 621 330 605 c 0
 330 552 l 0
 330 525 334 521 363 513 c 0
 451 488 506 399 521 301 c 0
 526 270 531 264 560 264 c 0
 609 264 l 0
 626 264 628 264 628 248 c 0
 628 235 627 232 611 232 c 0
 558 232 l 0
 536 232 525 227 522 202 c 0
 509 104 456 13 371 -15 c 0
 340 -25 331 -33 331 -59 c 0
 331 -107 l 0
 331 -125 329 -126 314 -126 c 0
 301 -126 298 -125 298 -109 c 0
 298 -56 l 0
 298 -29 293 -25 264 -17 c 0
 176 8 122 97 107 195 c 0
 102 226 97 232 68 232 c 0
 19 232 l 0
 2 232 0 233 0 248 c 0
298 52 m 0
 298 198 l 0
 298 223 293 232 265 232 c 0
 226 232 l 0
 209 232 196 228 196 202 c 0
 196 196 l 0
 201 114 219 51 263 26 c 0
 271 21 277 19 282 19 c 0
 294 19 298 31 298 52 c 0
256 464 m 0
 218 436 201 377 196 299 c 0
 196 293 l 0
 196 267 210 264 232 264 c 0
 258 264 l 0
 292 264 297 274 297 296 c 0
 297 446 l 0
 297 464 292 475 281 475 c 0
 275 475 266 471 256 464 c 0
EndSplineSet
Validated: 1
EndChar

StartChar: U
Encoding: 85 85 45
Width: 628
Flags: W
HStem: 232 32<0.00151443 101.86 526.14 627.998>
VStem: 298 33<-125.999 -24.9287 520.253 621.999>
LayerCount: 2
Fore
SplineSet
0 248 m 0
 0 262 1 264 17 264 c 0
 70 264 l 0
 92 264 103 269 106 294 c 0
 119 392 172 483 257 511 c 0
 288 521 297 524 297 555 c 0
 297 603 l 0
 297 621 299 622 314 622 c 0
 327 622 330 621 330 605 c 0
 330 552 l 0
 330 525 334 521 363 513 c 0
 451 488 506 399 521 301 c 0
 526 270 531 264 560 264 c 0
 609 264 l 0
 626 264 628 264 628 248 c 0
 628 235 627 232 611 232 c 0
 558 232 l 0
 536 232 525 227 522 202 c 0
 509 104 456 13 371 -15 c 0
 340 -25 331 -33 331 -59 c 0
 331 -107 l 0
 331 -125 329 -126 314 -126 c 0
 301 -126 298 -125 298 -109 c 0
 298 -56 l 0
 298 -29 293 -25 264 -17 c 0
 176 8 122 97 107 195 c 0
 102 226 97 232 68 232 c 0
 19 232 l 0
 2 232 0 233 0 248 c 0
372 32 m 0
 410 60 427 120 432 198 c 0
 432 204 l 0
 432 230 418 232 396 232 c 0
 370 232 l 0
 336 232 331 222 331 200 c 0
 331 50 l 0
 331 32 337 22 348 22 c 0
 354 22 362 25 372 32 c 0
256 464 m 0
 218 436 201 377 196 299 c 0
 196 293 l 0
 196 267 210 264 232 264 c 0
 258 264 l 0
 292 264 297 274 297 296 c 0
 297 446 l 0
 297 464 292 475 281 475 c 0
 275 475 266 471 256 464 c 0
EndSplineSet
Validated: 1
EndChar

StartChar: V
Encoding: 86 86 46
Width: 633
Flags: W
HStem: 218 64<65.0051 296.856> 435 65<362.004 633>
VStem: 0 65<0 218 282 500> 297 65<0 218 282 435>
LayerCount: 2
Fore
SplineSet
0 500 m 0
 65 500 l 0
 65 300 l 0
 65 294 70 282 82 282 c 0
 276 282 l 0
 286 282 297 294 297 306 c 0
 297 500 l 0
 633 500 l 0
 633 435 l 0
 378 435 l 0
 368 435 362 428 362 421 c 0
 362 0 l 0
 297 0 l 0
 297 202 l 0
 297 212 289 218 278 218 c 0
 82 218 l 0
 72 218 65 208 65 202 c 0
 65 0 l 0
 0 0 l 0
 0 500 l 0
EndSplineSet
Validated: 1
EndChar

StartChar: W
Encoding: 87 87 47
Width: 648
Flags: W
HStem: 435 65<377.004 648>
VStem: 0 65<0 350.003> 312 65<154.313 435>
LayerCount: 2
Fore
SplineSet
312 500 m 0
 648 500 l 0
 648 435 l 0
 393 435 l 0
 383 435 377 428 377 421 c 0
 377 0 l 0
 312 0 l 0
 85 350 l 0
 79 359 65 352 65 342 c 0
 65 0 l 0
 0 0 l 0
 0 500 l 0
 65 500 l 0
 288 157 l 0
 296 144 312 151 312 164 c 0
 312 500 l 0
EndSplineSet
Validated: 1
EndChar

StartChar: X
Encoding: 88 88 48
Width: 336
Flags: W
HStem: 435 65<0 270.996>
VStem: 271 65<0 434.995>
LayerCount: 2
Fore
SplineSet
336 500 m 0
 336 0 l 0
 271 0 l 0
 271 421 l 0
 271 428 265 435 255 435 c 0
 0 435 l 0
 0 500 l 0
 336 500 l 0
EndSplineSet
Validated: 1
EndChar

StartChar: Y
Encoding: 89 89 49
Width: 331
Flags: W
HStem: 435 65<65.0044 336>
VStem: 0 65<0 435>
LayerCount: 2
Fore
SplineSet
0 500 m 0
 336 500 l 0
 336 435 l 0
 81 435 l 0
 71 435 65 428 65 421 c 0
 65 0 l 0
 0 0 l 0
 0 500 l 0
EndSplineSet
Validated: 1
EndChar

StartChar: b
Encoding: 98 98 50
Width: 220
Flags: W
HStem: 111 34<63.7497 135.5> 425 20G<0 52>
VStem: 0 52<137.465 445> 0 30<-108.199 102.43> 122 73<-27.6971 102.111>
LayerCount: 2
Fore
SplineSet
0 445 m 1xe8
 52 445 l 1
 52 156 l 2xe8
 52 144 66 135 77 138 c 0
 88 142 101 145 114 145 c 0
 157 145 195 111 195 54 c 0
 195 -46 113 -99 63 -136 c 2
 10 -175 l 2
 3 -180 -0 -178 0 -169 c 2xd8
 0 445 l 1xe8
30 93 m 1xd8
 30 -99 l 2
 30 -107 45.5477131056 -113.037897181 53.779296875 -107 c 0
 102.692382813 -71.1220703125 122 -19.8973139708 122 39 c 0
 122 91 100 111 75 111 c 0
 63 111 44 104 30 93 c 1xd8
EndSplineSet
Validated: 1
EndChar

StartChar: n
Encoding: 110 110 51
Width: 155
VWidth: 0
Flags: W
HStem: 320 20G<0 38 87.1429 155>
VStem: 0 38<174.945 340> 0 30<-95.2748 75> 117 38<-340 -175.531> 125 30<-75 96.1333>
LayerCount: 2
Fore
SplineSet
0 340 m 1xc0
 38 340 l 1
 38 194 l 2
 38 179 53 174 60 175 c 2
 155 203 l 1
 155 141 l 1
 155 111 l 1
 155 -66 l 1
 155 -158 l 1xc8
 155 -340 l 1
 117 -340 l 1
 117 -192 l 2
 117 -178 104 -173 93 -176 c 2
 0 -203 l 1
 0 -141 l 1
 0 -111 l 1
 0 66 l 1
 0 158 l 1xb0
 0 340 l 1xc0
30 75 m 1xa8
 30 -76 l 2
 30 -88 42 -99 54 -95 c 2
 125 -75 l 1
 125 82 l 2
 125 92 115 99 104 96 c 2
 30 75 l 1xa8
EndSplineSet
Validated: 1
EndChar

StartChar: sterling
Encoding: 163 163 52
Width: 117
Flags: W
HStem: 261 20G<0 28 53.3636 117>
VStem: 0 28<-70.1333 60.0625 127.623 281> 89 28<-281 -127.623 -60.0625 70.1333>
LayerCount: 2
Fore
SplineSet
117 -281 m 0
 89 -281 l 0
 89 -140 l 0
 89 -131 78 -126 70 -128 c 0
 0 -150 l 0
 0 281 l 0
 28 281 l 0
 28 140 l 0
 28 131 39 126 47 128 c 0
 117 150 l 0
 117 -281 l 0
25 -59 m 0
 25 -66 34 -73 43 -70 c 0
 82 -58 l 0
 88 -56 92 -53 92 -46 c 0
 92 59 l 0
 92 66 83 73 74 70 c 0
 35 58 l 0
 29 56 25 53 25 46 c 0
 25 -59 l 0
EndSplineSet
Validated: 1
EndChar

StartChar: currency
Encoding: 164 164 53
Width: 154
Flags: W
HStem: 320 20G<0 43 86 109>
VStem: 0 43<107.008 340> 0 26<-61.1817 72.66>
LayerCount: 2
Fore
SplineSet
43 -61 m 0xc0
 89 -26 97 8 92 49 c 0
 87 85 56 90 33 68 c 0
 28 64 26 58 26 52 c 0
 26 -53 l 0xa0
 26 -61 37 -65 43 -61 c 0xc0
10 -123 m 0
 1 -131 0 -129 0 -116 c 0xa0
 0 340 l 0
 43 340 l 0
 43 124 l 0
 43 118 52 107 58 107 c 0
 66 107 78 113 94 113 c 0
 124 113 154 91 154 47 c 0
 154 -17 92 -51 43 -94 c 0xc0
 10 -123 l 0
EndSplineSet
Validated: 33
EndChar

StartChar: yen
Encoding: 165 165 54
Width: 188
Flags: W
HStem: 236 20G<42 70 118 146 163 188>
VStem: 42 28<-274 -151.722 -73.0886 52.0872 129.912 256> 118 28<-256 -129.912 -52.0872 73.0886 151.722 274>
LayerCount: 2
Fore
SplineSet
69 -62 m 0
 69 -70 79 -75 87 -73 c 0
 108 -67 l 0
 114 -65 119 -59 119 -51 c 0
 119 62 l 0
 119 70 109 75 101 73 c 0
 80 67 l 0
 74 65 69 59 69 51 c 0
 69 -62 l 0
43 39 m 0
 43 47 35 54 28 52 c 0
 0 43 l 0
 0 104 l 0
 24 111 l 0
 37 115 42 123 42 135 c 0
 42 256 l 0
 70 256 l 0
 70 142 l 0
 70 134 79 128 87 130 c 0
 105 135 l 0
 115 138 118 144 118 152 c 0
 118 274 l 0
 146 274 l 0
 146 166 l 0
 146 158 156 150 163 152 c 0
 188 159 l 0
 188 98 l 0
 157 89 l 0
 150 87 145 83 145 75 c 0
 145 -39 l 0
 145 -47 153 -54 160 -52 c 0
 188 -43 l 0
 188 -104 l 0
 164 -111 l 0
 151 -115 146 -123 146 -135 c 0
 146 -256 l 0
 118 -256 l 0
 118 -142 l 0
 118 -134 109 -128 101 -130 c 0
 83 -135 l 0
 73 -138 70 -144 70 -152 c 0
 70 -274 l 0
 42 -274 l 0
 42 -166 l 0
 42 -158 32 -150 25 -152 c 0
 0 -159 l 0
 0 -98 l 0
 31 -89 l 0
 38 -87 43 -83 43 -75 c 0
 43 39 l 0
EndSplineSet
Validated: 1
EndChar

StartChar: brokenbar
Encoding: 166 166 55
Width: 293
Flags: W
HStem: 320 20G<0 43 86 98 139 182 225 248>
VStem: 0 43<107.008 340> 0 26<-61.1817 72.66> 139 43<108.278 340> 139 26<-61.1817 -26.7246>
LayerCount: 2
Fore
SplineSet
10 -123 m 0xc8
 1 -131 0 -129 0 -116 c 0xa0
 0 340 l 0
 43 340 l 0
 43 124 l 0
 43 118 52 107 58 107 c 0
 66 107 78 113 94 113 c 0
 102 113 110 111 118 108 c 0
 129 103 139 111 139 118 c 0
 139 340 l 0
 182 340 l 0
 182 124 l 0
 182 118 191 107 197 107 c 0
 205 107 217 113 233 113 c 0
 263 113 293 91 293 47 c 0
 293 -17 231 -51 182 -94 c 0xd0
 149 -123 l 0
 140 -131 139 -129 139 -116 c 0
 139 -31 l 0
 139 -23 127 -21 122 -27 c 0
 99 -50 69 -71 43 -94 c 0
 10 -123 l 0xc8
43 -61 m 0xc0
 89 -26 97 8 92 49 c 0
 87 85 56 90 33 68 c 0
 28 64 26 58 26 52 c 0
 26 -53 l 0xa0
 26 -61 37 -65 43 -61 c 0xc0
182 -61 m 0x90
 228 -26 236 8 231 49 c 0
 226 85 195 90 172 68 c 0
 167 64 165 58 165 52 c 0
 165 -53 l 0x88
 165 -61 176 -65 182 -61 c 0x90
EndSplineSet
Validated: 33
EndChar

StartChar: section
Encoding: 167 167 56
Width: 192
Flags: W
HStem: -96 71<7 69.5945 122.405 185> -89 64<121 185> -23 46<74.7085 117.292> 25 71<7 69.5945 122.405 185> 25 64<7 71 121 185>
VStem: 0 71<-89 -26.4055 26.4055 89> 7 64<-89 -25 25 89> 73 46<-21.2915 21.2915> 121 71<-89 -26.4055 26.4055 89> 121 64<25 89>
LayerCount: 2
Fore
SplineSet
119 0 m 0x3140
 119 -20 143 -25 185 -25 c 0xb140
 186 -55 190 -84 192 -96 c 0xb180
 180 -94 151 -90 121 -89 c 0
 121 -47 116 -23 96 -23 c 0
 76 -23 71 -47 71 -89 c 0x6580
 41 -90 12 -94 0 -96 c 0xa580
 2 -84 6 -55 7 -25 c 0
 49 -25 73 -20 73 0 c 0
 73 20 49 25 7 25 c 0xb3
 6 55 2 84 0 96 c 0xb5
 12 94 41 90 71 89 c 0
 71 47 76 23 96 23 c 0
 116 23 121 47 121 89 c 0x2d80
 151 90 180 94 192 96 c 0x3580
 190 84 186 55 185 25 c 0
 143 25 119 20 119 0 c 0x3140
EndSplineSet
Validated: 1
EndChar

StartChar: ordmasculine
Encoding: 186 186 57
Width: 381
Flags: W
HStem: 111 34<63.7497 123 249.75 321.5> 425 20G<0 52 186 238>
VStem: 0 52<137.465 445> 0 30<-108.191 102.43> 122 94<-40.308 101.93> 186 52<137.465 445> 186 30<-108.191 -45.7265> 308 73<-27.7012 102.111>
LayerCount: 2
Fore
SplineSet
30 93 m 1xd9
 30 -99 l 2
 30 -107 46 -113 54 -107 c 0
 103 -71 122 -20 122 39 c 0
 122 91 100 111 75 111 c 0
 63 111 44 104 30 93 c 1xd9
0 445 m 1xe1
 52 445 l 1
 52 156 l 2
 52 144 66 135 77 138 c 0
 88 142 101 145 114 145 c 0
 132 145 148 139 162 129 c 0
 170 122 186 122 186 134 c 2xe3
 186 445 l 1
 238 445 l 1
 238 156 l 2xc5
 238 144 252 135 263 138 c 0
 274 142 287 145 300 145 c 0
 343 145 381 111 381 54 c 0
 381 -46 299 -99 249 -136 c 2
 196 -175 l 2
 189 -180 186 -178 186 -169 c 2
 186 -54 l 2
 186 -40 168 -39 160 -50 c 0
 131 -88 92 -115 63 -136 c 2
 10 -175 l 2
 3 -180 -0 -178 0 -169 c 2xd3
 0 445 l 1xe1
216 93 m 1xc9
 216 -99 l 2xc3
 216 -107 232 -113 240 -107 c 0
 289 -71 308 -20 308 39 c 0
 308 91 286 111 261 111 c 0
 249 111 230 104 216 93 c 1xc9
EndSplineSet
Validated: 1
EndChar

StartChar: Udieresis
Encoding: 220 220 58
Width: 268
VWidth: 0
Flags: W
HStem: -134 96<12.5526 94.2606 173.739 255.447> -30 60<104.3 163.7> 38 96<12.5526 94.2606 173.739 255.447>
VStem: 0 96<-121.447 -39.7394 39.7394 121.447> 104 60<-29.6999 29.6999> 172 96<-121.447 -39.7394 39.7394 121.447>
CounterMasks: 1 fc
LayerCount: 2
Fore
SplineSet
164 0 m 0
 164 -30 193 -38 255 -38 c 1
 258 -75 265 -119 268 -134 c 1
 253 -131 209 -124 172 -121 c 1
 172 -59 164 -30 134 -30 c 0
 104 -30 96 -59 96 -121 c 1
 59 -124 15 -131 0 -134 c 1
 3 -119 10 -75 13 -38 c 1
 75 -38 104 -30 104 0 c 0
 104 30 75 38 13 38 c 1
 10 75 3 119 0 134 c 1
 15 131 59 124 96 121 c 1
 96 59 104 30 134 30 c 0
 164 30 172 59 172 121 c 1
 209 124 253 131 268 134 c 1
 265 119 258 75 255 38 c 1
 193 38 164 30 164 0 c 0
EndSplineSet
Validated: 1
EndChar

StartChar: e
Encoding: 101 101 59
Width: 540
Flags: W
HStem: -6 21G<134.5 187.5> 24 78<372.393 442.633>
VStem: 255 27<183.278 460.231 591.439 675.985> 368 79<28.1809 97.6332> 419 23<162.957 213.138> 431 29<184.401 353.273>
LayerCount: 2
Fore
SplineSet
368 63 m 0xf0
 368 84 386 102 408 102 c 0
 429 102 447 84 447 63 c 0
 447 41 429 24 408 24 c 0
 386 24 368 41 368 63 c 0xf0
80 63 m 0
 80 126 142 184 209 184 c 0
 249 184 255 175 255 214 c 0
 255 657 l 0
 255 677 262 676 268 676 c 0
 286 676 279 655 286 619 c 0
 305 520 460 434 460 288 c 0xe4
 460 238 453 204 442 173 c 0
 434 151 413 161 419 184 c 0xe8
 428 220 431 242 431 281 c 0xe4
 431 351 392 420 337 448 c 0
 318 457 282 474 282 442 c 0
 282 116 l 0
 282 52 221 -6 154 -6 c 0
 115 -6 80 21 80 63 c 0
EndSplineSet
Validated: 33
EndChar

StartChar: p
Encoding: 112 112 60
Width: 270
Flags: W
HStem: -4 19<90.3477 138.391> 126 22<98.2487 155.497> 296 19<105.509 160.951>
VStem: 31 54<152.723 279.107> 37 72<17.145 79.0124> 185 55<68.998 158 166.169 265.759>
LayerCount: 2
Fore
SplineSet
90 17 m 1xec
 95 15 101 15 106 15 c 0
 161 15 185 79 185 150 c 2
 185 158 l 1
 174 145 149 126 121 126 c 0
 71 126 31 156 31 214 c 0xf4
 31 272 72 315 133 315 c 0
 204 315 240 259 240 169 c 0
 240 66 189 -4 106 -4 c 0
 73 -4 37 15 37 47 c 0
 37 67 52 82 72 82 c 0
 92 82 109 67 109 47 c 0
 109 29 97 20 90 17 c 1xec
127 148 m 0
 155 148 183 179 183 219 c 2
 183 227 l 2
 183 265 167 296 134 296 c 0
 99 296 85 272 85 213 c 0
 85 168 95 148 127 148 c 0
EndSplineSet
Validated: 1
EndChar

StartChar: Z
Encoding: 90 90 61
Width: 343
Flags: W
HStem: -4 22<143.377 200.532> 357 22<145.887 198.035>
VStem: 35 76<84.5311 291.174> 232 76<84.5311 291.174>
LayerCount: 2
Fore
SplineSet
35 188 m 0
 35 294 93 379 172 379 c 0
 251 379 308 294 308 188 c 0
 308 82 251 -4 172 -4 c 0
 93 -4 35 82 35 188 c 0
172 357 m 0
 123 357 111 283 111 201 c 2
 111 171 l 2
 111 89 123 18 172 18 c 0
 221 18 232 89 232 171 c 2
 232 201 l 2
 232 283 221 357 172 357 c 0
EndSplineSet
Validated: 1
EndChar

StartChar: bracketleft
Encoding: 91 91 62
Width: 307
Flags: W
HStem: 0 24<74 128.459 216.924 272> 199 21G<35 71.1333> 351 20G<128.282 147.25 202.5 208>
VStem: 138 70<27.5767 270>
LayerCount: 2
Fore
SplineSet
208 62 m 2
 208 36 225 24 249 24 c 2
 272 24 l 1
 272 0 l 1
 74 0 l 1
 74 24 l 1
 97 24 l 2
 121 24 138 37 138 63 c 2
 138 270 l 2
 138 282 128 282 121 274 c 2
 53 199 l 1
 35 215 l 1
 142 371 l 1
 152.5 366.5 163.5 364.25 174.625 364.25 c 0
 185.75 364.25 197 366.5 208 371 c 1
 208 62 l 2
EndSplineSet
Validated: 1
EndChar

StartChar: backslash
Encoding: 92 92 63
Width: 331
Flags: W
HStem: -4 64<159.92 262.413> 38 52<82.3285 156.71> 95 20G<270.5 296> 224 85<77.0952 123.827> 355 24<109.776 192.667>
VStem: 40 89<231.488 303.861> 224 72<218.564 334.226> 272 24<77.5111 115>
LayerCount: 2
Fore
SplineSet
87 309 m 0x7e
 112 309 129 290 129 266 c 0
 129 241 112 224 87 224 c 0
 63 224 40 242 40 276 c 0
 40 326 90 379 171 379 c 0
 239 379 296 336 296 274 c 0
 296 212 243 186 196 158 c 0
 161 138 127 119 100 87 c 1
 107 89 115 90 123 90 c 0x7e
 161 90 191 60 227 60 c 0
 250 60 269 75 272 115 c 1
 296 115 l 1
 296 76 289 -4 217 -4 c 0xbd
 164 -4 143 38 103 38 c 0
 80 38 65 24 57 0 c 1
 35 0 l 1
 39 57 90 122 133 154 c 0
 203 205 224 241 224 281 c 0
 224 330 189 355 152 355 c 0
 119 355 89 336 77 308 c 1
 79 309 83 309 87 309 c 0x7e
EndSplineSet
Validated: 1
EndChar

StartChar: bracketright
Encoding: 93 93 64
Width: 336
Flags: W
HStem: -4 24<97.2157 193.045> 50 82<71 115.393> 184 22<116 178.55> 250 75<90 127.255> 356 23<114.293 199.216>
VStem: 35 86<54.4238 125.641> 54 77<254.155 322.819> 223 65<236.404 341.312> 226 75<43.5889 154.838>
LayerCount: 2
Fore
SplineSet
199 197 m 1xfb
 259 183 301 151 301 100 c 0
 301 47 250 -4 162 -4 c 0
 94 -4 35 32 35 80 c 0
 35 114 56 132 79 132 c 0
 102 132 121 112 121 90 c 0
 121 68 106 44 71 50 c 1
 78 38 112 20 148 20 c 0
 201 20 226 54 226 105 c 0xfc80
 226 152 200 184 116 184 c 1
 116 206 l 1
 196 206 223 241 223 286 c 0
 223 329 206 356 158 356 c 0
 134 356 105 345 90 325 c 1
 115 329 131 309 131 288 c 0
 131 267 114 250 93 250 c 0
 72 250 54 266 54 290 c 0
 54 340 108 379 167 379 c 0
 230 379 288 343 288 289 c 0
 288 244 249 213 199 197 c 1xfb
EndSplineSet
Validated: 33
EndChar

StartChar: asciicircum
Encoding: 94 94 65
Width: 359
Flags: W
HStem: 0 24<129 173.738 263.262 308> 106 25<68 183 254 324> 355 20G<131 254>
VStem: 183 71<27.2333 106 131 204>
LayerCount: 2
Fore
SplineSet
254 106 m 1
 254 61 l 2
 254 38 271 24 292 24 c 2
 308 24 l 1
 308 0 l 1
 129 0 l 1
 129 24 l 1
 145 24 l 2
 166 24 183 38 183 62 c 2
 183 106 l 1
 45 106 l 1
 35 106 l 1
 35 128 l 1
 95 216 122 287 140 375 c 1
 172 364 211.5 363.5 249 375 c 1
 207 282 134 234 68 131 c 1
 183 131 l 1
 183 204 l 1
 254 282 l 1
 254 131 l 1
 324 131 l 1
 324 106 l 1
 254 106 l 1
EndSplineSet
Validated: 33
EndChar

StartChar: underscore
Encoding: 95 95 66
Width: 321
Flags: W
HStem: -4 23<90.063 177.704> 37 84<80 116.69> 163 21G<60 74.5> 202 25<99.5781 184.512> 302.098 69.9018<84 170.229 173.352 191.884> 302.098 57.7981<84.7041 226.548>
VStem: 35 87<42.2624 114.793> 60 24<208 307> 211 75<47.7787 182.268>
LayerCount: 2
Fore
SplineSet
80 37 m 1xfa80
 88 31 103 19 138 19 c 0
 179 19 211 46 211 117 c 0
 211 173 187 202 147 202 c 0
 118 202 89 187 60 163 c 1
 60 372 l 1xf980
 105.43 363.368 141.366 359.896 171.653 359.896 c 0xf580
 208.032 359.896 236.261 364.906 263 372 c 1
 248.543 320.259 195.296 302.098 138.06 302.098 c 0
 120.074 302.098 101.694 303.892 84 307 c 1
 84 208 l 1xf980
 104 219 127 227 164 227 c 0
 226 227 286 190 286 116 c 0
 286 42 224 -4 151 -4 c 0
 80 -4 35 29 35 77 c 0
 35 102 55 121 80 121 c 0
 105 121 122 102 122 77 c 0
 122 52 102 37 80 37 c 1xfa80
EndSplineSet
Validated: 1
EndChar

StartChar: grave
Encoding: 96 96 67
Width: 329
Flags: W
HStem: -4 22<136.576 200.728> 202 25<143.602 209.679> 357 22<154.43 206.22>
VStem: 35 68<69.0764 173.538 182 285.418> 188 86<279.167 351.807> 227 67<47.005 192.075>
LayerCount: 2
Fore
SplineSet
188 316 m 0xf8
 188 337 199 348 207 352 c 1
 202 355 196 357 185 357 c 0
 131 357 103 278 103 206 c 2
 103 182 l 1
 116 198 147 227 189 227 c 0
 251 227 294 193 294 118 c 0xf4
 294 44 239 -4 170 -4 c 0
 78 -4 35 75 35 181 c 0
 35 286 91 379 185 379 c 0
 236 379 274 349 274 316 c 0
 274 292 254 273 230 273 c 0
 206 273 188 292 188 316 c 0xf8
178 202 m 0
 152 202 105 174 105 116 c 2
 105 107 l 2
 105 68 121 18 168 18 c 0
 210 18 227 54 227 117 c 0
 227 180 213 202 178 202 c 0
EndSplineSet
Validated: 1
EndChar

StartChar: a
Encoding: 97 97 68
Width: 301
Flags: W
HStem: -4 21G<64 153> -4 21G<64 153> 248 21G<15 38.5> 283 61<146.494 230.717> 308 69<52.0077 164.596> 308 46<47.6008 93.7187>
VStem: 15 22<248 286.524 354.005 379> 245 21<362.749 379>
LayerCount: 2
Fore
SplineSet
231 299 m 1xb3
 220 288 206 283 186 283 c 0xb3
 152 283 125 308 87 308 c 0x2b
 53 308 40 282 37 248 c 1
 15 248 l 1
 15 379 l 1
 37 379 l 1
 37 361 41 354 47 354 c 0x27
 58 354 77 377 105 377 c 0x2b
 149 377 163 344 203 344 c 0
 229 344 241 357 245 379 c 1
 266 379 l 1
 266 202 153 144 153 -4 c 1
 119 6 88 4 64 -4 c 1
 82 123 192 189 231 299 c 1xb3
EndSplineSet
Validated: 33
EndChar

StartChar: c
Encoding: 99 99 69
Width: 341
Flags: W
HStem: -4 23<120.61 217.516> 356 23<130.775 216.628>
VStem: 35 44<45.547 145.35> 50 58<271.687 334.078> 246 60<48.9118 121.97> 246 42<241.858 338.404>
LayerCount: 2
Fore
SplineSet
108 307 m 0xd4
 108 275 156 252 205 223 c 1
 232 240 246 263 246 290 c 0
 246 326 223 356 168 356 c 0
 133 356 108 332 108 307 c 0xd4
246 77 m 0xe8
 246 125 190 147 138 174 c 1
 103 157 79 131 79 96 c 0
 79 60 108 19 168 19 c 0
 226 19 246 51 246 77 c 0xe8
116 186 m 1
 80 207 50 234 50 278 c 0
 50 332 106 379 168 379 c 0
 232 379 288 345 288 294 c 0xd4
 288 258 263 230 227 210 c 1
 269 184 306 153 306 108 c 0
 306 45 240 -4 168 -4 c 0
 90 -4 35 43 35 91 c 0
 35 138 71 165 116 186 c 1
EndSplineSet
Validated: 1
EndChar

StartChar: d
Encoding: 100 100 70
Width: 328
Flags: W
HStem: -4 22<110.651 168.359> 80 20G<76 100> 148 26<118.942 191.331> 357 22<126.664 191.296>
VStem: 35 67<186.181 329.019> 44 88<21.1919 93.8333> 225 68<92.8952 183 197.625 310.244>
LayerCount: 2
Fore
SplineSet
110 21 m 1xf6
 116 19 122 18 128 18 c 0
 194 18 225 88 225 173 c 2
 225 183 l 1
 212 167 181 148 147 148 c 0
 87 148 35 181 35 255 c 0xfa
 35 329 86 379 160 379 c 0
 246 379 293 312 293 204 c 0
 293 80 228 -4 128 -4 c 0
 88 -4 44 18 44 57 c 0
 44 81 64 100 88 100 c 0
 112 100 132 81 132 57 c 0
 132 35 119 25 110 21 c 1xf6
156 174 m 0
 190 174 225 210 225 255 c 2
 225 265 l 2
 225 311 201 357 161 357 c 0
 119 357 102 328 102 257 c 0
 102 192 118 174 156 174 c 0
EndSplineSet
Validated: 1
EndChar

StartChar: f
Encoding: 102 102 71
Width: 281
Flags: W
HStem: -4 19<114.081 161.828> 296 19<114.081 161.828>
VStem: 24 63<62.105 250.102> 188 63<60.4265 250.102>
LayerCount: 2
Fore
SplineSet
24 156 m 0
 24 244 72 315 138 315 c 0
 204 315 251 244 251 156 c 0
 251 68 204 -4 138 -4 c 0
 72 -4 24 68 24 156 c 0
138 296 m 0
 97 296 87 235 87 167 c 2
 87 142 l 2
 87 74 97 15 138 15 c 0
 179 15 188 74 188 142 c 2
 188 167 l 2
 188 235 179 296 138 296 c 0
EndSplineSet
Validated: 1
EndChar

StartChar: g
Encoding: 103 103 72
Width: 256
Flags: W
HStem: 0 21<52 101.411 176.026 226> 182 21G<23 58.1765> 291 20G<102.304 168>
VStem: 110 58<23.2433 233.323>
LayerCount: 2
Fore
SplineSet
168 57 m 2
 168 28 185 21 205 21 c 2
 226 21 l 1
 226 0 l 1
 52 0 l 1
 52 21 l 1
 73 21 l 2
 93 21 110 30 110 58 c 2
 110 226 l 2
 110 240 98 240 91 233 c 2
 37 182 l 1
 23 196 l 1
 119 311 l 1
 168 311 l 1
 168 57 l 2
EndSplineSet
Validated: 1
EndChar

StartChar: h
Encoding: 104 104 73
Width: 276
Flags: W
HStem: -4 53<115.925 216.774> 27 39<67.4875 133.131> 187 69<63.0491 102.922> 295 20<91.544 160.689>
VStem: 33 72<190.888 253.069> 187 59<177.827 282.003> 224 21<65.948 94>
LayerCount: 2
Fore
SplineSet
71 256 m 0x7c
 92 256 105 242 105 222 c 0
 105 201 92 187 71 187 c 0
 51 187 33 203 33 230 c 0
 33 271 75 315 142 315 c 0
 198 315 246 283 246 232 c 0
 246 178 201 156 162 133 c 0
 132 116 103 94 81 65 c 1
 87 66 93 66 99 66 c 0x7c
 131 66 153 49 183 49 c 0
 202 49 222 66 224 94 c 1
 245 94 l 1
 247 59 241 -4 177 -4 c 0xba
 133 -4 118 27 85 27 c 0
 69 27 56 17 50 0 c 1
 31 0 l 1
 34 47 81 107 113 131 c 0
 172 175 187 201 187 234 c 0
 187 275 157 295 126 295 c 0
 99 295 73 279 63 256 c 1
 64 257 68 256 71 256 c 0x7c
EndSplineSet
Validated: 33
EndChar

StartChar: i
Encoding: 105 105 74
Width: 278
Flags: W
HStem: -4 21<77.7924 161.001> 40 66<60 96.2483> 151 19<91 145.381> 211 59<75 105.761> 295 20<93.9112 165.309>
VStem: 30 69<40.7384 102.701> 46 61<212.443 268.637> 185 54<192.163 286.629> 188 60<31.1536 131.027>
LayerCount: 2
Fore
SplineSet
164 162 m 1xfb
 213 150 248 124 248 81 c 0
 248 37 206 -4 130 -4 c 0
 79 -4 30 24 30 63 c 0
 30 90 47 106 66 106 c 0
 85 106 99 89 99 71 c 0
 99 53 86 36 60 40 c 1
 66 30 91 17 121 17 c 0
 169 17 188 45 188 87 c 0xfc80
 188 126 161 151 91 151 c 1
 91 170 l 1
 160 170 185 200 185 237 c 0
 185 273 168 295 131 295 c 0
 111 295 86 286 75 270 c 1
 95 273 107 257 107 241 c 0
 107 225 93 211 77 211 c 0
 61 211 46 223 46 242 c 0
 46 282 90 315 139 315 c 0
 191 315 239 285 239 240 c 0
 239 203 207 176 164 162 c 1xfb
EndSplineSet
Validated: 33
EndChar

StartChar: j
Encoding: 106 106 75
Width: 299
Flags: W
HStem: 0 21<107 142.443 220.625 256> 93 22<56 152 211 269> 291 20G<107.5 211>
VStem: 115 89<274.048 311> 152 59<23.1037 93 115 168>
LayerCount: 2
Fore
SplineSet
211 93 m 1xe8
 211 57 l 2
 211 36 226 21 243 21 c 2
 256 21 l 1
 256 0 l 1
 107 0 l 1
 107 21 l 1
 119 21 l 2
 136 21 152 34 152 57 c 2
 152 93 l 1xe8
 27 93 l 1
 27 112 l 1
 69 173 100 238 115 311 c 1
 204 311 l 1xf0
 171 239 111 200 56 115 c 1
 152 115 l 1
 152 168 l 1
 211 233 l 1
 211 115 l 1
 269 115 l 1
 269 93 l 1
 211 93 l 1xe8
EndSplineSet
Validated: 1
EndChar

StartChar: k
Encoding: 107 107 76
Width: 264
Flags: W
HStem: -4 20<73.2092 145.165> 29 65<69 97.8811> 130 21G<50 69> 164 22<85.8548 151.651> 258 53<72 170.58>
VStem: 32 68<30.2378 91.6568> 50 22<169 258> 172 62<34.7374 154.657>
LayerCount: 2
Fore
SplineSet
69 29 m 1xfd
 75 24 83 16 112 16 c 0
 144 16 172 37 172 96 c 0
 172 142 151 164 122 164 c 0
 100 164 76 152 62 130 c 1
 50 135 l 1
 50 311 l 1
 216 311 l 1
 201 259 132 248 72 258 c 1
 72 169 l 1xfb
 89 178 105 186 136 186 c 0
 184 186 234 157 234 96 c 0
 234 35 184 -4 123 -4 c 0
 68 -4 32 21 32 59 c 0
 32 79 47 94 67 94 c 0
 87 94 100 79 100 59 c 0
 100 39 84 29 69 29 c 1xfd
EndSplineSet
Validated: 33
EndChar

StartChar: l
Encoding: 108 108 77
Width: 271
Flags: W
HStem: -4 19<115.227 165.645> 164 21<118.791 173.056> 295 20<129.344 170.885>
VStem: 31 56<48.0199 144.773 150 243.721> 156 70<230.343 290.856> 187 54<32.6275 160.078>
LayerCount: 2
Fore
SplineSet
156 263 m 0xf8
 156 280 164 288 171 291 c 1
 167 293 163 295 154 295 c 0
 111 295 87 228 87 168 c 2
 87 150 l 1
 98 163 125 185 157 185 c 0
 205 185 241 158 241 98 c 0xf4
 241 37 197 -4 140 -4 c 0
 64 -4 31 62 31 150 c 0
 31 237 78 315 154 315 c 0
 196 315 226 289 226 263 c 0
 226 243 211 228 191 228 c 0
 171 228 156 243 156 263 c 0xf8
148 164 m 0
 126 164 90 142 90 94 c 2
 90 87 l 2
 90 60 103 15 139 15 c 0
 174 15 187 47 187 97 c 0
 187 142 177 164 148 164 c 0
EndSplineSet
Validated: 1
EndChar

StartChar: m
Encoding: 109 109 78
Width: 260
Flags: W
HStem: 204 21G<14 34> 244 48<109.627 187.637> 258 57<40.4683 154.051>
VStem: 14 20<204 242.098 298.399 315> 53 73<0 53.7781>
LayerCount: 2
Fore
SplineSet
188 252 m 1xb8
 180 246 169 244 155 244 c 0xd8
 129 244 107 258 77 258 c 0
 48 258 34 236 34 204 c 1
 14 204 l 1
 14 315 l 1
 34 315 l 1
 36 279 56 300 72 308 c 0
 80 313 89 315 98 315 c 0xb8
 130 315 135 292 166 292 c 0xd8
 185 292 196 300 201 315 c 1
 220 315 l 1
 220 196 130 94 126 0 c 1
 53 0 l 1
 73 87 157 167 188 252 c 1xb8
EndSplineSet
Validated: 33
EndChar

StartChar: o
Encoding: 111 111 79
Width: 283
Flags: W
HStem: -4 20<99.8989 178.018> 295 21<108.531 181.839>
VStem: 30 38<36.5624 123.247> 43 49<220.765 282.934> 203 50<34.9386 106.881> 203 36<199.171 282.324>
LayerCount: 2
Fore
SplineSet
92 256 m 0xd4
 92 228 130 208 168 185 c 1
 191 200 203 219 203 242 c 0
 203 272 183 295 146 295 c 0
 117 295 92 281 92 256 c 0xd4
203 65 m 0xe8
 203 104 159 123 117 145 c 1
 88 131 68 109 68 80 c 0
 68 50 92 16 139 16 c 0
 184 16 203 43 203 65 c 0xe8
99 156 m 1
 68 174 43 197 43 234 c 0
 43 279 93 316 144 316 c 0
 197 316 239 286 239 244 c 0xd4
 239 213 218 190 187 173 c 1
 222 152 253 126 253 89 c 0
 253 37 199 -4 139 -4 c 0
 74 -4 30 36 30 76 c 0
 30 116 60 139 99 156 c 1
EndSplineSet
Validated: 1
EndChar

StartChar: q
Encoding: 113 113 80
Width: 138
Flags: W
HStem: 197 20G<7.5 16.5 122 131>
VStem: 0 138<133.458 210.811>
LayerCount: 2
Fore
SplineSet
55 9 m 0
 28 110 l 0
 11 172 0 198 0 209 c 0
 0 216 5 217 10 217 c 0
 23 217 46 211 69 211 c 0
 93 211 115 217 129 217 c 0
 133 217 138 216 138 210 c 0
 138 200 128 175 112 115 c 0
 83 9 l 0
 79 -6 74 -14 69 -14 c 0
 64 -14 59 -6 55 9 c 0
EndSplineSet
Validated: 1
EndChar

StartChar: r
Encoding: 114 114 81
Width: 138
Flags: W
VStem: 0 138<-210.811 -133.458>
LayerCount: 2
Fore
SplineSet
83 -9 m 0
 110 -110 l 0
 127 -172 138 -198 138 -209 c 0
 138 -216 133 -217 128 -217 c 0
 115 -217 92 -211 69 -211 c 0
 45 -211 23 -217 9 -217 c 0
 5 -217 0 -216 0 -210 c 0
 0 -200 10 -175 26 -115 c 0
 55 -9 l 0
 59 6 64 14 69 14 c 0
 74 14 79 6 83 -9 c 0
EndSplineSet
Validated: 1
EndChar

StartChar: s
Encoding: 115 115 82
Width: 110
Flags: W
HStem: 219 20G<44 67>
VStem: 0 110<68.3438 226.743>
LayerCount: 2
Fore
SplineSet
55 239 m 0
 79 239 110 225 110 171 c 0
 110 149 99 97 70 7 c 0
 63 -14 60 -21 54 -21 c 0
 48 -21 44 -14 36 9 c 0
 6 98 0 146 0 171 c 0
 0 224 33 239 55 239 c 0
EndSplineSet
Validated: 1
EndChar

StartChar: t
Encoding: 116 116 83
Width: 114
Flags: W
VStem: 0 114<-233.474 -75.7288>
LayerCount: 2
Fore
SplineSet
58 -244 m 0
 37.5791 -244 0 -238.598 0 -176 c 0
 0 -154 13 -97 42 -7 c 0
 49 14 52 16 58 16 c 0
 64 16 68 14 76 -9 c 0
 106 -98 114 -151 114 -176 c 0
 114 -237.502 78.5 -244 58 -244 c 0
EndSplineSet
Validated: 1
EndChar

StartChar: u
Encoding: 117 117 84
Width: 368
VWidth: 0
Flags: W
HStem: -342 23<104.295 199.786> 73 22<178.399 284.344>
VStem: 0 58<-283.087 -163.621> 72 75<-28.3448 40.541> 247 79<-274.859 -178.425> 320 48<-54.8735 51.6084>
LayerCount: 2
Fore
SplineSet
229 95 m 0xf8
 315 95 368 49 368 0 c 0xf4
 368 -50 324 -85 262 -103 c 1
 300 -133 326 -169 326 -211 c 0
 326 -280 255 -342 153 -342 c 0
 59 -342 0 -282 0 -221 c 0
 0 -167 49 -125 126 -107 c 1
 91 -78 72 -49 72 -14 c 0
 72 45 141 95 229 95 c 0xf8
150 -123 m 1
 87 -139 58 -174 58 -231 c 0
 58 -277 95 -319 151 -319 c 0
 214 -319 247 -278 247 -234 c 0xf8
 247 -174 183 -144 150 -123 c 1
241 -87 m 1
 294 -72 320 -45 320 1 c 0xf4
 320 40 297 73 232 73 c 0
 183 73 147 53 147 18 c 0
 147 -18 191 -57 241 -87 c 1
EndSplineSet
Validated: 1
EndChar

StartChar: v
Encoding: 118 118 85
Width: 548
Flags: W
HStem: -313 30<309.151 389.535> -300 30<0.0204163 67.1284 141.634 196.993> -84 28<333.25 426.303> 29 59<378.751 516.272> 31 64<348.115 438.075>
VStem: 234 80<-281.506 -193.138> 446 65<-232.313 -96.0869>
LayerCount: 2
Fore
SplineSet
314 -229 m 0xae
 314 -241 308 -253 308 -262 c 0
 308 -276 318 -283 342 -283 c 0
 402 -283 446 -222 446 -156 c 0
 446 -110 430 -84 382 -84 c 0
 345 -84 322 -101 306 -116 c 0
 299 -122 292 -128 284 -124 c 0
 277 -121 277 -112 280 -100 c 0
 343 82 l 0
 346 91 353 95 362 95 c 0xae
 375 95 406 88 443 88 c 0
 500 88 522 92 537 92 c 0
 545 92 548 88 548 84 c 0
 548 80 546 75 542 70 c 0
 519 45 473 29 436 29 c 0x36
 412 29 394 31 378 31 c 0
 362 31 354 25 348 9 c 0
 332 -38 l 0
 329 -50 329 -61 344 -61 c 0
 362 -61 376 -56 406 -56 c 0
 461 -56 511 -89 511 -155 c 0
 511 -246 434 -313 350 -313 c 0
 291 -313 234 -288 234 -229 c 0
 234 -205 253 -188 276 -188 c 0
 301 -188 314 -205 314 -229 c 0xae
18 -270 m 0x66
 68 -268 73 -257 89 -206 c 0
 140 -49 l 0
 149 -21 136 -16 115 -32 c 0
 48 -81 l 0
 28 -96 18 -75 33 -60 c 0
 175 84 l 0
 184 93 189 96 197 96 c 0
 228 96 l 0
 235 96 238 93 238 86 c 0
 238 79 234 71 231 61 c 0
 144 -219 l 0
 137 -241 135 -265 161 -268 c 0
 191 -271 197 -271 197 -285 c 0
 197 -300 187 -300 172 -300 c 0
 11 -300 l 0
 3 -300 0 -295 0 -286 c 0
 0 -273 7 -271 18 -270 c 0x66
EndSplineSet
Validated: 33
EndChar

StartChar: threequarters
Encoding: 190 190 86
Width: 215
Flags: W
HStem: -3 15<86.8726 125.556> 200 15<87.3367 125.056>
VStem: 25 42<29.6148 182.385> 149 41<31.4961 180.201>
LayerCount: 2
Fore
SplineSet
25 106 m 0
 25 174 59 215 106 215 c 0
 153 215 190 174 190 106 c 0
 190 38 153 -3 106 -3 c 0
 59 -3 25 38 25 106 c 0
106 200 m 0
 77 200 67 161 67 114 c 2
 67 97 l 2
 67 50 77 12 106 12 c 0
 135 12 149 50 149 97 c 2
 149 114 l 2
 149 161 135 200 106 200 c 0
EndSplineSet
Validated: 1
EndChar

StartChar: questiondown
Encoding: 191 191 87
Width: 194
Flags: W
HStem: 0 16<42 78.8836 130.574 169> 137 21G<25 63.1667> 192 20G<95.5 125>
VStem: 86 39<17.3594 161.137>
LayerCount: 2
Fore
SplineSet
69 161 m 2
 34 137 l 1
 25 149 l 1
 25 149 90 202 101 212 c 1
 125 212 l 1
 125 41 l 2
 125 21 139 16 153 16 c 2
 169 16 l 1
 169 0 l 1
 42 0 l 1
 42 16 l 1
 57 16 l 2
 70 16 86 23 86 40 c 2
 86 155 l 2
 86 162 74 164 69 161 c 2
EndSplineSet
Validated: 1
EndChar

StartChar: Agrave
Encoding: 192 192 88
Width: 206
Flags: W
HStem: -3 33<79.449 155.846> 126 21G<42.5 56> 199 16<66.0714 121.115>
VStem: 25 48<126.149 177.585> 25 29<142.058 188.746> 134 45<116.225 195.944>
LayerCount: 2
Fore
SplineSet
49 126 m 0xf4
 36 126 25 136 25 156 c 0xf4
 25 183 56 215 104 215 c 0
 145 215 179 192 179 159 c 0
 179 125 150 109 124 94 c 0
 103 82 81 68 72 54 c 0
 69 50 72 40 76 39 c 0
 87 36 102 30 122 30 c 0
 142 30 157 41 165 63 c 1
 178 63 l 1
 180 57 181 51 181 45 c 0
 181 17 158 -3 131 -3 c 0
 96 -3 81 18 63 18 c 0
 51 18 45 8 42 0 c 1
 27 0 l 1
 35 88 134 98 134 159 c 0
 134 185 120 199 96 199 c 0
 74 199 54 186 54 178 c 0xec
 54 169 73 169 73 150 c 0
 73 139 63 126 49 126 c 0xf4
EndSplineSet
Validated: 1
EndChar

StartChar: Aacute
Encoding: 193 193 89
Width: 207
VWidth: 1024
Flags: W
HStem: -3 17<66.7507 124.21> 99 15<68 110.24> 199 16<68.6084 125.361>
VStem: 25 41<14.3368 64.6516> 37 30<155.265 197.103> 142 40<21.1831 89.5104 130.575 193.271>
LayerCount: 2
Fore
SplineSet
142 57 m 0xec
 142 84 122 99 68 99 c 1
 68 114 l 1
 113 114 139 131 139 162 c 0
 139 186 123 200 100 200 c 3
 85 200 67 196 67 187 c 0
 67 181 79 180 79 165 c 0
 79 154 71 144 58 144 c 0
 44 144 37 156 37 169 c 0
 37 197 72 215 104 215 c 0
 147 215 177 190 177 163 c 0
 177 143 162 126 142 116 c 0
 137 113 138 105 142 103 c 0
 167 93 182 76 182 54 c 0
 182 23 150 -3 96 -3 c 0
 62 -3 25 15 25 39 c 0xf4
 25 58 38 65 50 65 c 0
 62 65 72 55 72 43 c 0
 72 32 66 29 66 22 c 0
 66 16 78 12 94 12 c 0
 117 12 142 25 142 57 c 0xec
EndSplineSet
Validated: 1
EndChar

StartChar: Acircumflex
Encoding: 194 194 90
Width: 222
Flags: W
HStem: 0 16<84 110.749 160.852 188> 69 16<58.1529 117 156 197> 192 20G<81 156>
VStem: 117 39<17.2162 69 85 111>
LayerCount: 2
Fore
SplineSet
156 85 m 1
 197 85 l 1
 197 69 l 1
 156 69 l 1
 156 40 l 2
 156 20 169 16 183 16 c 2
 188 16 l 1
 188 0 l 1
 84 0 l 1
 84 16 l 1
 87 16 l 2
 101 16 117 22 117 39 c 2
 117 69 l 1
 25 69 l 1
 25 85 l 1
 56 133 74 159 88 212 c 1
 148 212 l 1
 124 164 90 145 59 100 c 0
 56 94 60 85 64 85 c 2
 117 85 l 1
 117 111 l 1
 156 153 l 1
 156 85 l 1
EndSplineSet
Validated: 1
EndChar

StartChar: Atilde
Encoding: 195 195 91
Width: 192
Flags: W
HStem: -3 16<63.1058 107.569> 108 16<63.4552 109.95> 178 34<52 127.179>
VStem: 25 43<13.2307 57.992> 36 16<119.331 176.584> 126 41<19.8347 103.125>
LayerCount: 2
Fore
SplineSet
80 13 m 0xf4
 110 13 126 32 126 65 c 0
 126 93 107 108 88 108 c 0
 73 108 55 101 47 89 c 1
 36 94 l 1
 36 212 l 1
 152 212 l 1
 144 184 112 174 65 178 c 0
 59 178 52 171 52 168 c 2
 52 128 l 2xec
 52 124 61 116 67 119 c 0
 75 122 86 124 100 124 c 0
 133 124 167 107 167 64 c 0
 167 24 127 -3 90 -3 c 0
 54 -3 25 10 25 34 c 0
 25 47 33 58 47 58 c 0
 58 58 68 50 68 37 c 0
 68 28 63 27 63 20 c 0
 63 15 70 13 80 13 c 0xf4
EndSplineSet
Validated: 33
EndChar

StartChar: Adieresis
Encoding: 196 196 92
Width: 194
Flags: W
HStem: -3 15<78.8688 120.979> 103 17<79.5414 125.465> 200 15<90.277 117.953>
VStem: 25 38<24.1777 176.036> 115 45<157.026 199.335> 134 35<18.0001 100.987>
LayerCount: 2
Fore
SplineSet
75 110 m 0xf8
 82 115 94 120 112 120 c 0
 149 120 169 93 169 64 c 0xf4
 169 25 142 -3 98 -3 c 0
 43 -3 25 46 25 99 c 0
 25 172 61 215 110 215 c 0
 134 215 160 202 160 180 c 0
 160 166 150 157 137 157 c 0
 124 157 115 164 115 177 c 0
 115 188 118 188 118 194 c 0
 118 198 113 200 109 200 c 0
 82 200 63 159 61 116 c 0
 61 111 69 106 75 110 c 0xf8
105 103 m 0
 85 103 63 89 63 58 c 0
 63 34 76 12 98 12 c 0
 123 12 134 26 134 63 c 0
 134 87 128 103 105 103 c 0
EndSplineSet
Validated: 1
EndChar

StartChar: Aring
Encoding: 197 197 93
Width: 195
Flags: W
HStem: 137 21G<25 41> 179 36<45.0078 135.241> 179 23<49.0259 85.9965 107.511 135.838>
VStem: 25 16<137 167.375> 55 50<0 43.5586>
LayerCount: 2
Fore
SplineSet
41 212 m 1xd8
 41 212 47 202 56 202 c 0xb8
 67 202 79 215 97 215 c 0
 114 215 121 204 134 204 c 0
 142 204 148 208 151 212 c 1
 170 212 l 1
 156 102 122 90 105 0 c 1
 55 0 l 1
 87 78 117 96 137 160 c 0
 139 166 132 175 127 175 c 0
 109 177 90 179 77 179 c 0
 49 179 41 162 41 137 c 1
 25 137 l 1
 25 212 l 1
 41 212 l 1xd8
EndSplineSet
Validated: 1
EndChar

StartChar: AE
Encoding: 198 198 94
Width: 209
Flags: W
HStem: -3 15<74.0693 133.981> 200 15<79.8942 133.652>
VStem: 25 27<25.7892 81.5355> 34 33<144.961 193.59> 149 35<21.1276 74.5905> 151 24<136.115 188.46>
LayerCount: 2
Fore
SplineSet
67 172 m 0xd4
 67 149 94 137 123 123 c 1
 140 133 151 148 151 163 c 0
 151 183 133 200 108 200 c 0
 82 200 67 186 67 172 c 0xd4
149 43 m 0xe8
 149 71 120 83 91 97 c 1
 68 88 52 75 52 52 c 0
 52 32 74 12 103 12 c 0
 129 12 149 24 149 43 c 0xe8
60 98 m 0
 64 101 66 110 59 114 c 1
 45 125 34 139 34 159 c 0
 34 190 69 215 108 215 c 0
 150 215 175 192 175 165 c 0xd4
 175 148 166 135 153 124 c 0
 147 119 148 110 152 107 c 0
 170 96 184 81 184 58 c 0
 184 24 146 -3 103 -3 c 0
 59 -3 25 21 25 49 c 0
 25 70 38 86 60 98 c 0
EndSplineSet
Validated: 1
EndChar

StartChar: Ccedilla
Encoding: 199 199 95
Width: 197
Flags: W
HStem: -3 17<72.3834 106.937> 92 17<70.493 114.243> 200 15<75.1462 116.488>
VStem: 25 37<111.077 194.257> 29 44<14.1026 54.9927> 135 37<40.8789 185.046>
LayerCount: 2
Fore
SplineSet
135 95 m 0xec
 135 101 126 106 120 102 c 0
 112 96 98 92 86 92 c 0
 48 92 25 115 25 148 c 0xf4
 25 187 54 215 98 215 c 0
 150 215 172 167 172 114 c 0
 172 47 136 -3 76 -3 c 0
 53 -3 29 9 29 31 c 0
 29 45 38 55 51 55 c 0
 64 55 73 48 73 35 c 0
 73 28 72 26 72 22 c 0
 72 16 79 14 86 14 c 0
 117 14 135 59 135 95 c 0xec
93 109 m 0
 111 109 132 128 132 155 c 0
 132 179 118 200 98 200 c 0
 74 200 62 186 62 149 c 0
 62 125 67 109 93 109 c 0
EndSplineSet
Validated: 1
EndChar

StartChar: Egrave
Encoding: 200 200 96
Width: 254
Flags: W
HStem: -4 19<104.94 148.981> 266 19<105.516 148.415>
VStem: 25 56<51.32 229.064> 172 57<51.32 229.064>
LayerCount: 2
Fore
SplineSet
25 140 m 0
 25 219 68 285 127 285 c 0
 186 285 229 219 229 140 c 0
 229 61 186 -4 127 -4 c 0
 68 -4 25 61 25 140 c 0
127 266 m 0
 90 266 81 211 81 150 c 2
 81 128 l 2
 81 67 90 15 127 15 c 0
 164 15 172 67 172 128 c 2
 172 150 l 2
 172 211 164 266 127 266 c 0
EndSplineSet
Validated: 1
EndChar

StartChar: Eacute
Encoding: 201 201 97
Width: 235
Flags: W
HStem: 0 19<50 94.5873 164.259 210> 174 21G<25 60> 261 20G<96.0526 156>
VStem: 104 52<21.1648 214.23>
LayerCount: 2
Fore
SplineSet
156 52 m 2
 156 26 174 19 192 19 c 2
 210 19 l 1
 210 0 l 1
 50 0 l 1
 50 19 l 1
 68 19 l 2
 86 19 104 28 104 53 c 2
 104 205 l 2
 104 218 91 219 84 214 c 2
 36 174 l 1
 25 186 l 1
 115 281 l 1
 156 281 l 1
 156 52 l 2
EndSplineSet
Validated: 1
EndChar

StartChar: Ecircumflex
Encoding: 202 202 98
Width: 242
Flags: W
HStem: -4 47<88.9466 191.221> 21 31<81.6799 114.87> 168 21G<51 68.5> 266 19<78.3114 142.229>
VStem: 26 33<195 248.138> 165 52<160.538 256.258> 196 18<58.5749 84>
LayerCount: 2
Fore
SplineSet
88 198 m 0x7c
 88 180 77 168 60 168 c 0
 42 168 26 183 26 207 c 0
 26 244 64 285 124 285 c 0
 174 285 217 255 217 209 c 0
 217 161 176 143 141 121 c 0
 119 107 99 91 82 71 c 0
 75 64 79 52 88 52 c 0x7c
 109 51 133 43 158 43 c 0
 180 43 194 59 196 84 c 1
 214 84 l 1
 221 52 213 -4 155 -4 c 0xba
 115 -4 100 21 72 21 c 0
 58 21 47 12 43 0 c 1
 25 0 l 1
 28 42 66 95 98 119 c 0
 146 156 165 181 165 211 c 0
 165 248 139 266 109 266 c 0
 92 266 76 258 64 247 c 0
 60 242 59 239 59 236 c 0
 59 226 88 230 88 198 c 0x7c
EndSplineSet
Validated: 33
EndChar

StartChar: Edieresis
Encoding: 203 203 99
Width: 244
Flags: W
HStem: -4 19<74.3128 141.258> 134 18<76 127.006> 192 21G<59 73> 266 19<81.2596 145.438>
VStem: 25 48<16.0062 74.324> 39 34<206.414 257.113> 162 49<170.868 259.776> 166 53<26.2966 119.1>
LayerCount: 2
Fore
SplineSet
165 138 m 0xf1
 199 124 219 103 219 72 c 0
 219 32 182 -4 114 -4 c 0
 68 -4 25 18 25 53 c 0
 25 77 40 91 57 91 c 0
 74 91 86 76 86 60 c 0
 86 46 73 37 73 27 c 0
 73 21 86 15 106 15 c 0
 144 15 166 38 166 76 c 0xf9
 166 111 144 134 76 134 c 1
 76 152 l 1
 138 152 162 177 162 213 c 0
 162 245 148 266 115 266 c 0
 95 266 73 257 73 248 c 0
 73 240 92 238 92 218 c 0
 92 204 80 192 66 192 c 0
 52 192 39 202 39 219 c 0
 39 254 78 285 122 285 c 0
 169 285 211 256 211 216 c 0xf6
 211 190 193 169 166 154 c 1
 160 152 156 141 165 138 c 0xf1
EndSplineSet
Validated: 1
EndChar

StartChar: Igrave
Encoding: 204 204 100
Width: 269
Flags: W
HStem: 0 20<98 130.829 199.844 232> 86 20<51 139 192 244> 261 20G<99 192>
VStem: 106 79<245.035 281> 139 53<21.6703 86 106 151>
LayerCount: 2
Fore
SplineSet
192 86 m 1xe8
 192 51 l 2
 192 32 207 20 222 20 c 2
 232 20 l 1
 232 0 l 1
 98 0 l 1
 98 20 l 1
 107 20 l 2
 122 20 139 30 139 51 c 2
 139 86 l 1xe8
 25 86 l 1
 25 103 l 1
 63 161 92 215 106 281 c 1
 185 281 l 1xf0
 155 216 101 182 51 106 c 1
 139 106 l 1
 139 151 l 1
 192 209 l 1
 192 106 l 1
 244 106 l 1
 244 86 l 1
 192 86 l 1xe8
EndSplineSet
Validated: 1
EndChar

StartChar: Iacute
Encoding: 205 205 101
Width: 229
Flags: W
HStem: -4 19<73.0487 125.264> 117 21G<40 58> 146 20<70.588 129.485> 234 47<60 147.981>
VStem: 25 48<15.1601 64.9076> 40 20<151 234> 149 55<28.4059 138.595>
LayerCount: 2
Fore
SplineSet
94 15 m 0xfa
 124 15 149 33 149 86 c 0
 149 125 129 146 103 146 c 0
 83 146 64 136 52 117 c 1
 40 122 l 1
 40 281 l 1
 188 281 l 1
 175 237 114 225 60 234 c 1
 60 151 l 1xf6
 75 159 90 166 117 166 c 0
 160 166 204 141 204 86 c 0
 204 31 157 -4 106 -4 c 0
 58 -4 25 17 25 50 c 0
 25 67 38 81 55 81 c 0
 72 81 84 67 84 50 c 0
 84 39 73 32 73 23 c 0
 73 19 78 15 94 15 c 0xfa
EndSplineSet
Validated: 33
EndChar

StartChar: Icircumflex
Encoding: 206 206 102
Width: 237
Flags: W
HStem: -4 18<98.5875 145.343> 146 19<102.699 152.843> 267 18<113.54 141.613>
VStem: 25 53<37.3636 225.914> 137 62<206.772 266.532> 163 49<26.7765 144.19>
LayerCount: 2
Fore
SplineSet
92 150 m 0xf8
 101 157 118 165 137 165 c 0xf8
 187 165 212 132 212 88 c 0xf4
 212 36 176 -4 120 -4 c 0
 51 -4 25 61 25 131 c 0
 25 228 76 285 137 285 c 0
 167 285 199 267 199 238 c 0
 199 220 184 205 167 205 c 0
 150 205 137 218 137 235 c 0
 137 250 142 252 142 259 c 0
 142 265 138 267 134 267 c 0
 104 267 77 217 75 156 c 0
 75 149 83 142 92 150 c 0xf8
129 146 m 0
 99 146 78 115 78 78 c 0
 78 46 93 14 120 14 c 0
 152 14 163 39 163 87 c 0xf4
 163 119 161 146 129 146 c 0
EndSplineSet
Validated: 1
EndChar

StartChar: Idieresis
Encoding: 207 207 103
Width: 296
Flags: W
HStem: -141 282<104.539 191.461>
VStem: 0 296<-40.5626 40.5626>
LayerCount: 2
Fore
SplineSet
296 39 m 0
 296 -55 207 -141 108 -141 c 3
 49 -141 0 -106 0 -39 c 3
 0 55 89 141 188 141 c 0
 247 141 296 106 296 39 c 0
EndSplineSet
Validated: 1
EndChar

StartChar: Eth
Encoding: 208 208 104
Width: 234
Flags: W
HStem: 182 21G<25 44> 225 40<107.027 169.181> 234 51<48.4824 165.046> 234 32<51.4364 91.7239>
VStem: 25 19<182 221.195> 57 66<0 44.7405>
LayerCount: 2
Fore
SplineSet
44 281 m 1xac
 44 281 50 266 60 266 c 0x9c
 75 266 86 285 106 285 c 0xac
 128 285 144 265 161 265 c 0
 172 265 183 271 187 281 c 1
 209 281 l 1
 191 135 145 119 123 0 c 1
 57 0 l 1
 99 102 135 127 169 210 c 0
 173 218 168 225 154 225 c 0xcc
 130 225 106 234 89 234 c 0
 52 234 44 215 44 182 c 1
 25 182 l 1
 25 281 l 1
 44 281 l 1xac
EndSplineSet
Validated: 1
EndChar

StartChar: Ntilde
Encoding: 209 209 105
Width: 250
Flags: W
HStem: -4 18<90.1427 156.11> 267 18<98.0903 158.545>
VStem: 25 35<33.1325 111.924> 37 44<193.883 257.649> 179 46<29.6355 98.2941> 179 32<179.723 255.055>
LayerCount: 2
Fore
SplineSet
81 231 m 0xd4
 81 202 113 185 147 166 c 1
 167 179 179 198 179 218 c 0
 179 245 160 267 130 267 c 0
 100 267 81 249 81 231 c 0xd4
179 57 m 0xe8
 179 94 141 111 104 131 c 1
 77 119 60 101 60 72 c 0
 60 45 85 14 123 14 c 0
 155 14 179 35 179 57 c 0xe8
70 133 m 0
 78 137 77 147 71 152 c 0
 51 167 37 185 37 211 c 0
 37 251 80 285 130 285 c 0
 181 285 211 256 211 220 c 0
 211 197 199 179 181 166 c 0
 176 162 173 152 179 148 c 0xd4
 204 131 225 111 225 79 c 0
 225 34 175 -4 123 -4 c 0
 65 -4 25 31 25 68 c 0
 25 97 42 118 70 133 c 0
EndSplineSet
Validated: 1
EndChar

StartChar: Ograve
Encoding: 210 210 106
Width: 424
Flags: W
HStem: 241 40G<83.1755 121 150 178 203.364 267 303 341>
VStem: -0.0119456 32.9996<-105.137 118.764> 150 28<-70.1333 60.0625 127.623 281> 239 28<-281 -127.623 -60.0625 70.1333> 391.012 32.9996<-118.764 105.137>
LayerCount: 2
Fore
SplineSet
391 -6 m 0
 391 122 332 203 303 246 c 0
 319 261 l 0
 363 216 424 129 424 -6 c 0
 424.008 -7.07695 424.012 -8.15085 424.012 -9.22169 c 0
 424.012 -142.385 362.649 -228.359 319 -273 c 0
 303 -258 l 0
 331.761 -215.355 391.012 -135.334 391.012 -9.15765 c 0
 391.012 -8.1083 391.008 -7.05575 391 -6 c 0
33 6 m 0
 33 -122 92 -203 121 -246 c 0
 105 -261 l 0
 61 -216 0 -129 0 6 c 0
 -0.00797742 7.07695 -0.0119456 8.15085 -0.0119456 9.22169 c 0
 -0.0119456 142.385 61.351 228.359 105 273 c 0
 121 258 l 0
 92.2392 215.355 32.9877 135.334 32.9877 9.15765 c 0
 32.9877 8.1083 32.9918 7.05575 33 6 c 0
267 -281 m 0
 239 -281 l 0
 239 -140 l 0
 239 -131 228 -126 220 -128 c 0
 150 -150 l 0
 150 281 l 0
 178 281 l 0
 178 140 l 0
 178 131 189 126 197 128 c 0
 267 150 l 0
 267 -281 l 0
175 -59 m 0
 175 -66 184 -73 193 -70 c 0
 232 -58 l 0
 238 -56 242 -53 242 -46 c 0
 242 59 l 0
 242 66 233 73 224 70 c 0
 185 58 l 0
 179 56 175 53 175 46 c 0
 175 -59 l 0
EndSplineSet
Validated: 1
EndChar

StartChar: Oacute
Encoding: 211 211 107
Width: 409
Flags: W
HStem: 85.1 21.9<194.122 232.075> 340 10G<83.1755 121 150 193 288 326>
VStem: -0.0119456 32.9996<-8.13704 215.764> 150 43<107.006 340> 150 26<-65.1817 77.7147> 243.373 60.6274<-13.0626 82.1788> 376.012 32.9996<-9.76431 214.137>
LayerCount: 2
Fore
SplineSet
376 103 m 0xe6
 376 231 317 312 288 355 c 0
 304 370 l 0
 348 325 409 238 409 103 c 0
 409.008 101.923 409.012 100.849 409.012 99.7783 c 0
 409.012 -33.3854 347.649 -119.359 304 -164 c 0
 288 -149 l 0
 316.761 -106.355 376.012 -26.3336 376.012 99.8423 c 0
 376.012 100.892 376.008 101.944 376 103 c 0xe6
33 103 m 0
 33 -25 92 -106 121 -149 c 0
 105 -164 l 0
 61 -119 0 -32 0 103 c 0
 -0.00797742 104.077 -0.0119456 105.151 -0.0119456 106.222 c 0
 -0.0119456 239.385 61.351 325.359 105 370 c 0
 121 355 l 0
 92.2392 312.355 32.9877 232.334 32.9877 106.158 c 0
 32.9877 105.108 32.9918 104.056 33 103 c 0
193 -65 m 0xf6
 231.855 -35.2387 243.373 -2.06015 243.373 29.4506 c 0
 243.373 36.0559 242.866 42.588 242 49 c 0
 238.833 73.0667 225.238 85.1 209.851 85.1 c 0
 200.942 85.1 191.433 81.0667 183 73 c 0
 178 69 176 63 176 57 c 0
 176 -57 l 0xee
 176 -65 187 -69 193 -65 c 0xf6
160 -123 m 0
 151 -131 150 -129 150 -116 c 0xee
 150 340 l 0
 193 340 l 0
 193 121 l 0
 193 115 204 107 210 107 c 0
 218 107 228 113 244 113 c 0
 274 113 304 91 304 47 c 0
 304 -17 242 -51 193 -94 c 0xf6
 160 -123 l 0
EndSplineSet
Validated: 1
EndChar

StartChar: Ocircumflex
Encoding: 212 212 108
Width: 438
Flags: W
HStem: 255 1G<83.1755 121 167 195 243 271 288 313 317 355>
VStem: -0.0119456 32.9996<-117.137 106.764> 167 28<-274 -151.722 -73.0886 52.0872 129.912 256> 243 28<-256 -129.912 -52.0872 73.0886 151.722 274> 405.012 32.9996<-104.764 119.137>
LayerCount: 2
Fore
SplineSet
405 8 m 0
 405 136 346 217 317 260 c 0
 333 275 l 0
 377 230 438 143 438 8 c 0
 438.008 6.92305 438.012 5.84915 438.012 4.77831 c 0
 438.012 -128.385 376.649 -214.359 333 -259 c 0
 317 -244 l 0
 345.761 -201.355 405.012 -121.334 405.012 4.84235 c 0
 405.012 5.8917 405.008 6.94425 405 8 c 0
33 -6 m 0
 33 -134 92 -215 121 -258 c 0
 105 -273 l 0
 61 -228 0 -141 0 -6 c 0
 -0.00797742 -4.92305 -0.0119456 -3.84915 -0.0119456 -2.77831 c 0
 -0.0119456 130.385 61.351 216.359 105 261 c 0
 121 246 l 0
 92.2392 203.355 32.9877 123.334 32.9877 -2.84235 c 0
 32.9877 -3.8917 32.9918 -4.94425 33 -6 c 0
194 -62 m 0
 194 -70 204 -75 212 -73 c 0
 233 -67 l 0
 239 -65 244 -59 244 -51 c 0
 244 62 l 0
 244 70 234 75 226 73 c 0
 205 67 l 0
 199 65 194 59 194 51 c 0
 194 -62 l 0
168 39 m 0
 168 47 160 54 153 52 c 0
 125 43 l 0
 125 104 l 0
 149 111 l 0
 162 115 167 123 167 135 c 0
 167 256 l 0
 195 256 l 0
 195 142 l 0
 195 134 204 128 212 130 c 0
 230 135 l 0
 240 138 243 144 243 152 c 0
 243 274 l 0
 271 274 l 0
 271 166 l 0
 271 158 281 150 288 152 c 0
 313 159 l 0
 313 98 l 0
 282 89 l 0
 275 87 270 83 270 75 c 0
 270 -39 l 0
 270 -47 278 -54 285 -52 c 0
 313 -43 l 0
 313 -104 l 0
 289 -111 l 0
 276 -115 271 -123 271 -135 c 0
 271 -256 l 0
 243 -256 l 0
 243 -142 l 0
 243 -134 234 -128 226 -130 c 0
 208 -135 l 0
 198 -138 195 -144 195 -152 c 0
 195 -274 l 0
 167 -274 l 0
 167 -166 l 0
 167 -158 157 -150 150 -152 c 0
 125 -159 l 0
 125 -98 l 0
 156 -89 l 0
 163 -87 168 -83 168 -75 c 0
 168 39 l 0
EndSplineSet
Validated: 1
EndChar

StartChar: Otilde
Encoding: 213 213 109
Width: 548
Flags: W
HStem: 340 12G<83.0118 121.012 150.012 193.012 236.012 248.012 289.012 332.012 375.012 398.012 427.012 465.012>
VStem: 0.0117035 33<-6.13704 216.137> 150.012 43<107.008 340> 150.012 26<-65.1817 77.6069> 289.012 43<108.278 340> 289.012 26<-65.1807 -26.7246> 515.012 33<-6.13704 216.137>
LayerCount: 2
Fore
SplineSet
515.012 105 m 0xc2
 515.012 233 456.012 314 427.012 357 c 0
 443.012 372 l 0
 487.012 327 548.012 240 548.012 105 c 0
 549.012 -30 487.012 -117 443.012 -162 c 0
 427.012 -147 l 0
 456.012 -104 516.012 -23 515.012 105 c 0xc2
33.0117 105 m 0
 33.0117 -23 92.0117 -104 121.012 -147 c 0
 105.012 -162 l 0
 61.0117 -117 0.0117035 -30 0.0117035 105 c 0
 -0.988297 240 61.0117 327 105.012 372 c 0
 121.012 357 l 0
 92.0117 314 32.0117 233 33.0117 105 c 0
332.012 -64.999 m 0xca
 379.012 -28.999 386.012 12.001 381.012 49.001 c 0
 376.012 87.001 345.012 95.001 322.012 73.001 c 0
 317.012 69.001 315.012 63.001 315.012 57.001 c 0
 315.012 -56.999 l 0xc6
 315.012 -64.999 326.012 -68.999 332.012 -64.999 c 0xca
193.012 -65 m 0xe2
 240.012 -29 247.012 12 242.012 49 c 0
 237.012 87 206.012 95 183.012 73 c 0
 178.012 69 176.012 63 176.012 57 c 0
 176.012 -57 l 0xd2
 176.012 -65 187.012 -69 193.012 -65 c 0xe2
160.012 -123 m 0
 151.012 -131 150.012 -129 150.012 -116 c 0xd2
 150.012 340 l 0
 193.012 340 l 0
 193.012 124 l 0
 193.012 118 202.012 107 208.012 107 c 0
 216.012 107 228.012 113 244.012 113 c 0
 252.012 113 260.012 111 268.012 108 c 0
 279.012 103 289.012 111 289.012 118 c 0
 289.012 340 l 0
 332.012 340 l 0
 332.012 124 l 0
 332.012 118 341.012 107 347.012 107 c 0
 355.012 107 367.012 113 383.012 113 c 0
 413.012 113 443.012 91 443.012 47 c 0
 443.012 -17 381.012 -51 332.012 -94 c 0xea
 299.012 -123 l 0
 290.012 -131 289.012 -129 289.012 -116 c 0
 289.012 -31 l 0
 289.012 -23 277.012 -21 272.012 -27 c 0
 249.012 -50 219.012 -71 193.012 -94 c 0xe6
 160.012 -123 l 0
EndSplineSet
Validated: 33
EndChar

StartChar: Odieresis
Encoding: 214 214 110
Width: 392
Flags: W
HStem: -96 71<107 169.595 222.405 285> -89 64<221 285> -23 46<174.708 217.292> 25 71<107 169.595 222.405 285> 25 64<107 171 221 285> 116 20G<43 74 318 349>
VStem: 0 29<-68.8292 68.8292> 100 71<-89 -26.4055 26.4055 89> 107 64<-89 -25 25 89> 173 46<-21.2915 21.2915> 221 71<-89 -26.4055 26.4055 89> 221 64<25 89> 363 29<-68.8292 68.8292>
LayerCount: 2
Fore
SplineSet
363 0 m 0x2648
 363 42 347 85 318 123 c 0
 332 136 l 0
 366 102 392 59 392 0 c 0
 392 -59 366 -102 332 -136 c 0
 318 -123 l 0
 347 -85 363 -42 363 0 c 0x2648
29 0 m 0
 29 -42 45 -85 74 -123 c 0
 60 -136 l 0
 26 -102 0 -59 0 0 c 0
 0 59 26 102 60 136 c 0
 74 123 l 0
 45 85 29 42 29 0 c 0
219 0 m 0
 219 -20 243 -25 285 -25 c 0xb658
 286 -55 290 -84 292 -96 c 0xb668
 280 -94 251 -90 221 -89 c 0
 221 -47 216 -23 196 -23 c 0
 176 -23 171 -47 171 -89 c 0x6768
 141 -90 112 -94 100 -96 c 0xa768
 102 -84 106 -55 107 -25 c 0
 149 -25 173 -20 173 0 c 0
 173 20 149 25 107 25 c 0xb6c8
 106 55 102 84 100 96 c 0xb748
 112 94 141 90 171 89 c 0
 171 47 176 23 196 23 c 0
 216 23 221 47 221 89 c 0x2f68
 251 90 280 94 292 96 c 0x3768
 290 84 286 55 285 25 c 0x3658
 243 25 219 20 219 0 c 0
EndSplineSet
Validated: 1
EndChar

StartChar: multiply
Encoding: 215 215 111
Width: 236
Flags: W
HStem: -4 20<76.5195 125.084> 115 20<84.8698 135.428> 267 18<92.4876 139.825>
VStem: 25 49<137.998 254.509> 30 62<16.5508 72.4732> 162 49<52.8699 245.318>
LayerCount: 2
Fore
SplineSet
162 121 m 0xec
 162 129 152 134 144 128 c 0
 133 120 117 115 101 115 c 0
 48 115 25 155 25 194 c 0xf4
 25 246 62 285 118 285 c 0
 187 285 211 221 211 151 c 0
 211 54 166 -4 92 -4 c 0
 62 -4 30 13 30 42 c 0
 30 60 44 74 61 74 c 0
 78 74 92 63 92 46 c 0
 92 37 91 33 91 27 c 0
 91 19 97 16 104 16 c 0
 137 16 162 78 162 121 c 0xec
110 135 m 0
 134 135 160 160 160 204 c 0
 160 236 145 267 118 267 c 0
 86 267 74 242 74 194 c 0
 74 165 76 135 110 135 c 0
EndSplineSet
Validated: 1
EndChar

StartChar: Oslash
Encoding: 216 216 112
Width: 254
Flags: W
HStem: -4 28<71.0216 137.59> 137 27<85.9645 160.611> 267 27<89.228 159.434>
VStem: 1 69<24.5721 77.5521> 20 56<167.673 260.45> 174 59<118.302 240.721>
LayerCount: 2
Fore
SplineSet
119 164 m 0xec
 141 164 174 175 174 205 c 0
 174 248 157 267 123 267 c 0
 90 267 76 245 76 215 c 0
 76 176 92 164 119 164 c 0xec
73 87 m 0
 68 89 63 92 68 100 c 0
 70 105 l 0xf4
 75 115 78 115 88 110 c 0
 148 82 l 0
 162 75 166 79 169 90 c 0
 172 103 174 115 175 128 c 0
 176 143 170 147 153 143 c 0
 139 139 125 137 110 137 c 0
 62 137 20 162 20 212 c 0xec
 20 262 68 294 117 294 c 0
 187 294 233 236 233 157 c 0
 233 125 226 95 213 70 c 0
 206 58 207 54 221 48 c 0
 260 30 l 0
 269 25 270 22 267 15 c 0
 264 8 l 0
 261 0 255 0 251 3 c 0
 202 26 l 0
 189 32 185 30 170 20 c 0
 149 5 123 -4 93 -4 c 0
 54 -4 1 9 1 45 c 0
 1 65 14 80 35 80 c 0
 59 80 69 62 70 39 c 0xf4
 70 29 78 24 98 24 c 0
 113 24 126 28 136 35 c 0
 150 45 148 51 133 58 c 0
 73 87 l 0
EndSplineSet
Validated: 33
EndChar

StartChar: Ugrave
Encoding: 217 217 113
Width: 280
Flags: W
HStem: -3 97<63.2552 108.556> 158 28<120.384 202.335>
VStem: 42 69<28.1414 91.7959> 90 30<182.838 234.388> 222 58<32.9991 145.902>
LayerCount: 2
Fore
SplineSet
90 152 m 0xd8
 92 217 92 241 92 281 c 0
 92 287 94 289 98 289 c 0
 104 289 138 281 182 281 c 0
 212 281 250 289 256 289 c 0
 262 289 264 281 256 271 c 0
 230 236 192 228 136 235 c 0
 126 236 120 231 120 223 c 0
 120 198 l 0xd8
 120 184 122 180 136 182 c 0
 150 184 158 186 176 186 c 0
 234 186 280 146 280 91 c 0
 280 44 246 -2 177 -9 c 0
 160 -11 156 -12 153 -30 c 0
 146 -70 l 0
 144 -81 143 -82 133 -81 c 0
 127 -80 l 0
 117 -78 117 -73 118 -68 c 0
 125 -30 l 0
 128 -8 124 -8 107 -3 c 0
 71 7 42 28 42 60 c 0
 42 78 54 94 77 94 c 0
 99 94 111 80 111 60 c 0xe8
 111 54 109 45 109 40 c 0
 109 35 112 31 118 28 c 0
 128 21 134 24 137 39 c 0
 148 101 l 0
 148 106 150 110 160 109 c 0
 166 108 l 0
 176 106 176 103 174 92 c 0
 164 35 l 0
 162 22 165 18 178 21 c 0
 208 30 222 54 222 91 c 0
 222 140 194 158 166 158 c 0
 144 158 124 151 106 145 c 0
 102 143 90 139 90 152 c 0xd8
EndSplineSet
Validated: 33
EndChar

StartChar: Uacute
Encoding: 218 218 114
Width: 253
Flags: W
HStem: -3.99997 27<93.6584 163.687> 148 29<93.591 166.786> 267 27<105.418 160.141>
VStem: 20 57<91.0638 230.063> 160 68<209.97 266.346>
LayerCount: 2
Fore
SplineSet
134 148 m 0
 108 148 77 131 77 98 c 0
 77 87 84 89 92 91 c 0
 158 108.494 l 0
 172.385 112.307 176.844 117.224 168.667 131.382 c 0
 161.71 143.427 150.396 148 134 148 c 0
20 139 m 0
 20 228 72 294 144 294 c 0
 192 294 228 274 228 243 c 0
 228 225 216 208 195 208 c 0
 175 208 160 219 160 241 c 0
 160 249 161 251 161 257 c 0
 161 266 154 267 143 267 c 0
 95 267 77 220 77 178 c 0
 77 160 85 162 99 168 c 0
 112 173 129 177 142 177 c 0
 170.734 177 200.895 166.287 218 141.843 c 0
 225.371 131.31 225.22 126.797 240 130.652 c 0
 272 139 l 0
 283 142 285 140 288 132 c 0
 290 126 l 0
 293 118 288 115 283 113 c 0
 244 102.86 l 0
 236.129 100.813 233 99 233 90 c 0
 233 32 190 -3.99997 133 -3.99997 c 0
 98 -3.99997 69 11 50 37 c 0
 43 46 39.9657 49.0427 26 45 c 0
 -12 34 l 0
 -17.3601 32.4484 -22.0125 32.0375 -25 41 c 0
 -27 47 l 0
 -30.2375 56.7125 -27.2555 58.895 -16 62 c 0
 13 70 l 0
 26.739 73.7901 28 78 25 92 c 0
 22 106 20 122 20 139 c 0
158.333 79.9919 m 0
 94.9997 63 l 0
 84.9997 60 80.9997 57 85.9997 46 c 0
 94.9997 31 109 23 131 23 c 0
 158.532 23 172.74 38.5456 176.17 69 c 0
 177.884 84.2172 172.536 83.8024 158.333 79.9919 c 0
EndSplineSet
Validated: 1
EndChar

StartChar: Ucircumflex
Encoding: 219 219 115
Width: 248
Flags: W
HStem: 169 21G<19.8125 31.8125> 189 48<145.734 179.767> 228 58<64.4055 116.383> 274 20G<20.8125 33.3125 219.812 231.812>
VStem: 12.8125 28<169.003 219.423 261.836 293.997> 55.8125 77.9995<2.1586 54.1997> 210.812 27<248.145 293.976>
LayerCount: 2
Fore
SplineSet
133.812 7 m 0x5e
 133.812 3 130.812 -2 126.812 -2 c 0
 116.812 -2 110.812 2 95.8125 2 c 0
 74.8125 2 70.8125 -2 62.8125 -2 c 0
 58.8125 -2 53.8125 1 55.8125 8 c 0
 64.8125 34 75.8125 53 88.8125 70 c 0
 95.8125 79 91.8125 82 78.8125 84 c 0
 21.8125 94 l 0
 9.8125 97 8.8125 98 10.8125 107 c 0
 11.8125 113 l 0
 13.8125 123 14.8125 124 23.8125 122 c 0
 100.812 109 l 0
 119.812 106 122.812 106 133.812 117 c 0
 148.812 132 163.812 149 176.812 170 c 0
 187.812 188 187.812 196 163.812 191 c 0
 159.812 190 154.812 189 148.812 189 c 0x5e
 117.812 189 112.812 228 78.8125 228 c 0
 54.8125 228 39.8125 210 39.8125 179 c 0
 39.8125 170 37.8125 169 25.8125 169 c 0
 13.8125 169 12.8125 170 12.8125 178 c 0
 12.8125 286 l 0xae
 12.8125 293 13.8125 294 27.8125 294 c 0x1e
 38.8125 294 40.8125 293 40.8125 282 c 0
 40.8125 263 l 0
 40.8125 249 52.8125 249 61.8125 261 c 0
 75.8125 279 85.8125 286 104.812 286 c 0x2e
 142.812 286 144.812 237 175.812 237 c 0
 195.812 237 206.812 253 210.812 279 c 0
 212.812 293 212.812 294 226.812 294 c 0
 236.812 294 238.812 293 237.812 282 c 0
 227.812 206 199.812 155 174.812 113 c 0
 167.812 100 170.812 97 185.812 94 c 0
 225.812 87 l 0
 234.812 85 235.812 84 233.812 74 c 0
 232.812 68 l 0
 230.812 59 229.812 58 216.812 60 c 0
 166.812 69 l 0
 153.812 71 150.812 70 145.812 59 c 0
 138.812 42 133.812 25 133.812 7 c 0x5e
EndSplineSet
Validated: 33
EndChar

StartChar: Yacute
Encoding: 221 221 116
Width: 378
Flags: W
HStem: -4 28<155.248 212.79> 111 27<153.499 224.216> 267 27<155.842 222.87>
VStem: 84.686 70<24.4958 75.3125>
LayerCount: 2
Fore
SplineSet
183.686 138 m 0
 204.686 138 236.686 146 239.686 184 c 0
 240.686 197 237.686 199 225.686 196 c 0
 156.686 177 l 0
 146.686 175 142.686 172 146.686 162 c 0
 154.686 145 166.686 138 183.686 138 c 0
297.686 157 m 0
 297.686 68 243.686 -4 165.686 -4 c 0
 129.686 -4 84.686 10 84.686 44 c 0
 84.686 64 97.686 78 117.686 78 c 0
 141.686 78 152.686 63 154.686 41 c 0
 155.686 33 157.686 24 170.686 24 c 0
 212.686 24 235.686 51 239.686 102 c 0
 240.686 117 234.686 121 217.686 117 c 0
 203.686 113 189.686 111 174.686 111 c 0
 143.686 111 115.686 125 99.686 149 c 0
 93.686 157 90.686 159 78.686 156 c 0
 45.686 147 l 0
 40.686 145 34.686 145 32.686 154 c 0
 30.686 160 l 0
 28.686 170 30.686 171 41.686 175 c 0
 72.686 183 l 0
 83.686 186 84.686 190 84.686 199 c 0
 84.686 259 132.686 294 181.686 294 c 0
 217.686 294 247.686 279 267.686 253 c 0
 277.686 241 279.686 239 293.686 243 c 0
 329.686 252 l 0
 340.686 255 342.686 253 345.686 245 c 0
 347.686 239 l 0
 350.686 231 345.686 228 340.686 226 c 0
 302.686 216 l 0
 292.686 213 290.686 210 292.686 199 c 0
 295.686 186 297.686 172 297.686 157 c 0
153.686 205 m 0
 218.686 223 l 0
 231.686 226 236.686 231 231.686 241 c 0
 222.686 260 208.686 267 187.686 267 c 0
 158.686 267 144.686 248 141.686 217 c 0
 140.686 207 143.686 202 153.686 205 c 0
EndSplineSet
Validated: 1
EndChar

StartChar: Thorn
Encoding: 222 222 117
Width: 262
Flags: W
HStem: -4 56<119.59 212.106> -4 21G<25 35.5> 180 21G<33 53.5>
VStem: 10 61<181.764 261.028> 20 26<-3.88579 33.63> 178 60<159.407 252.53> 218 27<63.6101 102.952>
LayerCount: 2
Fore
SplineSet
218 86 m 0xa2
 222 99 224 104 234 103 c 0
 243 102 247 99 245 91 c 0
 236 56 220 -4 163 -4 c 0xa2
 124 -4 112 40 78 40 c 0
 59 40 50 28 46 10 c 0
 44 -1 41 -4 30 -4 c 0
 20 -4 20 1 20 11 c 0x6a
 20 60 51 105 117 134 c 0
 150 149 178 170 178 208 c 0
 178 227 172 241 162 251 c 0
 155 259 149 257 146 246 c 0
 126 174 l 0
 124 163 122 161 112 164 c 0
 107 165 l 0
 97 168 97 173 99 178 c 0
 118 250 l 0
 121 263 121 268 107 266 c 0
 90 264 71 256 71 242 c 0
 71 234 76 228 76 214 c 0
 76 195 65 180 42 180 c 0
 24 180 10 194 10 214 c 0
 10 252 50 290 114 294 c 0
 126 294 131 297 133 307 c 0
 146 357 l 0
 148 362 150 366 160 364 c 0
 166 362 l 0
 175 360 175 357 173 346 c 0
 161 304 l 0
 158 292 161 289 172 285 c 0
 210 271 238 241 238 205 c 0x74
 238 164 206 139 162 122 c 0
 138 112 114 106 98 94 c 0
 85 84 88 76 104 72 c 0
 142 61 144 52 173 52 c 0
 193 52 210 61 218 86 c 0xa2
EndSplineSet
Validated: 1
EndChar

StartChar: germandbls
Encoding: 223 223 118
Width: 249
Flags: W
HStem: -4 27<62.6512 110.213> 268 26<137.382 185.658>
VStem: 10 48<23.9854 152.503> 191 48<145.258 266.827>
LayerCount: 2
Fore
SplineSet
58 55 m 0
 58 36 69 23 86 23 c 0
 140 23 191 195 191 235 c 0
 191 252 184 268 162 268 c 0
 108 268 58 102 58 55 c 0
163 294 m 0
 214 294 239 251 239 202 c 0
 239 122 175 -4 90 -4 c 0
 36 -4 10 41 10 88 c 0
 10 176 85 294 163 294 c 0
EndSplineSet
Validated: 1
EndChar

StartChar: agrave
Encoding: 224 224 119
Width: 220
Flags: W
HStem: 0 28<17.0195 77.8948 131.311 179.969> 270 20G<161 165 198 203.5>
VStem: 17 187
LayerCount: 2
Fore
SplineSet
169 0 m 0
 25 0 l 0
 15 0 13 2 17 14 c 0
 21 27 23 28 29 28 c 0
 49 28 l 0
 78 28 82 47 90 73 c 0
 126 184 l 0
 130 197 120 200 111 191 c 0
 56 139 l 0
 51 134 48 136 41 142 c 0
 34 148 35 152 41 158 c 0
 151 281 l 0
 157 287 159 290 163 290 c 0
 167 290 173 286 181 286 c 0
 191 286 195 290 201 290 c 0
 206 290 205 285 204 280 c 0
 132 52 l 0
 128 38 129 28 146 28 c 0
 172 28 l 0
 183 28 183 25 180 14 c 0
 177 2 175 0 169 0 c 0
EndSplineSet
Validated: 1
EndChar

StartChar: aacute
Encoding: 225 225 120
Width: 257
Flags: W
HStem: -4 51<101.295 194.432> -4 21G<16 27> 191 21G<79.5 97> 268 26<113.133 185.264>
VStem: 10 26<-3.96714 33.0275> 58 53<207.502 266.163> 194 53<174.822 263.961> 200 27<58.3207 88.8601>
LayerCount: 2
Fore
SplineSet
200 77 m 0xbd
 206 90 208 91 217 89 c 0
 227 86 229 84 227 78 c 0
 217 44 194 -4 145 -4 c 0xbd
 107 -4 93 39 65 39 c 0
 47 39 39 25 36 10 c 0
 34 -2 33 -4 21 -4 c 0
 11 -4 10 1 10 10 c 0
 10 59 54 110 118 140 c 0
 159 159 194 180 194 229 c 0
 194 253 180 268 149 268 c 0
 128 268 111 262 111 250 c 0
 111 241 120 238 120 222 c 0
 120 203 106 191 88 191 c 0
 71 191 58 206 58 223 c 0
 58 266 100 294 154 294 c 0
 204 294 247 265 247 216 c 0x7e
 247 167 209 142 175 129 c 0
 145 118 111 107 88 89 c 0
 79 82 78 73 90 68 c 0
 108 61 129 47 153 47 c 0
 173 47 188 52 200 77 c 0xbd
EndSplineSet
Validated: 1
EndChar

StartChar: acircumflex
Encoding: 226 226 121
Width: 259
Flags: W
HStem: -4 28<66.8551 129.882> 81 20G<37 55> 133 28<89.553 146.186> 200 21G<88.5 106.5> 269 25<123.418 186.365>
VStem: 10 56<24.4142 83.4868> 69 53<200.695 268.221> 154 56<40.3158 125.85> 193 56<177.229 266.774>
LayerCount: 2
Fore
SplineSet
96 24 m 0xff
 128 24 154 56 154 96 c 0xff
 154 120 137 133 112 133 c 0
 98 133 l 0
 91 133 87 135 89 145 c 0
 92 159 94 161 104 161 c 0
 116 161 l 0
 146 161 169 167 182 191 c 0
 188 201 193 220 193 235 c 0
 193 256 181.5 269 155 269 c 0
 134 269 122 264 122 253 c 0
 122 246.25 128 244 128 230 c 0
 128 212 116 200 97 200 c 0
 80 200 69 213 69 232 c 0
 69 267 111 294 163 294 c 0
 199 294 249 275 249 227 c 0
 249 196 230 166 193 154 c 0xfe80
 177 149 179 137 188 126 c 0
 195 117 210 102 210 80 c 0
 210 26 154 -4 100 -4 c 0
 52 -4 10 22 10 61 c 0
 10 85 27 101 47 101 c 0
 63 101 76 89 76 70 c 0
 76 53 66 46 66 37 c 0
 66 27 77 24 96 24 c 0xff
EndSplineSet
Validated: 1
EndChar

StartChar: atilde
Encoding: 227 227 122
Width: 272
Flags: W
HStem: 0 28<52.6613 113.888 165.731 221.373> 87 28<69.9625 121.231 192.809 260.409> 270 20G<118.012 125.512 178.512 186.512>
VStem: -0.488007 261
LayerCount: 2
Fore
SplineSet
245.512 87 m 0
 192.512 87 l 0
 181.512 87 175.512 81 172.512 71 c 0
 165.512 49 l 0
 161.512 37 161.512 28 177.512 28 c 0
 214.512 28 l 0
 224.512 28 224.512 25 221.512 14 c 0
 218.512 2 214.512 0 209.512 0 c 0
 59.512 0 l 0
 50.512 0 47.512 2 52.512 14 c 0
 56.512 26 58.512 28 67.512 28 c 0
 89.512 28 l 0
 109.512 28 111.512 34 115.512 47 c 0
 121.512 66 l 0
 126.512 83 122.512 87 111.512 87 c 0
 7.51199 87 l 0
 3.51199 87 -0.488007 91 -0.488007 96 c 0
 -0.488007 101 2.51199 105 6.51199 109 c 0
 52.512 154 86.512 208 112.512 283 c 0
 113.512 288 115.512 290 120.512 290 c 0
 130.512 290 134.512 285 150.512 285 c 0
 168.512 285 174.512 290 182.512 290 c 0
 190.512 290 188.512 283 184.512 275 c 0
 148.512 217 107.512 171 71.512 138 c 0
 54.512 123 52.512 115 75.512 115 c 0
 115.512 115 l 0
 135.512 115 138.512 119 144.512 135 c 0
 151.512 154 l 0
 155.512 163 157.512 166 164.512 171 c 0
 175.512 179 188.512 190 199.512 200 c 0
 207.512 207 214.512 202 211.512 193 c 0
 192.512 136 l 0
 188.512 122 190.512 115 202.512 115 c 0
 252.512 115 l 0
 262.512 115 263.512 113 260.512 101 c 0
 256.512 88 254.512 87 245.512 87 c 0
EndSplineSet
Validated: 1
EndChar

StartChar: adieresis
Encoding: 228 228 123
Width: 258
Flags: W
HStem: -4 28<68.9032 129.644> 77 20G<37.148 56.648> 155 28<94.0152 153.823> 236 46<97.1058 215.695> 238 52<91.148 158.376 161.422 219.411>
VStem: 10.148 58<24.4111 78.9515> 162.148 54<50.4533 151.004>
LayerCount: 2
Fore
SplineSet
216.148 105 m 0xee
 216.148 34 154.148 -4 97.148 -4 c 0
 50.148 -4 10.148 24 10.148 58 c 0
 10.148 81 27.148 97 47.148 97 c 0
 66.148 97 77.148 83 77.148 65 c 0
 77.148 46 68.148 43 68.148 35 c 0
 68.148 26 79.148 24 97.148 24 c 0
 134.148 24 162.148 72 162.148 116 c 0
 162.148 143 146.148 155 116.148 155 c 0
 101.148 155 78.148 151 64.148 147 c 0
 58.148 145 47.148 147 50.148 154 c 0
 68.148 203 74.148 233 84.148 283 c 0
 85.148 287 87.148 290 91.148 290 c 0xee
 97.148 290 122.148 282 160.148 282 c 0xf6
 187.148 282 226.148 290 232.148 290 c 0xee
 242.148 290 237.148 278 233.148 274 c 0
 214.148 248 176.148 236 142.148 236 c 0xf6
 133.148 236 125.148 238 115.148 238 c 0
 108.148 238 103.148 233 100.148 224 c 0
 96.148 213 94.148 205 90.148 191 c 0
 89.148 187 88.148 180 96.148 180 c 0
 105.148 180 114.148 183 134.148 183 c 0
 183.148 183 216.148 150 216.148 105 c 0xee
EndSplineSet
Validated: 1
EndChar

StartChar: aring
Encoding: 229 229 124
Width: 254
Flags: W
HStem: -4 27<72.1732 130.535> 135 28<85.6312 147.861> 268 26<134.349 188.934>
VStem: 15 46<27.68 150.749> 156 56<39.958 131.51> 179 65<202.989 251.718>
LayerCount: 2
Fore
SplineSet
118 135 m 0xf8
 88 135 74 125.333 67 103 c 0
 63.6562 92.3311 61 81 61 71 c 0
 61 47 72 23 101 23 c 0
 135 23 156 67 156 96 c 0
 156 122 138 135 118 135 c 0xf8
173 268 m 0
 125.5 268 96 222 83 176 c 0
 81 169 81 159 90 159 c 0
 101 159 111 163 128 163 c 0
 171 163 212 139 212 93 c 0xf8
 212 34 155 -4 103 -4 c 0
 55 -4 15 31 15 103 c 0
 15 184 83 294 177 294 c 0
 217 294 244 270 244 241 c 0
 244 219 231 200 207 200 c 0
 190 200 179 214 179 227 c 0xf4
 179 239 185 246 188 252 c 0
 193 262 189 268 173 268 c 0
EndSplineSet
Validated: 1
EndChar

StartChar: ae
Encoding: 230 230 125
Width: 246
Flags: W
HStem: 179 21G<33 48.5> 202 42<177.884 197.998> 233 54<84.4321 160> 274 20G<65.5 82.5 252.5 265>
VStem: 31 81<3.13913 39.9238> 32 27<179.037 218.792> 56 29<273 293.997> 239 30<256.917 293.881>
LayerCount: 2
Fore
SplineSet
191 202 m 0xd5
 184 202 174 198 168 198 c 0
 140 198 138 233 105 233 c 0
 79 233 67 219 59 194 c 0
 54 181 53 179 44 179 c 0
 38 179 l 0
 28 179 28 182 32 194 c 0xa5
 56 279 l 0
 60 291 60 294 71 294 c 0
 79 294 l 0x93
 86 294 87 290 85 284 c 0
 83 273 l 0
 79 253 93 255 108 270 c 0
 120 282 128 287 145 287 c 0xa3
 175 287 181 244 204 244 c 0
 221 244 231 258 239 279 c 0
 244 293 246 294 259 294 c 0
 271 294 272 291 269 282 c 0
 231 143 134 90 112 6 c 0
 110 -1 109 -2 105 -2 c 0
 94 -2 90 3 73 3 c 0
 51 3 49 -2 39 -2 c 0
 35 -2 31 0 31 4 c 0xd9
 31 5 31 6 32 7 c 0
 84 108 148 121 193 184 c 0
 197 190 198 193 198 197 c 0
 198 201 195 202 191 202 c 0xd5
EndSplineSet
Validated: 1
EndChar

StartChar: ccedilla
Encoding: 231 231 126
Width: 265
Flags: W
HStem: -3 28<65.2878 154.346> 267 27<119.511 205.726>
VStem: 10 33<42.7856 115.353> 67 46<192.725 263.26> 168 48<32.8924 109.827> 222 33<182.461 253.721>
LayerCount: 2
Fore
SplineSet
255 219 m 0
 255 199 242 176 224 162 c 0
 200 143 197 141 208 115 c 0
 213 103 216 90 216 79 c 0
 216 30 165 -3 108 -3 c 0
 59 -3 10 29 10 78 c 0
 10 106 31 134 66 153 c 0
 83 162 83 168 76 186 c 0
 72 196 67 211 67 222 c 0
 67 264 107 294 161 294 c 0
 217 294 255 262 255 219 c 0
198 177 m 0
 210 183 222 198 222 220 c 0
 222 249 196 267 163 267 c 0
 133 267 113 258 113 235 c 0
 113 217 129 196 148 180 c 0
 164 167 180 167 198 177 c 0
110 25 m 0
 148 25 168 44 168 64 c 0
 168 90 148 110 128 126 c 0
 114 137 98 137 81 130 c 0
 59 120 43 102 43 78 c 0
 43 45 76 25 110 25 c 0
EndSplineSet
Validated: 33
EndChar

StartChar: egrave
Encoding: 232 232 127
Width: 250
Flags: W
HStem: -4 29<57.5 122.999> 127 27<105.401 165.808> 268 26<126.819 183.04>
VStem: 10 67<25.5448 75.5129> 45 54<156.666 248.383> 193 47<163.16 264.652>
LayerCount: 2
Fore
SplineSet
138 154 m 0xec
 167 154 181 163 188 187 c 0
 191 199 193 211 193 221 c 0
 193 245 183 268 155 268 c 0
 121 268 99 220 99 192 c 0
 99 165 112 154 138 154 c 0xec
146 63 m 0
 156 76 162 92 167 109 c 0
 169 116 170 128 159 128 c 0
 148 128 142 127 125 127 c 0
 82 127 45 146 45 194 c 0xec
 45 254 99 294 151 294 c 0
 198 294 240 264 240 200 c 0
 240 108 168 -4 77 -4 c 0
 38 -4 10 15 10 42 c 0
 10 63 24 78 46 78 c 0
 61 78 73 68 77 54 c 0xf4
 80 40 75 25 89 25 c 0
 111 25 134 45 146 63 c 0
EndSplineSet
Validated: 1
EndChar

StartChar: ampersand
Encoding: 38 38 128
Width: 557
Flags: W
HStem: 360 20G<100.5 146 196 238 296 361 411 456.5>
VStem: 0 37<-148.609 163.94> 196 42<-100.132 86.6562 174.912 380> 319 42<-380 -174.914 -86.7188 101.133> 520 37<-163.192 149.397>
LayerCount: 2
Fore
SplineSet
196 380 m 0
 238 380 l 0
 238 188 l 0
 238 179 249 173 257 175 c 0
 361 207 l 0
 361 -380 l 0
 319 -380 l 0
 319 -188 l 0
 319 -181 309 -173 301 -175 c 0
 196 -207 l 0
 196 380 l 0
325 90 m 0
 325 97 314 104 306 101 c 0
 246 83 l 0
 240 81 232 74 232 67 c 0
 232 -87 l 0
 232 -94 242 -103 253 -100 c 0
 311 -83 l 0
 320 -80 325 -74 325 -64 c 0
 325 90 l 0
557 -4 m 0
 558 -192 484 -335 429 -401 c 0
 411 -383 l 0
 466 -295 521 -190 520 -4 c 0
 520 180 466 285 411 373 c 0
 429 391 l 0
 484 325 557 182 557 -4 c 0
0 5 m 0
 -1 193 73 335 128 401 c 0
 146 383 l 0
 91 295 36 191 37 5 c 0
 37 -179 91 -285 146 -373 c 0
 128 -391 l 0
 73 -325 0 -181 0 5 c 0
EndSplineSet
Validated: 33
EndChar

StartChar: quotesingle
Encoding: 39 39 129
Width: 511
Flags: W
HStem: 433 57G<92 132 179 236 284.5 317 379 419>
VStem: 0 35<-8.38977 262.224> 179 57<141.004 490> 179 30<-107.181 103.164> 476 35<-12.2241 258.39>
LayerCount: 2
Fore
SplineSet
476 125 m 0xc8
 476 269 424 369 379 437 c 0
 396 453 l 0
 442 398 511 288 511 125 c 0
 512 -38 442 -148 396 -203 c 0
 379 -187 l 0
 424 -119 477 -19 476 125 c 0xc8
35 125 m 0
 35 -19 87 -119 132 -187 c 0
 115 -203 l 0
 69 -148 0 -38 0 125 c 0
 -1 288 69 398 115 453 c 0
 132 437 l 0
 87 369 34 269 35 125 c 0
217 98 m 0
 213 94 209 87 209 81 c 0
 209 -100 l 0xd8
 209 -106 222 -111 228 -107 c 0
 283 -69 310 -10 299 53 c 0
 288 122 245 122 217 98 c 0
236 490 m 0xe8
 236 154 l 0xe8
 236 147 246 141 253 141 c 0
 261 141 278 146 291 146 c 0
 343 146 387 115 387 54 c 0
 387 -27 287 -98 242 -137 c 0
 189 -182 l 0
 180 -189 179 -188 179 -175 c 0xd8
 179 490 l 0
 236 490 l 0xe8
EndSplineSet
Validated: 33
EndChar

StartChar: parenleft
Encoding: 40 40 130
Width: 542
Flags: W
HStem: 344 20G<100.5 146 200 239 303 342 359 386 396 441.5>
VStem: 0 37<-163.609 148.94> 200 39<-385 -194.913 -82.6875 56.0872 164.912 364> 303 39<-364 -164.912 -56.0872 84.0886 194.913 385> 505 37<-148.192 164.397>
LayerCount: 2
Fore
SplineSet
306 -57 m 0
 306 73 l 0
 306 81 294 86 286 84 c 0
 246 72 l 0
 240 71 236 65 236 57 c 0
 236 -73 l 0
 236 -81 248 -87 256 -84 c 0
 296 -72 l 0
 302 -70 306 -65 306 -57 c 0
338 88 m 0
 338 -43 l 0
 338 -51 346 -58 353 -56 c 0
 386 -46 l 0
 386 -136 l 0
 360 -143 l 0
 347 -147 342 -154 342 -166 c 0
 342 -364 l 0
 303 -364 l 0
 303 -177 l 0
 303 -169 293 -163 286 -165 c 0
 252 -175 l 0
 242 -178 239 -183 239 -191 c 0
 239 -385 l 0
 200 -385 l 0
 200 -208 l 0
 200 -200 190 -193 183 -195 c 0
 156 -203 l 0
 156 -113 l 0
 192 -103 l 0
 199 -101 204 -96 204 -88 c 0
 204 43 l 0
 204 51 196 58 189 56 c 0
 156 46 l 0
 156 136 l 0
 182 143 l 0
 195 147 200 154 200 166 c 0
 200 364 l 0
 239 364 l 0
 239 177 l 0
 239 169 249 163 256 165 c 0
 290 175 l 0
 300 178 303 183 303 191 c 0
 303 385 l 0
 342 385 l 0
 342 208 l 0
 342 200 352 193 359 195 c 0
 386 203 l 0
 386 113 l 0
 350 103 l 0
 343 101 338 96 338 88 c 0
542 11 m 0
 543 -177 469 -320 414 -386 c 0
 396 -368 l 0
 451 -280 506 -175 505 11 c 0
 505 195 451 300 396 388 c 0
 414 406 l 0
 469 340 542 197 542 11 c 0
0 -10 m 0
 -1 178 73 320 128 386 c 0
 146 368 l 0
 91 280 36 176 37 -10 c 0
 37 -194 91 -300 146 -388 c 0
 128 -406 l 0
 73 -340 0 -196 0 -10 c 0
EndSplineSet
Validated: 33
EndChar

StartChar: parenright
Encoding: 41 41 131
Width: 701
Flags: W
HStem: 433 57G<92 132 179 236 284.5 303 375 432 480.5 513 569 609>
VStem: 0 35<-8.38977 262.224> 179 57<141.004 490> 179 30<-107.181 103.164> 375 57<141.004 490> 375 30<-107.181 -31.9097> 405 178<-27 87> 666 35<-12.2241 258.39>
LayerCount: 2
Fore
SplineSet
666 125 m 0xc1
 666 269 614 369 569 437 c 0
 586 453 l 0
 632 398 701 288 701 125 c 0
 702 -38 632 -148 586 -203 c 0
 569 -187 l 0
 614 -119 667 -19 666 125 c 0xc1
35 125 m 0
 35 -19 87 -119 132 -187 c 0
 115 -203 l 0
 69 -148 0 -38 0 125 c 0
 -1 288 69 398 115 453 c 0
 132 437 l 0
 87 369 34 269 35 125 c 0
413 98 m 0
 409 94 405 87 405 81 c 0xc3
 405 -100 l 0xc5
 405 -106 418 -111 424 -107 c 0
 479 -69 506 -10 495 53 c 0
 484 122 441 122 413 98 c 0
217 98 m 0
 213 94 209 87 209 81 c 0
 209 -100 l 0xd1
 209 -106 222 -111 228 -107 c 0
 283 -69 310 -10 299 53 c 0
 288 122 245 122 217 98 c 0
236 490 m 0xe1
 236 154 l 0
 236 147 246 141 253 141 c 0
 261 141 278 146 291 146 c 0
 315 146 336 140 353 127 c 0
 362 120 375 127 375 136 c 0xe5
 375 490 l 0
 432 490 l 0
 432 154 l 0xc9
 432 147 442 141 449 141 c 0
 457 141 474 146 487 146 c 0
 539 146 583 115 583 54 c 0xc3
 583 -27 483 -98 438 -137 c 0
 385 -182 l 0
 376 -189 375 -188 375 -175 c 0
 375 -40 l 0
 375 -28 359 -24 351 -34 c 0
 318 -77 270 -113 242 -137 c 0
 189 -182 l 0
 180 -189 179 -188 179 -175 c 0xd5
 179 490 l 0
 236 490 l 0xe1
EndSplineSet
Validated: 33
EndChar

StartChar: plus
Encoding: 43 43 132
Width: 405
Flags: W
HStem: -498 30<30 145 260 375> 387 20G<120 162 220 285> 468 30<30 145 260 375>
VStem: 0 30<-468 468> 120 42<-113.132 99.6562 190.912 407> 243 42<-407 -190.914 -99.7188 114.133> 375 30<-468 468>
LayerCount: 2
Fore
SplineSet
375 -457 m 0
 375 456 l 0
 375 462 368 468 364 468 c 0
 260 468 l 0
 260 498 l 0
 405 498 l 0
 405 -498 l 0
 260 -498 l 0
 260 -468 l 0
 364 -468 l 0
 369 -468 375 -461 375 -457 c 0
30 457 m 0
 30 -456 l 0
 30 -462 37 -468 41 -468 c 0
 145 -468 l 0
 145 -498 l 0
 0 -498 l 0
 0 498 l 0
 145 498 l 0
 145 468 l 0
 41 468 l 0
 36 468 30 461 30 457 c 0
120 407 m 0
 162 407 l 0
 162 204 l 0
 162 195 173 189 181 191 c 0
 285 223 l 0
 285 -407 l 0
 243 -407 l 0
 243 -204 l 0
 243 -197 233 -189 225 -191 c 0
 120 -223 l 0
 120 407 l 0
249 103 m 0
 249 110 238 117 230 114 c 0
 170 96 l 0
 164 94 156 87 156 80 c 0
 156 -100 l 0
 156 -107 166 -116 177 -113 c 0
 235 -96 l 0
 244 -93 249 -87 249 -77 c 0
 249 103 l 0
EndSplineSet
Validated: 1
EndChar

StartChar: comma
Encoding: 44 44 133
Width: 413
Flags: W
HStem: -246 30<30 135 278 383> 470 20G<115 172 220.5 253> 540 30<30 135 278 383>
VStem: 0 30<-216 540> 115 57<141.004 490> 115 30<-107.181 103.164> 383 30<-216 540>
LayerCount: 2
Fore
SplineSet
383 -205 m 0xf2
 383 528 l 0
 383 534 376 540 372 540 c 0
 278 540 l 0
 278 570 l 0
 413 570 l 0
 413 -246 l 0
 278 -246 l 0
 278 -216 l 0
 372 -216 l 0
 377 -216 383 -209 383 -205 c 0xf2
30 529 m 0
 30 -204 l 0
 30 -210 37 -216 41 -216 c 0
 135 -216 l 0
 135 -246 l 0
 0 -246 l 0
 0 570 l 0
 135 570 l 0
 135 540 l 0
 41 540 l 0
 36 540 30 533 30 529 c 0
153 98 m 0
 149 94 145 87 145 81 c 0
 145 -100 l 0xf6
 145 -106 158 -111 164 -107 c 0
 219 -69 246 -10 235 53 c 0
 224 122 181 122 153 98 c 0
172 490 m 0xfa
 172 154 l 0xfa
 172 147 182 141 189 141 c 0
 197 141 214 146 227 146 c 0
 279 146 323 115 323 54 c 0
 323 -27 223 -98 178 -137 c 0
 125 -182 l 0
 116 -189 115 -188 115 -175 c 0xf6
 115 490 l 0
 172 490 l 0xfa
EndSplineSet
Validated: 33
EndChar

StartChar: hyphen
Encoding: 45 45 134
Width: 440
Flags: W
HStem: -468 30<30 145 295 410> 344 20G<144 183 247 286 303 330> 438 30<30 145 295 410>
VStem: 0 30<-438 438> 144 39<-385 -209.913 -97.6875 71.0872 179.912 364> 247 39<-364 -179.912 -71.0872 99.0886 209.913 385> 410 30<-438 438>
LayerCount: 2
Fore
SplineSet
410 -427 m 0
 410 426 l 0
 410 432 403 438 399 438 c 0
 295 438 l 0
 295 468 l 0
 440 468 l 0
 440 -468 l 0
 295 -468 l 0
 295 -438 l 0
 399 -438 l 0
 404 -438 410 -431 410 -427 c 0
30 427 m 0
 30 -426 l 0
 30 -432 37 -438 41 -438 c 0
 145 -438 l 0
 145 -468 l 0
 0 -468 l 0
 0 468 l 0
 145 468 l 0
 145 438 l 0
 41 438 l 0
 36 438 30 431 30 427 c 0
250 -72 m 0
 250 88 l 0
 250 96 238 101 230 99 c 0
 190 87 l 0
 184 86 180 80 180 72 c 0
 180 -88 l 0
 180 -96 192 -102 200 -99 c 0
 240 -87 l 0
 246 -85 250 -80 250 -72 c 0
282 103 m 0
 282 -58 l 0
 282 -66 290 -73 297 -71 c 0
 330 -61 l 0
 330 -151 l 0
 304 -158 l 0
 291 -162 286 -169 286 -181 c 0
 286 -364 l 0
 247 -364 l 0
 247 -192 l 0
 247 -184 237 -178 230 -180 c 0
 196 -190 l 0
 186 -193 183 -198 183 -206 c 0
 183 -385 l 0
 144 -385 l 0
 144 -223 l 0
 144 -215 134 -208 127 -210 c 0
 100 -218 l 0
 100 -128 l 0
 136 -118 l 0
 143 -116 148 -111 148 -103 c 0
 148 58 l 0
 148 66 140 73 133 71 c 0
 100 61 l 0
 100 151 l 0
 126 158 l 0
 139 162 144 169 144 181 c 0
 144 364 l 0
 183 364 l 0
 183 192 l 0
 183 184 193 178 200 180 c 0
 234 190 l 0
 244 193 247 198 247 206 c 0
 247 385 l 0
 286 385 l 0
 286 223 l 0
 286 215 296 208 303 210 c 0
 330 218 l 0
 330 128 l 0
 294 118 l 0
 287 116 282 111 282 103 c 0
EndSplineSet
Validated: 1
EndChar

StartChar: period
Encoding: 46 46 135
Width: 603
Flags: W
HStem: -246 30<30 135 468 573> 470 20G<115 172 220.5 239 311 368 416.5 449> 540 30<30 135 468 573>
VStem: 0 30<-216 540> 115 57<141.004 490> 115 30<-107.181 103.164> 311 57<141.004 490> 311 30<-108.432 -31.9097> 341 178<-27 87> 573 30<-216 540>
LayerCount: 2
Fore
SplineSet
573 -205 m 0xf040
 573 528 l 0
 573 534 566 540 562 540 c 0
 468 540 l 0
 468 570 l 0
 603 570 l 0
 603 -246 l 0
 468 -246 l 0
 468 -216 l 0
 562 -216 l 0
 567 -216 573 -209 573 -205 c 0xf040
30 529 m 0
 30 -204 l 0
 30 -210 37 -216 41 -216 c 0
 135 -216 l 0
 135 -246 l 0
 0 -246 l 0
 0 570 l 0
 135 570 l 0
 135 540 l 0
 41 540 l 0
 36 540 30 533 30 529 c 0
349 98 m 0
 345 94 341 87 341 81 c 0xf0c0
 341 -100 l 0xf140
 341 -106 354 -111 360 -107 c 0
 415 -69 442 -10 431 53 c 0
 420 122 377 122 349 98 c 0
153 98 m 0
 149 94 145 87 145 81 c 0
 145 -100 l 0xf440
 145 -106 158 -111 164 -107 c 0
 219 -69 246 -10 235 53 c 0
 224 122 181 122 153 98 c 0
172 490 m 0xf840
 172 154 l 0
 172 147 182 141 189 141 c 0
 197 141 214 146 227 146 c 0
 251 146 272 140 289 127 c 0
 298 120 311 127 311 136 c 0xf940
 311 490 l 0
 368 490 l 0
 368 154 l 0xf240
 368 147 378 141 385 141 c 0
 393 141 410 146 423 146 c 0
 475 146 519 115 519 54 c 0xf0c0
 519 -27 419 -98 374 -137 c 0
 321 -182 l 0
 312 -189 311 -188 311 -175 c 0
 311 -40 l 0
 311 -28 295 -24 287 -34 c 0
 254 -77 206 -113 178 -137 c 0
 125 -182 l 0
 116 -189 115 -188 115 -175 c 0xf540
 115 490 l 0
 172 490 l 0xf840
EndSplineSet
Validated: 33
EndChar

StartChar: slash
Encoding: 47 47 136
Width: 442
Flags: W
HStem: -218 27<27 115 327 415> -134 96<102.553 184.261 263.739 345.447> -30 60<194.3 253.7> 38 96<102.553 184.261 263.739 345.447> 191 27<27 115 327 415>
VStem: 0 115<-218 -191 191 218> 0 27<-191 191> 90 96<-121.447 -39.7394 39.7394 121.447> 194 60<-29.6999 29.6999> 262 96<-121.447 -39.7394 39.7394 121.447> 327 115<-218 -191 191 218> 415 27<-191 191>
LayerCount: 2
Fore
SplineSet
415 -180 m 0xf890
 415 179 l 0xf890
 415 185 408 191 404 191 c 0
 327 191 l 0
 327 218 l 0
 442 218 l 0
 442 -218 l 0
 327 -218 l 0
 327 -191 l 0xf8a0
 404 -191 l 0
 409 -191 415 -184 415 -180 c 0xf890
27 180 m 0xfa80
 27 -179 l 0xfa80
 27 -185 34 -191 38 -191 c 0
 115 -191 l 0
 115 -218 l 0
 0 -218 l 0
 0 218 l 0
 115 218 l 0
 115 191 l 0xfc80
 38 191 l 0
 33 191 27 184 27 180 c 0xfa80
254 0 m 0
 254 -30 283 -38 345 -38 c 0
 348 -75 355 -119 358 -134 c 0
 343 -131 299 -124 262 -121 c 0
 262 -59 254 -30 224 -30 c 0
 194 -30 186 -59 186 -121 c 0
 149 -124 105 -131 90 -134 c 0
 93 -119 100 -75 103 -38 c 0
 165 -38 194 -30 194 0 c 0
 194 30 165 38 103 38 c 0
 100 75 93 119 90 134 c 0
 105 131 149 124 186 121 c 0
 186 59 194 30 224 30 c 0
 254 30 262 59 262 121 c 0
 299 124 343 131 358 134 c 0xf9c0
 355 119 348 75 345 38 c 0
 283 38 254 30 254 0 c 0
EndSplineSet
Validated: 1
EndChar

StartChar: w
Encoding: 119 119 137
Width: 434
Flags: W
HStem: -140 280<137 297>
VStem: 0 434<-108 108>
LayerCount: 2
Fore
SplineSet
0 -2 m 0
 0 108 137 140 222 140 c 0
 304 140 434 110 434 2 c 0
 434 -108 297 -140 212 -140 c 0
 130 -140 -0 -110 0 -2 c 0
290 52 m 0
 278 97 236 122 181 115 c 0
 103 106 115 43 130 -7 c 0
 144 -52 l 0
 156 -93 198 -122 253 -115 c 0
 331 -105 318 -43 304 4 c 0
 290 52 l 0
EndSplineSet
Validated: 33
EndChar

StartChar: x
Encoding: 120 120 138
Width: 739
Flags: W
HStem: 470 20G<100.5 146 196 238 296 361 406 463 511.5 544 593 638.5>
VStem: 0 37<-84.6093 227.94> 196 42<-100.132 86.6562 174.912 380> 319 42<-380 -174.914 -86.7188 101.133> 406 57<141.004 490> 406 30<-107.181 103.164> 702 37<-89.1919 223.397>
LayerCount: 2
Fore
SplineSet
444 98 m 0xf6
 440 94 436 87 436 81 c 0
 436 -100 l 0
 436 -106 449 -111 455 -107 c 0
 510 -69 537 -10 526 53 c 0
 515 122 472 122 444 98 c 0xf6
463 490 m 0xfa
 463 154 l 0xfa
 463 147 473 141 480 141 c 0
 488 141 505 146 518 146 c 0
 570 146 614 115 614 54 c 0
 614 -27 514 -98 469 -137 c 0
 416 -182 l 0
 407 -189 406 -188 406 -175 c 0xf6
 406 490 l 0
 463 490 l 0xfa
196 380 m 0
 238 380 l 0
 238 188 l 0
 238 179 249 173 257 175 c 0
 361 207 l 0
 361 -380 l 0
 319 -380 l 0
 319 -188 l 0
 319 -181 309 -173 301 -175 c 0
 196 -207 l 0
 196 380 l 0
325 90 m 0
 325 97 314 104 306 101 c 0
 246 83 l 0
 240 81 232 74 232 67 c 0
 232 -87 l 0
 232 -94 242 -103 253 -100 c 0
 311 -83 l 0
 320 -80 325 -74 325 -64 c 0
 325 90 l 0
739 70 m 0
 740 -118 666 -261 611 -327 c 0
 593 -309 l 0
 648 -221 703 -116 702 70 c 0
 702 254 648 359 593 447 c 0
 611 465 l 0
 666 399 739 256 739 70 c 0
0 69 m 0
 -1 257 73 399 128 465 c 0
 146 447 l 0
 91 359 36 255 37 69 c 0
 37 -115 91 -221 146 -309 c 0
 128 -327 l 0
 73 -261 0 -117 0 69 c 0
EndSplineSet
Validated: 33
EndChar

StartChar: y
Encoding: 121 121 139
Width: 784
Flags: W
HStem: 344 36G<100.5 146 196 238 296 361 442 481 545 584 601 628 638 683.5>
VStem: 0 37<-148.609 163.94> 196 42<-100.132 86.6562 174.912 380> 319 42<-380 -174.914 -86.7188 101.133> 442 39<-385 -194.913 -82.6875 56.0872 164.912 364> 545 39<-364 -164.912 -56.0872 84.0886 194.913 385> 747 37<-148.192 164.397>
LayerCount: 2
Fore
SplineSet
548 -57 m 0
 548 73 l 0
 548 81 536 86 528 84 c 0
 488 72 l 0
 482 71 478 65 478 57 c 0
 478 -73 l 0
 478 -81 490 -87 498 -84 c 0
 538 -72 l 0
 544 -70 548 -65 548 -57 c 0
580 88 m 0
 580 -43 l 0
 580 -51 588 -58 595 -56 c 0
 628 -46 l 0
 628 -136 l 0
 602 -143 l 0
 589 -147 584 -154 584 -166 c 0
 584 -364 l 0
 545 -364 l 0
 545 -177 l 0
 545 -169 535 -163 528 -165 c 0
 494 -175 l 0
 484 -178 481 -183 481 -191 c 0
 481 -385 l 0
 442 -385 l 0
 442 -208 l 0
 442 -200 432 -193 425 -195 c 0
 398 -203 l 0
 398 -113 l 0
 434 -103 l 0
 441 -101 446 -96 446 -88 c 0
 446 43 l 0
 446 51 438 58 431 56 c 0
 398 46 l 0
 398 136 l 0
 424 143 l 0
 437 147 442 154 442 166 c 0
 442 364 l 0
 481 364 l 0
 481 177 l 0
 481 169 491 163 498 165 c 0
 532 175 l 0
 542 178 545 183 545 191 c 0
 545 385 l 0
 584 385 l 0
 584 208 l 0
 584 200 594 193 601 195 c 0
 628 203 l 0
 628 113 l 0
 592 103 l 0
 585 101 580 96 580 88 c 0
196 380 m 0
 238 380 l 0
 238 188 l 0
 238 179 249 173 257 175 c 0
 361 207 l 0
 361 -380 l 0
 319 -380 l 0
 319 -188 l 0
 319 -181 309 -173 301 -175 c 0
 196 -207 l 0
 196 380 l 0
325 90 m 0
 325 97 314 104 306 101 c 0
 246 83 l 0
 240 81 232 74 232 67 c 0
 232 -87 l 0
 232 -94 242 -103 253 -100 c 0
 311 -83 l 0
 320 -80 325 -74 325 -64 c 0
 325 90 l 0
784 11 m 0
 785 -177 711 -320 656 -386 c 0
 638 -368 l 0
 693 -280 748 -175 747 11 c 0
 747 195 693 300 638 388 c 0
 656 406 l 0
 711 340 784 197 784 11 c 0
0 5 m 0
 -1 193 73 335 128 401 c 0
 146 383 l 0
 91 295 36 191 37 5 c 0
 37 -179 91 -285 146 -373 c 0
 128 -391 l 0
 73 -325 0 -181 0 5 c 0
EndSplineSet
Validated: 33
EndChar

StartChar: z
Encoding: 122 122 140
Width: 624
Flags: W
HStem: -324 30<30 135 489 594> 126 254G<115 157 215 280 431.5 464> 462 30<30 135 489 594>
VStem: 0 30<-294 462> 115 42<-108.132 94.6562 185.912 380> 238 42<-380 -185.914 -94.7188 109.133> 326 57<141.004 490> 326 30<-107.181 103.164> 594 30<-294 462>
LayerCount: 2
Fore
SplineSet
364 98 m 0xfd80
 360 94 356 87 356 81 c 0
 356 -100 l 0
 356 -106 369 -111 375 -107 c 0
 430 -69 457 -10 446 53 c 0
 435 122 392 122 364 98 c 0xfd80
383 490 m 0xfe80
 383 154 l 0xfe80
 383 147 393 141 400 141 c 0
 408 141 425 146 438 146 c 0
 490 146 534 115 534 54 c 0
 534 -27 434 -98 389 -137 c 0
 336 -182 l 0
 327 -189 326 -188 326 -175 c 0xfd80
 326 490 l 0
 383 490 l 0xfe80
115 380 m 0
 157 380 l 0
 157 199 l 0
 157 190 168 184 176 186 c 0
 280 218 l 0
 280 -380 l 0
 238 -380 l 0
 238 -199 l 0
 238 -192 228 -184 220 -186 c 0
 115 -218 l 0
 115 380 l 0
244 98 m 0
 244 105 233 112 225 109 c 0
 165 91 l 0
 159 89 151 82 151 75 c 0
 151 -95 l 0
 151 -102 161 -111 172 -108 c 0
 230 -91 l 0
 239 -88 244 -82 244 -72 c 0
 244 98 l 0
594 -283 m 0
 594 450 l 0
 594 456 587 462 583 462 c 0
 489 462 l 0
 489 492 l 0
 624 492 l 0
 624 -324 l 0
 489 -324 l 0
 489 -294 l 0
 583 -294 l 0
 588 -294 594 -287 594 -283 c 0
30 451 m 0
 30 -282 l 0
 30 -288 37 -294 41 -294 c 0
 135 -294 l 0
 135 -324 l 0
 0 -324 l 0
 0 492 l 0
 135 492 l 0
 135 462 l 0
 41 462 l 0
 36 462 30 455 30 451 c 0
EndSplineSet
Validated: 33
EndChar

StartChar: dieresis
Encoding: 168 168 141
Width: 430
Flags: W
HStem: -468 30<30 145 285 400> 360 20G<120 162 245.5 310> 438 30<30 145 285 400>
VStem: 0 30<-438 438> 120 42<-93.1319 71.6562 158.912 380> 268 42<-380 -158.914 -71.9062 94.1333> 400 30<-438 438>
LayerCount: 2
Fore
SplineSet
400 -427 m 0
 400 426 l 0
 400 432 393 438 389 438 c 0
 285 438 l 0
 285 468 l 0
 430 468 l 0
 430 -468 l 0
 285 -468 l 0
 285 -438 l 0
 389 -438 l 0
 394 -438 400 -431 400 -427 c 0
30 427 m 0
 30 -426 l 0
 30 -432 37 -438 41 -438 c 0
 145 -438 l 0
 145 -468 l 0
 0 -468 l 0
 0 468 l 0
 145 468 l 0
 145 438 l 0
 41 438 l 0
 36 438 30 431 30 427 c 0
120 380 m 0
 162 380 l 0
 162 172 l 0
 162 163 173 157 181 159 c 0
 310 199 l 0
 310 -380 l 0
 268 -380 l 0
 268 -172 l 0
 268 -165 258 -157 250 -159 c 0
 120 -199 l 0
 120 380 l 0
274 83 m 0
 274 90 263 97 255 94 c 0
 170 68 l 0
 164 66 156 59 156 52 c 0
 156 -80 l 0
 156 -87 166 -96 177 -93 c 0
 260 -68 l 0
 269 -65 274 -59 274 -49 c 0
 274 83 l 0
EndSplineSet
Validated: 1
EndChar

StartChar: copyright
Encoding: 169 169 142
Width: 435
Flags: W
HStem: -246 30<30 135 300 405> 470 20G<115 172 240.5 280> 540 30<30 135 300 405>
VStem: 0 30<-216 540> 115 57<139.004 490> 115 30<-103.182 95.5639> 405 30<-216 540>
LayerCount: 2
Fore
SplineSet
405 -205 m 0xf2
 405 528 l 0
 405 534 398 540 394 540 c 0
 300 540 l 0
 300 570 l 0
 435 570 l 0
 435 -246 l 0
 300 -246 l 0
 300 -216 l 0
 394 -216 l 0
 399 -216 405 -209 405 -205 c 0xf2
30 529 m 0
 30 -204 l 0
 30 -210 37 -216 41 -216 c 0
 135 -216 l 0
 135 -246 l 0
 0 -246 l 0
 0 570 l 0
 135 570 l 0
 135 540 l 0
 41 540 l 0
 36 540 30 533 30 529 c 0
151 88 m 0
 147 84 145 79 145 73 c 0
 145 -96 l 0xf6
 145 -104 158 -107 164 -103 c 0
 224 -61 270 -25 256 56 c 0
 245 124 185 123 151 88 c 0
115 490 m 0xfa
 172 490 l 0
 172 152 l 0xfa
 172 144 183 139 190 139 c 0
 196 139 226 153 255 153 c 0
 305 153 345 119 345 60 c 0
 345 -27 249 -77 178 -135 c 0
 125 -178 l 0
 116 -185 115 -184 115 -171 c 0xf6
 115 490 l 0xfa
EndSplineSet
Validated: 33
EndChar

StartChar: ordfeminine
Encoding: 170 170 143
Width: 453
Flags: W
HStem: -448 30<30 145 308 423> 323 20G<147 186 267 306 323 353> 418 30<30 145 308 423>
VStem: 0 30<-418 418> 147 39<-368 -191.913 -83.0879 50.0872 157.912 343> 267 39<-343 -157.912 -50.0872 83.0879 191.913 368> 423 30<-418 418>
LayerCount: 2
Fore
SplineSet
423 -407 m 0
 423 406 l 0
 423 412 416 418 412 418 c 0
 308 418 l 0
 308 448 l 0
 453 448 l 0
 453 -448 l 0
 308 -448 l 0
 308 -418 l 0
 412 -418 l 0
 417 -418 423 -411 423 -407 c 0
30 407 m 0
 30 -406 l 0
 30 -412 37 -418 41 -418 c 0
 145 -418 l 0
 145 -448 l 0
 0 -448 l 0
 0 448 l 0
 145 448 l 0
 145 418 l 0
 41 418 l 0
 36 418 30 411 30 407 c 0
302 -37 m 0
 302 -45 311 -52 318 -50 c 0
 353 -39 l 0
 353 -127 l 0
 324 -136 l 0
 311 -140 306 -146 306 -158 c 0
 306 -343 l 0
 267 -343 l 0
 267 -170 l 0
 267 -162 256 -156 249 -158 c 0
 200 -172 l 0
 190 -175 186 -181 186 -189 c 0
 186 -368 l 0
 147 -368 l 0
 147 -205 l 0
 147 -197 137 -190 130 -192 c 0
 100 -201 l 0
 100 -113 l 0
 140 -101 l 0
 147 -99 151 -94 151 -86 c 0
 151 37 l 0
 151 45 142 52 135 50 c 0
 100 39 l 0
 100 127 l 0
 129 136 l 0
 142 140 147 146 147 158 c 0
 147 343 l 0
 186 343 l 0
 186 170 l 0
 186 162 197 156 204 158 c 0
 253 172 l 0
 263 175 267 181 267 189 c 0
 267 368 l 0
 306 368 l 0
 306 205 l 0
 306 197 316 190 323 192 c 0
 353 201 l 0
 353 113 l 0
 313 101 l 0
 306 99 302 94 302 86 c 0
 302 -37 l 0
270 71 m 0
 270 79 258 85 250 83 c 0
 193 67 l 0
 187 65 183 59 183 51 c 0
 183 -71 l 0
 183 -79 196 -85 202 -83 c 0
 260 -67 l 0
 266 -65 270 -59 270 -51 c 0
 270 71 l 0
EndSplineSet
Validated: 1
EndChar

StartChar: guillemotleft
Encoding: 171 171 144
Width: 647
Flags: W
HStem: -246 30<30 135 512 617> 470 20G<115 172 240.5 263.5 327 384 452.5 492> 540 30<30 135 512 617>
VStem: 0 30<-216 540> 115 57<139.004 490> 115 30<-103.182 95.5639> 327 57<139.004 490> 327 30<-103.182 -31.7059> 357 200<-27 79> 617 30<-216 540>
LayerCount: 2
Fore
SplineSet
617 -205 m 0xf040
 617 528 l 0
 617 534 610 540 606 540 c 0
 512 540 l 0
 512 570 l 0
 647 570 l 0
 647 -246 l 0
 512 -246 l 0
 512 -216 l 0
 606 -216 l 0
 611 -216 617 -209 617 -205 c 0xf040
30 529 m 0
 30 -204 l 0
 30 -210 37 -216 41 -216 c 0
 135 -216 l 0
 135 -246 l 0
 0 -246 l 0
 0 570 l 0
 135 570 l 0
 135 540 l 0
 41 540 l 0
 36 540 30 533 30 529 c 0
363 88 m 0
 359 84 357 79 357 73 c 0xf0c0
 357 -96 l 0xf140
 357 -104 370 -107 376 -103 c 0
 436 -61 482 -25 468 56 c 0
 457 124 397 123 363 88 c 0
151 88 m 0
 147 84 145 79 145 73 c 0
 145 -96 l 0xf440
 145 -104 158 -107 164 -103 c 0
 224 -61 270 -25 256 56 c 0
 245 124 185 123 151 88 c 0
115 490 m 0xf840
 172 490 l 0
 172 152 l 0
 172 144 183 139 190 139 c 0
 196 139 226 153 255 153 c 0
 272 153 288 150 301 142 c 0
 312 136 327 137 327 153 c 0
 327 490 l 0
 384 490 l 0
 384 152 l 0xfa40
 384 144 395 139 402 139 c 0
 408 139 438 153 467 153 c 0
 517 153 557 119 557 60 c 0xf0c0
 557 -27 461 -77 390 -135 c 0
 337 -178 l 0
 328 -185 327 -184 327 -171 c 0
 327 -40 l 0
 327 -31 313 -23 300 -36 c 0
 266 -72 218 -102 178 -135 c 0
 125 -178 l 0
 116 -185 115 -184 115 -171 c 0xf540
 115 490 l 0xf840
EndSplineSet
Validated: 33
EndChar

StartChar: logicalnot
Encoding: 172 172 145
Width: 463
Flags: W
HStem: -218 27<27 115 348 436> -143 100<102.559 189.258 278.742 365.441> -30 60<204.467 263.118> 43 100<102.559 189.258 278.742 365.441> 191 27<27 115 348 436>
VStem: 0 115<-218 -191 191 218> 0 27<-191 191> 91 100<-131.441 -44.7423 44.7423 131.441> 204 60<-29.1177 29.1177> 277 100<-131.441 -44.7423 44.7423 131.441> 348 115<-218 -191 191 218> 436 27<-191 191>
LayerCount: 2
Fore
SplineSet
436 -180 m 0xf890
 436 179 l 0xf890
 436 185 429 191 425 191 c 0
 348 191 l 0
 348 218 l 0
 463 218 l 0
 463 -218 l 0
 348 -218 l 0
 348 -191 l 0xf8a0
 425 -191 l 0
 430 -191 436 -184 436 -180 c 0xf890
27 180 m 0xfa80
 27 -179 l 0xfa80
 27 -185 34 -191 38 -191 c 0
 115 -191 l 0
 115 -218 l 0
 0 -218 l 0
 0 218 l 0
 115 218 l 0
 115 191 l 0xfc80
 38 191 l 0
 33 191 27 184 27 180 c 0xfa80
264 0 m 0
 263 -28 303 -43 365 -43 c 0
 368 -80 374 -128 377 -143 c 0
 362 -140 314 -134 277 -131 c 0
 277 -69 262 -30 234 -30 c 0
 205 -30 191 -69 191 -131 c 0
 154 -134 106 -140 91 -143 c 0
 94 -128 100 -80 103 -43 c 0
 165 -43 204 -28 204 0 c 0
 204 28 165 43 103 43 c 0
 100 80 94 128 91 143 c 0
 106 140 154 134 191 131 c 0
 191 69 205 30 234 30 c 0
 262 30 277 69 277 131 c 0
 314 134 362 140 377 143 c 0xf9c0
 374 128 368 80 365 43 c 0
 303 43 264 28 264 0 c 0
EndSplineSet
Validated: 33
EndChar

StartChar: uni00AD
Encoding: 173 173 146
Width: 674
Flags: W
HStem: -334 30<30 135 539 644> 452 30<30 135 539 644> 470 20G<115 157 240.5 305 354 411 479.5 519>
VStem: 0 30<-304 452> 115 42<-93.1319 71.6562 158.912 380> 263 42<-380 -158.914 -71.9062 94.1333> 354 57<139.004 490> 354 30<-103.182 95.5639> 644 30<-304 452>
LayerCount: 2
Fore
SplineSet
644 -293 m 0xdc80
 644 440 l 0
 644 446 637 452 633 452 c 0
 539 452 l 0
 539 482 l 0
 674 482 l 0
 674 -334 l 0
 539 -334 l 0
 539 -304 l 0
 633 -304 l 0
 638 -304 644 -297 644 -293 c 0xdc80
30 441 m 0
 30 -292 l 0
 30 -298 37 -304 41 -304 c 0
 135 -304 l 0
 135 -334 l 0
 0 -334 l 0
 0 482 l 0
 135 482 l 0
 135 452 l 0
 41 452 l 0
 36 452 30 445 30 441 c 0
390 88 m 0
 386 84 384 79 384 73 c 0
 384 -96 l 0x9d80
 384 -104 397 -107 403 -103 c 0
 463 -61 509 -25 495 56 c 0
 484 124 424 123 390 88 c 0
354 490 m 0xbe80
 411 490 l 0
 411 152 l 0xbe80
 411 144 422 139 429 139 c 0
 435 139 465 153 494 153 c 0
 544 153 584 119 584 60 c 0
 584 -27 488 -77 417 -135 c 0
 364 -178 l 0
 355 -185 354 -184 354 -171 c 0xbd80
 354 490 l 0xbe80
115 380 m 0
 157 380 l 0
 157 172 l 0
 157 163 168 157 176 159 c 0
 305 199 l 0
 305 -380 l 0
 263 -380 l 0
 263 -172 l 0
 263 -165 253 -157 245 -159 c 0
 115 -199 l 0
 115 380 l 0
269 83 m 0
 269 90 258 97 250 94 c 0
 165 68 l 0
 159 66 151 59 151 52 c 0
 151 -80 l 0
 151 -87 161 -96 172 -93 c 0
 255 -68 l 0
 264 -65 269 -59 269 -49 c 0
 269 83 l 0
EndSplineSet
Validated: 33
EndChar

StartChar: registered
Encoding: 174 174 147
Width: 724
Flags: W
HStem: -453 30<30 145 579 694> 323 57G<120 162 245.5 310 398 437 518 557 574 604> 453 30<30 145 579 694>
VStem: 0 30<-423 453> 120 42<-93.1319 71.6562 158.912 380> 268 42<-380 -158.914 -71.9062 94.1333> 398 39<-368 -191.913 -83.0879 50.0872 157.912 343> 518 39<-343 -157.912 -50.0872 83.0879 191.913 368> 694 30<-423 453>
LayerCount: 2
Fore
SplineSet
694 -412 m 0
 694 441 l 0
 694 447 687 453 683 453 c 0
 579 453 l 0
 579 483 l 0
 724 483 l 0
 724 -453 l 0
 579 -453 l 0
 579 -423 l 0
 683 -423 l 0
 688 -423 694 -416 694 -412 c 0
30 442 m 0
 30 -411 l 0
 30 -417 37 -423 41 -423 c 0
 145 -423 l 0
 145 -453 l 0
 0 -453 l 0
 0 483 l 0
 145 483 l 0
 145 453 l 0
 41 453 l 0
 36 453 30 446 30 442 c 0
553 -37 m 0
 553 -45 562 -52 569 -50 c 0
 604 -39 l 0
 604 -127 l 0
 575 -136 l 0
 562 -140 557 -146 557 -158 c 0
 557 -343 l 0
 518 -343 l 0
 518 -170 l 0
 518 -162 507 -156 500 -158 c 0
 451 -172 l 0
 441 -175 437 -181 437 -189 c 0
 437 -368 l 0
 398 -368 l 0
 398 -205 l 0
 398 -197 388 -190 381 -192 c 0
 351 -201 l 0
 351 -113 l 0
 391 -101 l 0
 398 -99 402 -94 402 -86 c 0
 402 37 l 0
 402 45 393 52 386 50 c 0
 351 39 l 0
 351 127 l 0
 380 136 l 0
 393 140 398 146 398 158 c 0
 398 343 l 0
 437 343 l 0
 437 170 l 0
 437 162 448 156 455 158 c 0
 504 172 l 0
 514 175 518 181 518 189 c 0
 518 368 l 0
 557 368 l 0
 557 205 l 0
 557 197 567 190 574 192 c 0
 604 201 l 0
 604 113 l 0
 564 101 l 0
 557 99 553 94 553 86 c 0
 553 -37 l 0
521 71 m 0
 521 79 509 85 501 83 c 0
 444 67 l 0
 438 65 434 59 434 51 c 0
 434 -71 l 0
 434 -79 447 -85 453 -83 c 0
 511 -67 l 0
 517 -65 521 -59 521 -51 c 0
 521 71 l 0
120 380 m 0
 162 380 l 0
 162 172 l 0
 162 163 173 157 181 159 c 0
 310 199 l 0
 310 -380 l 0
 268 -380 l 0
 268 -172 l 0
 268 -165 258 -157 250 -159 c 0
 120 -199 l 0
 120 380 l 0
274 83 m 0
 274 90 263 97 255 94 c 0
 170 68 l 0
 164 66 156 59 156 52 c 0
 156 -80 l 0
 156 -87 166 -96 177 -93 c 0
 260 -68 l 0
 269 -65 274 -59 274 -49 c 0
 274 83 l 0
EndSplineSet
Validated: 1
EndChar

StartChar: exclamdown
Encoding: 161 161 148
Width: 790
Flags: W
HStem: 436 54G<100.5 146 196 238 321.5 386 435 492 560.5 600 644 689.5>
VStem: 0 37<-93.6093 218.94> 196 42<-93.1319 71.6562 158.912 380> 344 42<-380 -158.914 -71.9062 94.1333> 435 57<139.004 490> 435 30<-103.182 95.5639> 753 37<-98.1919 214.397>
LayerCount: 2
Fore
SplineSet
790 61 m 0xf2
 791 -127 717 -270 662 -336 c 0
 644 -318 l 0
 699 -230 754 -125 753 61 c 0
 753 245 699 350 644 438 c 0
 662 456 l 0
 717 390 790 247 790 61 c 0xf2
0 60 m 0
 -1 248 73 390 128 456 c 0
 146 438 l 0
 91 350 36 246 37 60 c 0
 37 -124 91 -230 146 -318 c 0
 128 -336 l 0
 73 -270 0 -126 0 60 c 0
471 88 m 0
 467 84 465 79 465 73 c 0
 465 -96 l 0xf6
 465 -104 478 -107 484 -103 c 0
 544 -61 590 -25 576 56 c 0
 565 124 505 123 471 88 c 0
435 490 m 0xfa
 492 490 l 0
 492 152 l 0xfa
 492 144 503 139 510 139 c 0
 516 139 546 153 575 153 c 0
 625 153 665 119 665 60 c 0
 665 -27 569 -77 498 -135 c 0
 445 -178 l 0
 436 -185 435 -184 435 -171 c 0xf6
 435 490 l 0xfa
196 380 m 0
 238 380 l 0
 238 172 l 0
 238 163 249 157 257 159 c 0
 386 199 l 0
 386 -380 l 0
 344 -380 l 0
 344 -172 l 0
 344 -165 334 -157 326 -159 c 0
 196 -199 l 0
 196 380 l 0
350 83 m 0
 350 90 339 97 331 94 c 0
 246 68 l 0
 240 66 232 59 232 52 c 0
 232 -80 l 0
 232 -87 242 -96 253 -93 c 0
 336 -68 l 0
 345 -65 350 -59 350 -49 c 0
 350 83 l 0
EndSplineSet
Validated: 33
EndChar

StartChar: cent
Encoding: 162 162 149
Width: 836
Flags: W
HStem: 380 6G<100.5 146 196 238 321.5 386 474 513 594 633 650 680 690 735.5>
VStem: 0 37<-148.609 163.94> 196 42<-93.1319 71.6562 158.912 380> 344 42<-380 -158.914 -71.9062 94.1333> 474 39<-368 -191.913 -83.0879 50.0872 157.912 343> 594 39<-343 -157.912 -50.0872 83.0879 191.913 368> 799 37<-148.192 164.397>
LayerCount: 2
Fore
SplineSet
836 11 m 0
 837 -177 763 -320 708 -386 c 0
 690 -368 l 0
 745 -280 800 -175 799 11 c 0
 799 195 745 300 690 388 c 0
 708 406 l 0
 763 340 836 197 836 11 c 0
0 5 m 0
 -1 193 73 335 128 401 c 0
 146 383 l 0
 91 295 36 191 37 5 c 0
 37 -179 91 -285 146 -373 c 0
 128 -391 l 0
 73 -325 0 -181 0 5 c 0
629 -37 m 0
 629 -45 638 -52 645 -50 c 0
 680 -39 l 0
 680 -127 l 0
 651 -136 l 0
 638 -140 633 -146 633 -158 c 0
 633 -343 l 0
 594 -343 l 0
 594 -170 l 0
 594 -162 583 -156 576 -158 c 0
 527 -172 l 0
 517 -175 513 -181 513 -189 c 0
 513 -368 l 0
 474 -368 l 0
 474 -205 l 0
 474 -197 464 -190 457 -192 c 0
 427 -201 l 0
 427 -113 l 0
 467 -101 l 0
 474 -99 478 -94 478 -86 c 0
 478 37 l 0
 478 45 469 52 462 50 c 0
 427 39 l 0
 427 127 l 0
 456 136 l 0
 469 140 474 146 474 158 c 0
 474 343 l 0
 513 343 l 0
 513 170 l 0
 513 162 524 156 531 158 c 0
 580 172 l 0
 590 175 594 181 594 189 c 0
 594 368 l 0
 633 368 l 0
 633 205 l 0
 633 197 643 190 650 192 c 0
 680 201 l 0
 680 113 l 0
 640 101 l 0
 633 99 629 94 629 86 c 0
 629 -37 l 0
597 71 m 0
 597 79 585 85 577 83 c 0
 520 67 l 0
 514 65 510 59 510 51 c 0
 510 -71 l 0
 510 -79 523 -85 529 -83 c 0
 587 -67 l 0
 593 -65 597 -59 597 -51 c 0
 597 71 l 0
196 380 m 0
 238 380 l 0
 238 172 l 0
 238 163 249 157 257 159 c 0
 386 199 l 0
 386 -380 l 0
 344 -380 l 0
 344 -172 l 0
 344 -165 334 -157 326 -159 c 0
 196 -199 l 0
 196 380 l 0
350 83 m 0
 350 90 339 97 331 94 c 0
 246 68 l 0
 240 66 232 59 232 52 c 0
 232 -80 l 0
 232 -87 242 -96 253 -93 c 0
 336 -68 l 0
 345 -65 350 -59 350 -49 c 0
 350 83 l 0
EndSplineSet
Validated: 33
EndChar

StartChar: eacute
Encoding: 233 233 150
Width: 331
Flags: W
HStem: -4 32<80.2566 143.841> 383 32<185.423 251.973>
VStem: 15 57<38.0242 186.979> 260 56<228.525 375.456>
LayerCount: 2
Fore
SplineSet
72 77 m 0
 72 49 83 28 111 28 c 0
 191 28 260 275 260 331 c 0
 260 360 252 383 219 383 c 0
 140 383 72 142 72 77 c 0
219 415 m 0
 291 415 316 353 316 284 c 0
 316 171 230 -4 118 -4 c 0
 43 -4 15 59 15 124 c 0
 15 248 112 415 219 415 c 0
EndSplineSet
Validated: 1
EndChar

StartChar: ecircumflex
Encoding: 234 234 151
Width: 287
Flags: W
HStem: 0 32<20.5828 89.2725 163.609 221.275> 390 20G<210.967 215.967 263.967 269.967>
LayerCount: 2
Fore
SplineSet
204.967 0 m 0
 25.967 0 l 0
 15.967 0 10.967 3 18.967 18 c 0
 24.967 32 27.967 32 36.967 32 c 0
 54.967 32 l 0
 95.967 32 98.967 68 110.967 103 c 0
 166.967 273 l 0
 173.967 297 165.967 300 147.967 281 c 0
 71.967 204 l 0
 63.967 196 59.967 196 50.967 205 c 0
 40.967 214 44.967 218 51.967 227 c 0
 197.967 398 l 0
 206.967 408 208.967 410 212.967 410 c 0
 218.967 410 228.967 402 239.967 402 c 0
 252.967 402 259.967 410 267.967 410 c 0
 271.967 410 273.967 408 269.967 396 c 0
 165.967 65 l 0
 159.967 47 163.967 32 184.967 32 c 0
 212.967 32 l 0
 224.967 32 227.967 32 221.967 17 c 0
 214.967 3 213.967 0 204.967 0 c 0
EndSplineSet
Validated: 33
EndChar

StartChar: edieresis
Encoding: 235 235 152
Width: 350
Flags: W
HStem: -5 21G<23.5 36.5> -4 70<143.995 250.526> 267 21G<114 138.5> 386 29<157.708 248.615>
VStem: 15 31<-4.99705 42.3996> 82 71<292.678 370.594> 266 69<253.145 370.296> 272 31<87.981 130.861>
LayerCount: 2
Fore
SplineSet
293 131 m 0x7d
 306 128 307 127 303 110 c 0
 291 59 256 -4 192 -4 c 0x7d
 139 -4 130 54 90 54 c 0
 65 54 50 35 46 13 c 0
 44 -1 43 -5 30 -5 c 0
 17 -5 15 -2 15 13 c 0
 15 83 77 152 167 194 c 0
 222 221 248 241 262 295 c 0
 265 307 266 318 266 328 c 0
 266 367 241 386 205 386 c 0
 180 386 153 379 153 362 c 0
 153 351 172 339 172 311 c 0
 172 284 151 267 126 267 c 0
 102 267 82 285 82 313 c 0
 82 374 141 415 212 415 c 0
 279 415 335 374 335 304 c 0xbe
 335 234 282 201 234 182 c 0
 192 167 150 154 118 127 c 0
 102 114 100 104 122 97 c 0
 154 87 172 66 205 66 c 0
 234 66 262 82 272 113 c 0
 278 132 280 134 293 131 c 0x7d
EndSplineSet
Validated: 1
EndChar

StartChar: igrave
Encoding: 236 236 153
Width: 353
Flags: W
HStem: -4 32<87.3271 172.252> 125 20G<53 82> 194 31<126.587 197.535> 280 21G<128 153.5> 386 29<169.765 253.256>
VStem: 15 71<34.2502 110.381> 98 87<285.102 369.348> 211 72<62.725 172.369> 267 71<257.235 377.788>
LayerCount: 2
Fore
SplineSet
131 28 m 0xff
 177 28 211 79 211 135 c 0xff
 211 168 198 194 158 194 c 0
 133 194 l 0
 124 194 122 197 125 210 c 0
 128 223 131 225 142 225 c 0
 165 225 l 0
 219 225 253 243 264 305 c 0
 266 314 267 323 267 331 c 0
 267 364 251 386 215 386 c 0
 188 386 172 378 168 370 c 0
 161 356 185 348 185 320 c 0
 185 297 167 280 140 280 c 0
 116 280 98 296 98 325 c 0
 98 375 155 415 226 415 c 0
 277 415 338 386 338 319 c 0xfe80
 338 276 314 236 263 216 c 0
 235 204 240 200 257 178 c 0
 267 165 283 144 283 113 c 0
 283 38 214 -4 138 -4 c 0
 72 -4 15 33 15 87 c 0
 15 120 38 145 68 145 c 0
 96 145 112 124 112 100 c 0
 112 67 86 59 86 47 c 0
 86 36 103 28 131 28 c 0xff
EndSplineSet
Validated: 33
EndChar

StartChar: iacute
Encoding: 237 237 154
Width: 364
Flags: W
HStem: 0 32<75.6158 148.727 218.374 283.532> 116 31<81.285 164.519 253.999 331.813> 387 20G<180 189 271 279>
LayerCount: 2
Fore
SplineSet
316 115 m 0
 261 115 l 0
 239 115 236 107 230 92 c 0
 220 62 l 0
 216 45 218 32 238 32 c 0
 273 32 l 0
 285 32 288 32 284 17 c 0
 280 2 278 0 269 0 c 0
 80 0 l 0
 70 0 66 3 74 18 c 0
 80 32 83 32 92 32 c 0
 117 32 l 0
 139 32 145 36 152 56 c 0
 164 93 l 0
 170 113 161 116 148 116 c 0
 11 116 l 0
 4 116 0 119 0 125 c 0
 0 132 5 141 11 147 c 0
 77 208 135 290 174 397 c 0
 177 405 178 407 182 407 c 0
 196 407 203 395 225 395 c 0
 249 395 265 407 277 407 c 0
 281 407 282 401 273 387 c 0
 217 296 146 227 92 179 c 0
 72 161 62 147 90 147 c 0
 147 147 l 0
 176 147 183 153 189 171 c 0
 206 225 l 0
 210 237 216 242 226 250 c 0
 243 262 263 281 277 294 c 0
 288 305 296 302 289 281 c 0
 254 169 l 0
 249 154 250 147 273 147 c 0
 321 147 l 0
 333 147 337 147 332 129 c 0
 328 115 325 115 316 115 c 0
EndSplineSet
Validated: 33
EndChar

StartChar: icircumflex
Encoding: 238 238 155
Width: 336
Flags: W
HStem: -4 32<89.6763 169.445> 119 20G<51.5 81> 227 28<124.406 198.346> 334 60<143.988 281.771> 336 71<128 207.483>
VStem: 15 74<31.0185 110.551> 220 69<78.9489 213.098>
LayerCount: 2
Fore
SplineSet
289 155 m 0xee
 289 49 211 -4 131 -4 c 0
 65 -4 15 33 15 82 c 0
 15 114 36 139 67 139 c 0
 95 139 109 117 109 93 c 0
 109 65 89 54 89 43 c 0
 89 33 106 28 131 28 c 0
 183 28 220 101 220 163 c 0
 220 202 197 227 152 227 c 0
 136 227 111 222 91 215 c 0
 84 213 72 217 75 224 c 0
 97 287 108 327 121 398 c 0
 122 405 126 407 130 407 c 0xee
 139 407 169 394 222 394 c 0xf6
 261 394 307 407 316 407 c 0xee
 323 407 325 401 314 385 c 0
 292 352 245 334 196 334 c 0xf6
 184 334 166 336 153 336 c 0
 143 336 140 334 136 320 c 0
 122 268 l 0
 120 262 120 255 131 255 c 0
 146 255 157 259 179 259 c 0
 240 259 289 216 289 155 c 0xee
EndSplineSet
Validated: 1
EndChar

StartChar: idieresis
Encoding: 239 239 156
Width: 333
Flags: W
HStem: -4 32<92.4374 162.352> 206 30<110.384 184.323> 275 21G<252.5 281> 385 30<179.955 251.594>
VStem: 15 60<48.8893 182.635> 201 70<64.9546 196.587> 224 94<286.945 356.483>
LayerCount: 2
Fore
SplineSet
149 206 m 0xfc
 111 206 91 180 86 164 c 0
 80 144 75 118 75 100 c 0
 75 67 87 28 128 28 c 0
 177 28 201 102 201 144 c 0
 201 186 178 206 149 206 c 0xfc
224 385 m 0xfa
 161 385 124 314 106 245 c 0
 104 237 106 229 114 229 c 0
 128 229 144 236 167 236 c 0
 228 236 271 201 271 137 c 0xfc
 271 51 204 -4 131 -4 c 0
 64 -4 15 43 15 144 c 0
 15 258 109 415 230 415 c 0
 283 415 318 378 318 335 c 0
 318 305 297 275 265 275 c 0
 240 275 224 294 224 317 c 0
 224 351 253 355 252 371 c 0
 251 378 238 385 224 385 c 0xfa
EndSplineSet
Validated: 33
EndChar

StartChar: eth
Encoding: 240 240 157
Width: 333
Flags: W
HStem: 258 51G<50.748 66.248 207.248 230.748> 333 31<113.436 149.132> 395 20G<94.248 114.748 192.748 223.248 340.248 354.748>
VStem: 325.248 36<362.969 414.914>
LayerCount: 2
Fore
SplineSet
256.248 294 m 0
 247.248 292 234.248 288 227.248 288 c 0
 187.248 288 195.248 333 149.248 333 c 0
 114.248 333 92.248 315 78.248 271 c 0
 73.248 258 74.248 258 58.248 258 c 0
 43.248 258 44.248 261 45.248 268 c 0
 81.248 394 l 0
 86.248 412 88.248 415 100.248 415 c 0
 109.248 415 l 0
 120.248 415 119.248 408 117.248 401 c 0
 113.248 385 l 0
 111.248 376 111.248 364 121.248 364 c 0
 129.248 364 141.248 372 152.248 382 c 0
 171.248 396 181.248 408 204.248 408 c 0
 242.248 408 245.248 351 277.248 351 c 0
 300.248 351 314.248 363 325.248 393 c 0
 333.248 413 334.248 415 346.248 415 c 0
 363.248 415 365.248 412 361.248 398 c 0
 308.248 204 171.248 128 140.248 9 c 0
 137.248 -1 134.248 -2 130.248 -2 c 0
 115.248 -2 110.248 8 87.248 8 c 0
 56.248 8 49.248 -2 36.248 -2 c 0
 32.248 -2 27.248 0 32.248 10 c 0
 108.248 155 207.248 179 266.248 268 c 0
 280.248 289 282.248 302 256.248 294 c 0
EndSplineSet
Validated: 1
EndChar

StartChar: ntilde
Encoding: 241 241 158
Width: 357
Flags: W
HStem: -4 34<87.5677 202.284> 383 32<172.555 272.674>
VStem: 15 39<59.3299 155.356> 97 61<273.498 372.485> 221 65<49.4312 152.468> 304 38<263.648 356.948>
LayerCount: 2
Fore
SplineSet
342 307 m 0
 342 278 324 250 299 230 c 0
 256 197 261 196 275 161 c 0
 283 143 286 126 286 111 c 0
 286 44 221 -4 144 -4 c 0
 77 -4 15 40 15 109 c 0
 15 149 42 185 94 213 c 0
 122 228 121 231 109 262 c 0
 104 275 97 295 97 312 c 0
 97 371 147 415 219 415 c 0
 293 415 342 368 342 307 c 0
265 248 m 0
 283 257 304 279 304 310 c 0
 304 352 268 383 223 383 c 0
 181 383 158 364 158 330 c 0
 158 306 172 275 200 253 c 0
 222 234 240 235 265 248 c 0
147 30 m 0
 200 30 221 58 221 90 c 0
 221 128 203 155 174 177 c 0
 154 194 136 194 113 184 c 0
 82 171 54 142 54 109 c 0
 54 59 96 30 147 30 c 0
EndSplineSet
Validated: 33
EndChar

StartChar: ograve
Encoding: 242 242 159
Width: 341
Flags: W
HStem: -4 32<102.539 156.344> 99 20G<50.5 80.5> 176 31<150.079 230.311> 383 32<179.612 251.124>
VStem: 15 99<29.0662 109.508> 68 70<214.12 342.35> 263 63<226.143 366.779>
LayerCount: 2
Fore
SplineSet
190 207 m 0xf6
 226 207 246 224 253 247 c 0
 259 267 263 287 263 323 c 0
 263 356 252 383 216 383 c 0
 167 383 138 309 138 267 c 0
 138 225 155 207 190 207 c 0xf6
110 28 m 0
 173 28 215 97 233 165 c 0
 235 173 234 180 226 180 c 0
 212 180 195 176 172 176 c 0
 111 176 68 206 68 270 c 0xf6
 68 356 137 415 210 415 c 0
 276 415 326 372 326 282 c 0
 326 153 226 -4 105 -4 c 0
 52 -4 15 24 15 64 c 0
 15 94 35 119 66 119 c 0
 95 119 114 98 114 73 c 0xfa
 114 61 110 52 106 45 c 0
 96 33 98 28 110 28 c 0
EndSplineSet
Validated: 1
EndChar

StartChar: oacute
Encoding: 243 243 160
Width: 358
Flags: W
HStem: -4 32<140.36 217.758> 383 32<140.36 217.758>
VStem: 18 82<98.1127 313.593> 259 82<98.1127 312.932>
LayerCount: 2
Fore
SplineSet
179 383 m 0
 123 383 100 313 100 222 c 0
 100 189 l 0
 100 98 123 28 179 28 c 0
 235 28 259 98 259 189 c 0
 259 222 l 0
 259 313 235 383 179 383 c 0
179 415 m 0
 286 415 341 310 341 206 c 0
 341 102 286 -4 179 -4 c 0
 72 -4 18 102 18 206 c 0
 18 310 72 415 179 415 c 0
EndSplineSet
Validated: 1
EndChar

StartChar: ocircumflex
Encoding: 244 244 161
Width: 259
Flags: W
HStem: 0 32<53.0464 115.796 191.204 246.954> 388 20G<126 131.5 180 186.5>
VStem: 117 73<32.1879 268.781>
LayerCount: 2
Fore
SplineSet
120 401 m 0
 122 406 124 408 128 408 c 0
 135 408 142 400 155 400 c 0
 169 400 176 408 184 408 c 0
 189 408 190 405 190 398 c 0
 190 57 l 0
 190 39 200 32 216 32 c 0
 237 32 l 0
 243 32 247 31 247 20 c 0
 247 12 l 0
 247 1 244 0 232 0 c 0
 68 0 l 0
 56 0 53 1 53 12 c 0
 53 20 l 0
 53 31 57 32 63 32 c 0
 91 32 l 0
 107 32 117 39 117 57 c 0
 117 265 l 0
 117 288 107 287 98 273 c 0
 43 183 l 0
 37 174 30 174 21 180 c 0
 14 184 14 192 17 198 c 0
 120 401 l 0
EndSplineSet
Validated: 1
EndChar

StartChar: otilde
Encoding: 245 245 162
Width: 343
Flags: W
HStem: -5 79<169.149 272.806> -5 21G<30.5 42.5> 56 47<109.768 144.516> 130 20G<303 315> 238 21G<65 90.5> 385 30<110.41 210.821>
VStem: 22 31<-4.96694 41.0765> 27 100<247.366 329.761> 237 87<238.501 350.222> 292 32<92.0312 149.997>
LayerCount: 2
Fore
SplineSet
292 132 m 0x9d40
 295 146 298 150 308 150 c 0
 322 150 324 147 324 136 c 0
 323 84 294 -5 213 -5 c 0x9d40
 159 -5 149 56 100 56 c 0
 73 56 60 40 53 11 c 0
 50 -1 49 -5 36 -5 c 0
 25 -5 22 0 22 11 c 0x7e40
 22 83 67 151 161 193 c 0
 207 213 237 246 237 299 c 0
 237 350 215 385 168 385 c 0
 137 385 109 375 94 357 c 0
 86 347 86 338 97 334 c 0
 113 328 127 311 127 289 c 0
 127 260 104 238 77 238 c 0
 53 238 27 258 27 290 c 0
 27 351 84 415 178 415 c 0
 256 415 318 364 318 293 c 0
 318 234 274 200 212 176 c 0
 174 161 142 155 115 130 c 0
 99 115 99 103 124 103 c 0x7d80
 186 102 193 74 235 74 c 0
 263 74 286 89 292 132 c 0x9d40
EndSplineSet
Validated: 1
EndChar

StartChar: odieresis
Encoding: 246 246 163
Width: 336
Flags: W
HStem: -4 32<105.417 210.435> 135 20G<57 84.5> 193 31<126.033 211.032> 255 21G<64 94> 385 30<105.373 208.315>
VStem: 21 100<62.9324 145.402> 32 90<261.58 336.912> 235 80<47.7134 170.503 247.123 359.652>
LayerCount: 2
Fore
SplineSet
147 193 m 0xfd
 145 193 l 0
 131 193 126 195 126 207 c 0
 126 221 130 224 141 224 c 0
 147 224 l 0
 215 224 235 247 235 308 c 0
 235 355 208 385 165 385 c 0
 140 385 115 381 98 364 c 0
 89 355 87 345 99 338 c 0
 111 331 122 318 122 299 c 0
 122 281 110 255 78 255 c 0
 50 255 32 276 32 310 c 0xfb
 32 370 101 415 172 415 c 0
 252 415 312 367 312 301 c 0
 312 264 290 239 267 223 c 0
 256 215 252 205 262 198 c 0
 285 182 315 156 315 114 c 0
 315 33 241 -4 170 -4 c 0
 85 -4 21 47 21 98 c 0
 21 130 42 155 72 155 c 0
 97 155 121 134 121 104 c 0
 121 86 113 75 104 68 c 0
 92 58 95 49 106 41 c 0
 119 32 137 28 157 28 c 0
 224 28 235 70 235 111 c 0
 235 180 203 193 147 193 c 0xfd
EndSplineSet
Validated: 1
EndChar

StartChar: divide
Encoding: 247 247 164
Width: 395
Flags: W
HStem: 0 32<129.046 191.796 265.204 319.954> 115 32<81.8736 191.769 264.883 353.954> 387 20G<153 160 241.5 249>
VStem: 193 71<32.1879 114.742 147.029 254.005>
LayerCount: 2
Fore
SplineSet
264 294 m 0
 264 170 l 0
 264 156 269 147 286 147 c 0
 344 147 l 0
 350 147 354 146 354 135 c 0
 354 127 l 0
 354 116 351 115 339 115 c 0
 287 115 l 0
 271 115 264 105 264 92 c 0
 264 57 l 0
 264 39 274 32 290 32 c 0
 310 32 l 0
 316 32 320 31 320 20 c 0
 320 12 l 0
 320 1 317 0 305 0 c 0
 144 0 l 0
 132 0 129 1 129 12 c 0
 129 20 l 0
 129 31 133 32 139 32 c 0
 167 32 l 0
 183 32 193 39 193 57 c 0
 193 88 l 0
 193 107 186 115 166 115 c 0
 33 115 l 0
 25 115 21 121 21 128 c 0
 21 132 23 139 25 142 c 0
 90 237 125 299 145 397 c 0
 147 407 151 407 155 407 c 0
 165 407 176 395 198 395 c 0
 224 395 236 407 247 407 c 0
 251 407 253 405 253 399 c 0
 253 396 249 388 247 384 c 0
 175 259 123 223 84 172 c 0
 76 160 72 147 94 147 c 0
 170 147 l 0
 187 147 193 157 193 172 c 0
 193 217 l 0
 193 232 196 231 204 241 c 0
 222 263 227 267 245 292 c 0
 253 302 264 306 264 294 c 0
EndSplineSet
Validated: 1
EndChar

StartChar: oslash
Encoding: 248 248 165
Width: 329
Flags: W
HStem: -4 32<108.76 197.091> 125 20G<57 82> 226 33<80.5265 201.099>
VStem: 21 97<42.7709 136.221> 46 34<251.49 336.001> 231 78<57.2048 201.595>
LayerCount: 2
Fore
SplineSet
57 407 m 0xec
 66 407 116 395 178 395 c 0
 220 395 271 407 279 407 c 0
 288 407 288 400 279 387 c 0
 242 337 174 325 101 336 c 0
 89 338 84 333 83 321 c 0
 82 299 81 278 80 264 c 0xec
 79 252 87 248 104 252 c 0
 123 257 139 259 164 259 c 0
 245 259 309 210 309 132 c 0
 309 61 260 -4 155 -4 c 0
 93 -4 21 33 21 96 c 0
 21 124 44 145 70 145 c 0
 94 145 118 126 118 96 c 0xf4
 118 81 112 69 105 62 c 0
 94 51 99 41 115 34 c 0
 123 30 139 28 147 28 c 0
 203 30 231 63 231 133 c 0
 231 204 191 226 151 226 c 0
 121 226 91 218 67 206 c 0
 61 203 44 198 46 214 c 0
 54 306 53 351 51 399 c 0
 51 405 53 407 57 407 c 0xec
EndSplineSet
Validated: 33
EndChar

StartChar: ugrave
Encoding: 249 249 166
Width: 332
Flags: W
HStem: -4 32<123.366 212.742> 200 36<122.447 217.667> 271 21G<242 270.5> 385 30<144.746 221.442>
VStem: 20 77<85.1717 308.821> 209 94<278.44 376.827> 238 74<52.2169 185.325>
LayerCount: 2
Fore
SplineSet
20 198 m 0xfa
 20 324 89 415 191 415 c 0
 258 415 303 370 303 325 c 0
 303 293 285 271 256 271 c 0
 228 271 209 292 209 319 c 0xfc
 209 334 216 344 223 352 c 0
 233 362 232 373 217 380 c 0
 210 383 198 385 189 385 c 0
 121 385 97 311 97 232 c 0
 97 213 110 214 127 222 c 0
 146 230 168 236 188 236 c 0
 250 236 312 196 312 120 c 0
 312 49 250 -4 174 -4 c 0
 76 -4 20 78 20 198 c 0xfa
176 200 m 0
 157 200 138 194 119 180 c 0
 105 169 97 156 97 132 c 0
 97 59 118 28 173 28 c 0
 219 28 238 67 238 118 c 0xfa
 238 172 215 200 176 200 c 0
EndSplineSet
Validated: 33
EndChar

StartChar: uacute
Encoding: 250 250 167
Width: 320
VWidth: 0
Flags: W
HStem: -146 39<-512.901 -425.73> 107 39<-316.27 -229.099>
VStem: -548 23<-100.079 -50.348> -217 23<50.348 100.079>
LayerCount: 2
Fore
SplineSet
293 80 m 0
 293 100 278 111 259 111 c 0
 229 111 182 87 126 43 c 0
 63 -6 27 -50 27 -80 c 0
 27 -100 42 -111 61 -111 c 0
 91 -111 138 -87 194 -43 c 0
 257 6 293 50 293 80 c 0
207 147 m 0
 273 147 320 119 320 53 c 0
 320 -2 290 -69 242 -106 c 0
 207 -133 158 -147 113 -147 c 0
 47 -147 0 -119 0 -53 c 0
 0 2 30 69 78 106 c 0
 113 133 162 147 207 147 c 0
EndSplineSet
Validated: 1
EndChar

StartChar: ucircumflex
Encoding: 251 251 168
Width: 338
Flags: W
HStem: 277 66<200.164 255.602> 329 79<84.8451 147.79> 395 20G<22 36 298.5 310>
VStem: 13 32<244.023 312.904 366.407 414.999> 60 109<8.26459 56.584> 285 33<362.99 414.984>
LayerCount: 2
Fore
SplineSet
169 8 m 0xbc
 169 -1 164 -2 160 -2 c 0
 146 -2 138 8 113 8 c 0
 87 8 81 -2 69 -2 c 0
 64 -2 58 1 60 9 c 0
 97 132 204 162 257 268 c 0
 265 284 258 293 234 282 c 0
 227 279 218 277 210 277 c 0xbc
 154 277 152 329 99 329 c 0x5c
 75 329 44 313 44 264 c 0
 44 246 42 244 28 244 c 0
 14 243 13 246 13 263 c 0
 13 397 l 0
 13 415 14 415 30 415 c 0x3c
 42 415 45 414 45 401 c 0
 45 376 l 0
 45 353.978 61 359 71 371 c 0
 88 392 105 408 129 408 c 0x5c
 183 408 197 343 240 343 c 0
 266 343 281 364 285 396 c 0
 288 415 293 415 304 415 c 0
 316 415 318 413 318 400 c 0
 313 194 171 130 169 8 c 0xbc
EndSplineSet
Validated: 1
EndChar

StartChar: udieresis
Encoding: 252 252 169
Width: 341
Flags: W
HStem: -4 34<96.9611 227.265> 382 33<109.103 234.118>
VStem: 19 41<59.7327 148.59> 29 56<284.888 362.118> 252 70<50.9985 139.456> 267 38<262.504 353.768>
LayerCount: 2
Fore
SplineSet
60 105 m 0xe8
 60 55 112 30 170 30 c 0
 228 30 252 64 252 91 c 0
 252 136 212 158 167 176 c 0
 149 183 138 180 120 173 c 0
 83 159 60 134 60 105 c 0xe8
267 310 m 0xd4
 267 350 229 382 173 382 c 0
 139 382 85 370 85 326 c 0
 85 285 134 264 186 242 c 0
 208 232 216 235 235 250 c 0
 257 267 267 288 267 310 c 0xd4
68 223 m 0
 46 241 29 263 29 300 c 0
 29 367 92 415 173 415 c 0
 241 415 305 373 305 310 c 0xd4
 305 288 295 264 279 246 c 0
 259 221 260 211 283 193 c 0
 306 173 322 150 322 115 c 0
 322 51 266 -4 170 -4 c 0
 91 -4 19 33 19 105 c 0xe8
 19 136 36 158 63 181 c 0
 82 198 86 209 68 223 c 0
EndSplineSet
Validated: 33
EndChar

StartChar: braceleft
Encoding: 123 123 170
Width: 672
Flags: W
HStem: -498 30<30 145 527 642> 329 62G<120 162 220 285 366 405 469 508 525 552> 468 30<30 145 527 642>
VStem: 0 30<-468 468> 120 42<-100.132 86.6562 174.912 391> 243 42<-391 -174.914 -86.7188 101.133> 366 39<-370 -194.913 -82.6875 56.0872 164.912 349> 469 39<-349 -164.912 -56.0872 84.0886 194.913 370> 642 30<-468 468>
LayerCount: 2
Fore
SplineSet
642 -457 m 0
 642 456 l 0
 642 462 635 468 631 468 c 0
 527 468 l 0
 527 498 l 0
 672 498 l 0
 672 -498 l 0
 527 -498 l 0
 527 -468 l 0
 631 -468 l 0
 636 -468 642 -461 642 -457 c 0
30 457 m 0
 30 -456 l 0
 30 -462 37 -468 41 -468 c 0
 145 -468 l 0
 145 -498 l 0
 0 -498 l 0
 0 498 l 0
 145 498 l 0
 145 468 l 0
 41 468 l 0
 36 468 30 461 30 457 c 0
472 -57 m 0
 472 73 l 0
 472 81 460 86 452 84 c 0
 412 72 l 0
 406 71 402 65 402 57 c 0
 402 -73 l 0
 402 -81 414 -87 422 -84 c 0
 462 -72 l 0
 468 -70 472 -65 472 -57 c 0
504 88 m 0
 504 -43 l 0
 504 -51 512 -58 519 -56 c 0
 552 -46 l 0
 552 -136 l 0
 526 -143 l 0
 513 -147 508 -154 508 -166 c 0
 508 -349 l 0
 469 -349 l 0
 469 -177 l 0
 469 -169 459 -163 452 -165 c 0
 418 -175 l 0
 408 -178 405 -183 405 -191 c 0
 405 -370 l 0
 366 -370 l 0
 366 -208 l 0
 366 -200 356 -193 349 -195 c 0
 322 -203 l 0
 322 -113 l 0
 358 -103 l 0
 365 -101 370 -96 370 -88 c 0
 370 43 l 0
 370 51 362 58 355 56 c 0
 322 46 l 0
 322 136 l 0
 348 143 l 0
 361 147 366 154 366 166 c 0
 366 349 l 0
 405 349 l 0
 405 177 l 0
 405 169 415 163 422 165 c 0
 456 175 l 0
 466 178 469 183 469 191 c 0
 469 370 l 0
 508 370 l 0
 508 208 l 0
 508 200 518 193 525 195 c 0
 552 203 l 0
 552 113 l 0
 516 103 l 0
 509 101 504 96 504 88 c 0
120 391 m 0
 162 391 l 0
 162 188 l 0
 162 179 173 173 181 175 c 0
 285 207 l 0
 285 -391 l 0
 243 -391 l 0
 243 -188 l 0
 243 -181 233 -173 225 -175 c 0
 120 -207 l 0
 120 391 l 0
249 90 m 0
 249 97 238 104 230 101 c 0
 170 83 l 0
 164 81 156 74 156 67 c 0
 156 -87 l 0
 156 -94 166 -103 177 -100 c 0
 235 -83 l 0
 244 -80 249 -74 249 -64 c 0
 249 90 l 0
EndSplineSet
Validated: 1
EndChar

StartChar: yacute
Encoding: 253 253 171
Width: 332
Flags: W
HStem: -4 32<111.368 183.849> 102 20G<53.5 79> 175 36<114.657 211.901> 383 32<118.782 206.949>
VStem: 21 92<30.145 114.426> 21 74<226.271 356.493> 236 77<168.097 328.181>
LayerCount: 2
Fore
SplineSet
313 222 m 0xf6
 313 97 240 -4 137 -4 c 0
 81 -4 21 25 21 73 c 0
 21 98 39 122 68 122 c 0
 90 122 113 104 113 74 c 0xfa
 113 65 111 60 108 54 c 0
 101 42 104 33 117 30 c 0
 122 29 129 28 135 28 c 0
 202 28 230 87 235 166 c 0
 237 194 226 194 204 186 c 0
 184 178 165 175 144 175 c 0
 75 175 21 214 21 290 c 0
 21 363 88 414 163 415 c 0
 254 416 313 334 313 222 c 0xf6
157 211 m 0
 177 211 194 216 215 231 c 0
 229 241 236 254 236 277 c 0
 236 352 211 383 163 383 c 0
 112 383 95 346 95 295 c 0xf6
 95 237 118 211 157 211 c 0
EndSplineSet
Validated: 33
EndChar

StartChar: bar
Encoding: 124 124 172
Width: 220
Flags: W
HStem: 111 34<63.7497 135.5> 295 20G<0 52> 295 20G<0 52>
VStem: 0 52<137.465 315> 0 30<-108.191 102.43> 122 73<-27.7012 102.111>
LayerCount: 2
Fore
SplineSet
0 315 m 1xd4
 52 315 l 1
 52 156 l 2xd4
 52 144 66 135 77 138 c 0
 88 142 101 145 114 145 c 0
 157 145 195 111 195 54 c 0
 195 -46 113 -99 63 -136 c 2
 10 -175 l 2
 3 -180 0 -178 0 -169 c 2xcc
 0 315 l 1xd4
30 93 m 1x8c
 30 -99 l 2
 30 -107 46 -113 54 -107 c 0
 103 -71 122 -20 122 39 c 0
 122 91 100 111 75 111 c 0
 63 111 44 104 30 93 c 1x8c
EndSplineSet
Validated: 1
EndChar
